<?xml version="1.0" encoding="utf-8"?>
<!-- Generator: Adobe Illustrator 22.0.0, SVG Export Plug-In . SVG Version: 6.00 Build 0)  -->
<svg version="1.1" id="Layer_1" xmlns="http://www.w3.org/2000/svg" xmlns:xlink="http://www.w3.org/1999/xlink" x="0px" y="0px"
	 viewBox="0 0 319.2 89.8" style="enable-background:new 0 0 319.2 89.8;" xml:space="preserve">
<style type="text/css">
	.st0{fill:url(#SVGID_1_);}
	.st1{stroke:#000000;stroke-miterlimit:10;}
	.st2{fill:#FFFFFF;stroke:#000000;stroke-miterlimit:10;}
</style>
<title>Asset 7</title>
<g id="Layer_2_1_">
	<g id="Layer_2-2">
		
			<linearGradient id="SVGID_1_" gradientUnits="userSpaceOnUse" x1="31.82" y1="37.435" x2="105.57" y2="37.435" gradientTransform="matrix(1 0 0 -1 0 92)">
			<stop  offset="0" style="stop-color:#000000"/>
			<stop  offset="1" style="stop-color:#BF0010"/>
		</linearGradient>
		<path class="st0" d="M105.6,19.7L92.5,31.2h-41c0,0,19.1,6.9,22.1,20.7c0,0,6.2,14.8-17.3,37.9c0,0,14-33.9-3.3-40.9
			c0,0-19.8-4.3-21.3-29.5h73.8"/>
		<path class="st1" d="M114.6,13.5l18.5-13H47.6c0,0-30.8,1.5-47,26.5c-1.4,0.8,18.8-11.8,26.8-12L114.6,13.5z"/>
	</g>
	<g id="Layer_3">
		<polygon class="st1" points="112.8,54.6 112.8,31.5 132.6,31.5 132.6,36.4 117.8,36.4 117.8,54.6 		"/>
		<rect x="120" y="41.8" class="st1" width="11.7" height="2.8"/>
		<polygon class="st1" points="134.8,31.5 134.8,54.6 154.7,54.6 154.7,49.6 139.6,49.6 139.6,31.5 		"/>
		<polygon class="st1" points="157,31.5 157,54.2 177,54.2 177,49.7 160.8,49.7 160.8,35.6 177,35.6 177,31.5 		"/>
		<rect x="163.8" y="41.8" class="st1" width="13.2" height="2.8"/>
		<polygon class="st1" points="179.8,31.5 185.7,31.5 193.5,39.3 201.2,31.5 208,31.5 197.1,42.4 207.6,52.9 207.6,54.6 202.8,54.6 
			193.3,45 184.1,54.3 178.9,54.3 190.5,42.6 		"/>
		<polygon class="st1" points="209.9,54.6 214.3,54.6 224.1,37.5 229.2,45.7 221.9,45.7 221.9,48.5 231.1,48.5 234.3,54.6 
			239.3,54.6 225.4,31.5 223.2,31.5 209,54.6 		"/>
		<path class="st1" d="M291.8,42.5c0.5-8.3-7.5-11-7.5-11H273c-9.3,2.5-8.1,11.1-8.1,11.1c-1.1,7.9,7.1,11.1,7.1,11.1h12
			C293.4,53.3,291.8,42.5,291.8,42.5z M287.8,44c0,0.1,0,0.1,0,0.2c0,0.6,0,1.1-0.2,1.7c-0.3,2.2-1.9,4.2-4.8,4.2
			c-0.2,0-0.4,0-0.5,0c-0.2,0-0.5,0-0.7,0c-0.2,0-0.4,0-0.5,0c-0.2,0-0.4,0-0.7,0c-0.5,0.2-1,0.3-1.7,0.3c-0.2,0-0.5,0-0.7,0
			c-0.2,0-0.5,0-0.7,0c-0.1,0-0.2,0-0.3,0c0,0,0,0,0,0c-0.4,0.1-0.8,0.2-1.3,0.2c-0.1,0-0.3,0-0.4,0c-0.1,0-0.2,0-0.4,0
			c-0.1,0-0.2,0-0.2,0c-0.1,0-0.2,0-0.3,0c-1.9,0-3.2-0.8-4-2c-0.4-0.4-0.7-0.8-0.9-1.3c-0.5-0.9-0.8-2-0.7-3c0-0.1,0-0.2,0-0.3
			c-0.3-1.3-0.1-2.8,0.5-4c0.5-1.8,2-3.3,4.5-3.3c0.1,0,0.1,0,0.2,0c0.6-0.3,1.4-0.5,2.3-0.5c0.6,0,1.2,0.1,1.7,0.3
			c0.2,0,0.4,0,0.6,0c0.2,0,0.4,0,0.6,0c0.2,0,0.4,0,0.7,0c0.2,0,0.4,0,0.6,0c0.2,0,0.4,0,0.6,0c0.1,0,0.1,0,0.2,0
			c0.1,0,0.2,0,0.3,0c0.5,0,0.9,0.1,1.3,0.2c1,0.1,1.7,0.5,2.4,1c1.3,0.8,2.1,2.2,2.2,3.6C288,42,288,43,287.8,44z"/>
		<path class="st1" d="M247.8,41.8h13.8v11.9h-16.4c0,0-6.1-2-7.5-10.7c0,0-1.6-6.5,6.9-10.3h16v2.8h-14.1c0,0-6,2.2-5.2,7.3
			c-0.3,3.1,1.6,6,4.5,7.1h12.1v-5.2h-10.1V41.8z"/>
		<polygon class="st1" points="295,54.6 295,31.5 299.3,31.5 314.7,46.8 314.7,31.5 318.7,31.5 318.7,54.6 314.9,54.6 298.7,38.4 
			298.7,54.6 		"/>
	</g>
	<g id="Layer_4">
		<path class="st2" d="M285.3,37.1c-1.2-0.9-2.5-1.4-4-1.5h-6.5c-1.1,0-2.1,0.3-3,0.8c-2.3,1.4-3.6,4-3.3,6.7
			c-0.2,1.3,0.3,2.5,0.9,3.5c-0.3-0.7-0.4-1.5-0.4-2.3c0-0.2,0-0.4,0-0.6c-0.3-1.3-0.1-2.7,0.5-3.9c0.5-1.8,2-3.3,4.5-3.3
			c0.1,0,0.1,0,0.2,0c0.6-0.3,1.4-0.5,2.3-0.5c0.6,0,1.2,0.1,1.7,0.3c0.2,0,0.4,0,0.6,0c0.2,0,0.4,0,0.6,0c0.2,0,0.4,0,0.7,0
			c0.2,0,0.4,0,0.6,0c0.2,0,0.4,0,0.6,0c0.1,0,0.1,0,0.2,0c0.1,0,0.2,0,0.3,0c0.5,0,0.9,0.1,1.3,0.2c1,0.1,1.7,0.5,2.4,1
			c1.3,0.8,2.1,2.2,2.2,3.6c0.3,1,0.4,2,0.2,3c0,0.1,0,0.1,0,0.2c0,0.6,0,1.1-0.2,1.7c-0.3,2.2-1.9,4.2-4.8,4.2c-0.2,0-0.4,0-0.5,0
			c-0.2,0-0.5,0-0.7,0c-0.2,0-0.4,0-0.5,0c-0.2,0-0.4,0-0.7,0c-0.5,0.2-1,0.3-1.7,0.3c-0.2,0-0.5,0-0.7,0c-0.2,0-0.5,0-0.7,0
			c-0.1,0-0.2,0-0.3,0c0,0,0,0,0,0c-0.4,0.1-0.8,0.2-1.3,0.2c-0.1,0-0.3,0-0.4,0c-0.1,0-0.2,0-0.4,0c-0.1,0-0.1,0-0.2,0
			c-0.1,0-0.1,0-0.2,0c0.3,0,0.6,0.1,0.9,0.1h7c0.9,0,1.9-0.2,2.7-0.7c3.5-2,3.3-7,3.3-7C288.7,40.7,287,38.1,285.3,37.1z"/>
	</g>
</g>
</svg>
