<?xml version="1.0" encoding="utf-8"?>
<!-- Generator: Adobe Illustrator 22.0.0, SVG Export Plug-In . SVG Version: 6.00 Build 0)  -->
<svg version="1.1" id="Layer_1" xmlns="http://www.w3.org/2000/svg" xmlns:xlink="http://www.w3.org/1999/xlink" x="0px" y="0px"
	 viewBox="0 0 316.8 82.1" style="enable-background:new 0 0 316.8 82.1;" xml:space="preserve">
<style type="text/css">
	.st0{fill:#252223;}
	.st1{fill:#332F30;}
	.st2{fill:#312D2E;}
	.st3{fill:#2E2728;}
	.st4{fill:#252122;}
	.st5{fill:#262223;}
	.st6{fill:#2C292A;}
	.st7{fill:#292526;}
	.st8{fill:#2B2728;}
	.st9{fill:#2F2B2C;}
	.st10{fill:#2E2A2B;}
	.st11{fill:#2D292A;}
	.st12{fill:#343132;}
	.st13{fill:#302C2D;}
	.st14{fill:#322E2F;}
	.st15{fill:#373334;}
	.st16{fill:#D11145;}
	.st17{fill:#FDFDFD;}
	.st18{fill:#E7E6E6;}
	.st19{fill:#2C2425;}
	.st20{fill:#FCFCFC;}
	.st21{fill:#CD1344;}
</style>
<title>Asset 8</title>
<g id="Layer_2_1_">
	<g id="Layer_4">
		<path class="st0" d="M316.8,34.8c-0.9,0.1-1.6,0.8-1.9,1.7c-2.7,7.3-5.4,14.6-8.2,21.8c-1,2.9-2.4,5.7-3.9,8.4
			c-2.8,4.8-8.6,7-13.9,5.3c-0.2-0.1-0.3-0.1-0.5-0.2c0.6-2.3,1.1-4.5,1.7-6.8l1.6,0.1c0.1,0.4,0.2,0.8,0.2,1.2
			c-0.1,1.3,0.7,1.7,1.7,1.6c1.3-0.1,2.6-0.4,3.9-1c2.7-1.7,4.6-4.4,5.4-7.5c-0.1-0.1-0.2-0.2-0.2-0.2c-1.7,0.3-2.1-0.7-2.5-2
			c-2.4-6.6-5-13.2-7.5-19.8c-0.5-1.4-1-2.7-2.9-2.6V33h11.2v1.7l-2.4,0.6c2,6.5,4.1,12.8,6.1,19.2l0.4,0.1
			c1.8-6.4,3.6-12.8,5.5-19.2l-2.4-0.6v-1.8h8.7L316.8,34.8z"/>
		<path class="st1" d="M162,82.1c0-0.6,0.2-1,1-0.9c0.5,0,1.1-0.2,1.6-0.4c0.6-0.2,0.9-0.9,0.7-1.5c0-0.1,0-0.1-0.1-0.1
			c-0.3-1-0.4-2-0.4-3.1c0-1.4-0.8-1.6-2-1.2l-0.8,3.9l1.5-0.3c-0.2,0.8-1,1.3-1.8,1.1c-0.8-0.2-0.9-0.8-0.8-1.5
			c0.1-0.9,0.4-1.7,0.5-2.6c0.1-0.6-0.3-1.2,0.3-1.7c0.4-0.3,0.7-0.7,1-1l0.3,0.2l-0.2,1.2c0.5,0,0.9,0.1,1.3,0.1s0.9-0.1,1.3-0.1
			c0.2,1.4,0.3,2.8,0.5,4.2c0.9-1.3,1.8-2.4,1.8-4.1h1.4c-1.4,2.9-2.6,5.8-5.1,7.9L162,82.1z"/>
		<path class="st2" d="M259.2,82.1c-1.3-1-1.4-1.4-0.2-2.2c0.2,1.5,1.2,1.8,2.5,1.5c0.3-0.1,0.6-0.5,0.9-0.8
			c-0.3-0.3-0.6-0.6-0.9-0.8c-0.3-0.1-0.7,0-1.1-0.1s-0.9-0.2-1.5-0.3c0.6-1.1,1.3-1.7,0.6-2.8s0.8-2.7,2.5-2.6c1,0,2,0.2,3.3,0.3
			l-1.2,0.6c0.5,2-0.6,3.2-2.8,3.1c-0.4,0-0.8,0.2-1.2,0.3l0.1,0.4c0.5,0,1,0,1.5,0c0.8,0.1,1.6,0.3,1.9,1.2s-0.4,1.5-1.1,1.9
			c-0.1,0.1-0.2,0.2-0.3,0.3L259.2,82.1z M263.1,75.4c-0.3-0.2-0.7-0.7-1.1-0.7c-0.6-0.1-1.2,0.3-1.3,1c0,0.2,0,0.3,0,0.5
			c0.1,0.5,0.5,0.9,1,1.1C262.6,77.3,262.9,76.6,263.1,75.4z"/>
		<path class="st1" d="M70.3,82.1c1.7-2,1.4-4.6,2-6.9c0.1-0.2-0.3-0.5-0.5-0.9c0.7,0,1.4-0.8,2.2,0.3c-0.2,0-0.1,0-0.1,0
			c0.7-0.5,1.4-1,2.3-0.3c0.8,0.6,1,1.7,0.7,2.6c-0.5,1.8-2.2,3-4.1,2.6c-0.5,0.8-0.4,1.8,0.2,2.5H70.3z M72.8,78.6
			c1.6,0.7,2.7-0.2,2.8-2c0-0.5-0.4-1.1-0.6-1.6c-0.5,0.3-1.2,0.5-1.4,1C73.2,76.8,73,77.7,72.8,78.6z"/>
		<path class="st2" d="M94.8,82.1c0.2-0.2,0.5-0.5,0.8-0.7c0.4-0.2,1.2-0.3,1.3-0.6c0.6-1.9,1-3.9,1.4-5.9c0-0.1-0.2-0.2-0.4-0.4
			c1.1-1.4,1.9-3.5,4.5-2.4l-0.6,0.9c-0.4-0.2-0.9-0.6-1-0.5c-0.5,0.5-1,1-1.4,1.5l1.3,0.2c-1.9,0.4-1.4,2-1.8,3.2
			c-0.5,1.7-0.8,3.5-2.3,4.7L94.8,82.1z"/>
		<path class="st2" d="M175.4,82.1c0.2-0.4,0.2-0.9,1-0.7c0.5,0,1-0.3,1.3-0.7c0.9-1.9,1.3-4,1.2-6.1c-0.1-0.7,0.8-1.5,1.4-2.1
			c0.8-0.8,2-0.9,2.9-0.3l-0.6,1c-0.4-0.2-0.8-0.7-1-0.6c-0.6,0.5-1.1,1-1.6,1.5l1.5,0.2v0.2l-1.3,0.4c-0.7,2.5-0.7,5.2-2.8,7.2
			L175.4,82.1z"/>
		<path class="st3" d="M0.3,0.3h73.4v62.6H0.3V0.3z M71.9,61.2V2H2v59.2H71.9z"/>
		<path class="st4" d="M231.8,59h-7.7c-0.2-1.8-0.3-3.5-0.5-5.4c-0.7,1.1-1.5,2.1-2.4,3.1c-3.4,3.3-8.6,4-12.7,1.7
			c-4.1-2.4-4.4-8.5-0.6-11.8c2.4-1.9,5.3-3.1,8.3-3.4c2.2-0.3,4.4-0.5,6.9-0.7c0-1.5-0.2-2.9-0.4-4.4c-0.3-1.1-1.3-2-2.4-2.1
			c-2.9-0.6-5.9-0.2-8.7,1c-0.3,0.2-0.5,0.5-0.5,0.8c0,0.7,0,1.3,0,2l-1.6,0.5l-2.5-5.8c1.8-0.5,3.6-1.1,5.4-1.5
			c3.5-0.9,7.2-0.9,10.8-0.1c3.4,0.8,5.2,2.8,5.4,6.3c0.3,5.1,0.5,10.2,0.7,15.3c0,1.1,0.3,1.8,1.4,2.2c0.9,0.2,1.4,1,1.3,1.9
			C232,58.8,231.9,58.9,231.8,59z M223.1,45.4c-1.8,0.2-3.6,0.3-5.3,0.7c-2,0.3-3.8,1.2-5.1,2.6c-1.1,1.1-1.5,2.7-1,4.1
			c0.4,1.4,1.6,2.4,3.1,2.5c2.2,0.5,4.5-0.4,5.9-2.2C222.5,51,222.9,48.4,223.1,45.4z"/>
		<path class="st5" d="M192.9,59.5h-5.8c-1.3-3.6-2.5-7.3-3.8-11c-2.4-6.3-4.8-12.6-7.2-18.9c-0.2-1.2-1.3-2-2.4-2
			c-0.3,0-0.7-0.1-1-0.2v-1.7h12.8v1.7l-2.7,0.6c2.8,8.6,5.5,17.1,8.3,25.7h0.4c2.8-8.5,5.5-17,8.3-25.6l-2.5-0.6v-1.7h10
			c0.2,1.7,0.2,1.8-1.4,1.9c-0.9,0.1-1.7,0.7-2,1.6C199.7,39,196.4,49,193.1,59C193.1,59.1,193.1,59.3,192.9,59.5z"/>
		<path class="st5" d="M101.7,45.8c-1.2,0.3-2,0-2.2-1.3c-0.2-0.8-0.7-1.1-1.4-1.1c-3,0-5.9,0-8.7,0v13.3l4.5,0.6V59H79.5v-1.7
			l3-0.6c0.1-2,0.3-4,0.3-6c0-7-0.1-14.1-0.2-21.1c0-1.2-0.3-2-1.7-2c-0.5,0-1-0.1-1.4-0.3v-1.7c1.7,0,3.5,0,5.2,0
			c6,0,11.9,0.1,17.9,0c0.9,0,1.3,0.2,1.4,1.2c0.3,1.8,0.7,3.5,1.1,5.3l-1.6,0.6c-0.1-0.2-0.2-0.2-0.3-0.3c-0.6-2.1-2-2.9-4.1-3
			c-3.2-0.1-6.4-0.4-9.9-0.6V40c0.6,0,1.3,0,2.1,0c2.3-0.1,4.7-0.2,7-0.4c0.4-0.1,0.8-0.4,1-0.7c0.7-1.3,0.7-1.4,2.3-1.2L101.7,45.8
			z"/>
		<path class="st4" d="M134.4,45.9c0,8.1-5.6,13.8-13.6,13.8c-8.6,0-13.8-5.1-13.8-13.5c0-7.9,5.7-13.8,13.5-13.8
			C129.1,32.4,134.4,37.5,134.4,45.9z M128.2,45.6c0.1-2.4-0.5-4.7-1.7-6.7c-1.3-2.3-3.8-3.7-6.4-3.4c-2.7,0.1-5,1.9-5.8,4.4
			c-1.1,2.8-1.3,5.9-0.8,8.8c0.2,1.9,0.9,3.7,2.1,5.3c2.3,2.9,6.4,3.4,9.3,1.1c0.5-0.4,0.9-0.8,1.2-1.3
			C127.8,51.6,128.2,48.9,128.2,45.6z"/>
		<path class="st4" d="M288.2,44.2h-17.9c-0.2,2.7,0.4,5.4,1.6,7.8c1.7,3,5.3,4.2,8.9,3c1.9-0.6,3.2-1.5,5.9-4l1.9,1.7
			c-4.7,6.4-10.1,7.9-15.9,6.4c-4.5-1-7.9-4.6-8.6-9.1c-1.1-5.8,0.2-11.1,5.1-14.9c3.5-2.8,8.2-3.6,12.5-2.1
			c3.8,1.2,6.4,4.7,6.5,8.7C288.3,42.5,288.2,43.3,288.2,44.2z M282,41c0.1-4.2-1.5-6-5.2-5.7c-3.3,0.2-6.2,3.2-6,6.3L282,41z"/>
		<path class="st0" d="M136.6,34.9V33h11.2c0.4,1.2,0.1,2-1.5,2.2l4.8,7.7l4.8-7.6c-1.5-0.2-1.9-1-1.4-2.2h8.4v1.8
			c-2.4-0.2-3.5,1.5-4.7,3.1l-5.4,7.2c2.8,3.8,5.5,7.6,8.3,11.3c0.3,0.3,0.6,0.4,1,0.5c0.6,0.2,1.2,0.3,1.7,0.4V59H152v-1.7l1.8-0.6
			l-5.3-8.4c-1.8,2.9-3.4,5.6-5.1,8.3l2.1,0.6V59h-9v-1.8c2.2,0.2,3.1-1.6,4.2-3c1.9-2.4,3.7-4.8,5.5-7.2c0.4-0.4,0.4-1.1,0-1.5
			c-1.9-2.6-3.7-5.3-5.6-7.9C139.8,36,138.7,34.7,136.6,34.9z"/>
		<path class="st4" d="M234.5,59v-1.7l1.2-0.3l1.6-0.3c0.5-10.4,0.5-20.9,0-31.4l-3.2-0.7v-1.7l9.6-1.5c-0.1,2.6-0.3,5-0.3,7.3
			c0,7.8,0,15.6,0,23.4c0,1.2,0.2,2.3,0.2,3.5c-0.1,0.7,0.3,1.4,1,1.5c0.1,0,0.2,0,0.4,0c0.5,0.1,1,0.1,1.4,0.3V59L234.5,59z"/>
		<path class="st4" d="M251.8,25.3l-3.2-0.7v-1.7l9.5-1.5c-0.5,12-0.5,23.6,0,35.4l2.8,0.6V59h-11.9v-1.7l2.8-0.7
			C252.2,46.3,252.2,35.8,251.8,25.3z"/>
		<path class="st6" d="M221.9,14.6h-1.8c-0.6-2.4-1.2-4.7-1.9-7.4c-0.7,2.7-1.3,5-1.9,7.4h-1.7c-0.7-2.4-1.4-4.9-2.1-7.3
			c-0.3-1-0.3-2.1-1.8-2.4l0.2-0.3h4.2l-1,0.8c0.5,2.1,1.1,4.3,1.7,6.5l0.3,0.1c0.6-2.5,1.2-4.9,1.8-7.4h1.6
			c0.6,2.5,1.2,4.9,1.9,7.4h0.3c0.5-2.1,1.1-4.1,1.5-6.2c0.1-0.3-0.4-0.7-0.7-1.1h3.1c-0.5,0.7-1,1.5-1.3,2.3
			c-0.7,2.2-1.4,4.4-2,6.6L221.9,14.6z"/>
		<path class="st7" d="M131.1,4.6c1.9,0,3.8,0,5.7,0s2.8,0.7,2.9,2c0.2,1.6-0.4,2.4-2.2,3L137,9.7c0.7,0.8,1.3,1.6,2,2.4
			s1.4,1.5,2,2.2c-1.9,0.7-2.5,0.5-3.6-0.9c-0.7-0.9-1.4-1.9-2.1-2.8c-0.4-0.3-0.8-0.6-1.3-0.6c0.2,1.5-0.9,3.3,0.9,4.4h-4
			c1.9-1.5,0.9-3.4,1.1-5.2c0.1-0.6,0.1-1.3,0-1.9c-0.1-1,0.4-2.2-1.2-2.6L131.1,4.6z M133.9,9c0.7,0,1.4-0.1,2.1-0.2
			c1-0.1,1.7-1,1.6-2c-0.1-1-1.2-1.4-2.7-1.4c-1.3,0-0.9,0.9-1,1.6S133.9,8.3,133.9,9z"/>
		<path class="st8" d="M194.9,9.6c0,2.9-2.2,5.2-5.1,5.3c-0.1,0-0.3,0-0.4,0c-3.3,0-5.6-2.2-5.5-5.3c0-2.9,2.4-5.2,5.3-5.2
			c0.1,0,0.2,0,0.2,0C192.8,4.4,194.9,6.5,194.9,9.6z M192.9,9.4c-0.1-0.6-0.2-1.2-0.4-1.7c-0.4-1.4-1.7-2.3-3.1-2.2
			c-1.4-0.1-2.7,0.9-3,2.3c-0.3,1.2-0.2,2.5,0.1,3.7c0.4,1.4,1.7,2.3,3.2,2.2c1.4-0.1,2.6-1.2,2.9-2.6
			C192.8,10.6,192.9,10,192.9,9.4z"/>
		<path class="st8" d="M253.9,9.6c0-2.9,2.3-5.2,5.2-5.3c0.1,0,0.2,0,0.3,0c3.3,0,5.6,2.2,5.6,5.3c0,2.9-2.3,5.2-5.2,5.2
			c-0.1,0-0.2,0-0.3,0C256.1,14.8,253.9,12.7,253.9,9.6z M255.9,9.6c0.2,0.8,0.4,1.5,0.7,2.3c0.5,1.2,1.8,2,3.1,1.9
			c1.3-0.1,2.5-1,2.8-2.3c0.6-1.4,0.4-3.1-0.4-4.4c-0.6-1-1.7-1.7-2.9-1.6C257.3,5.6,256,7.2,255.9,9.6L255.9,9.6z"/>
		<path class="st9" d="M302.9,14.6c-0.9,0.4-2-0.1-2.4-1c-1.3-2.1-2.7-4.1-4.3-6c0,1.4-0.1,2.7,0,4.1c0.1,1-0.3,2.2,1,2.9H294
			c0-0.1,0-0.1,0-0.2c1.2-0.4,1-1.5,1-2.4c0-1.5,0-3,0-4.6c0-1,0.5-2.2-1.4-2.5c2.6-0.7,3.1-0.5,4.3,1.2l3.8,5.8c0-2.2,0-4.1,0-6.1
			c0-0.3-0.6-0.6-0.9-1.1h3.2c-1.8,2.4-0.6,5.2-0.9,7.8C302.9,13.2,302.9,13.9,302.9,14.6z"/>
		<path class="st10" d="M94.6,7.5c0,2.1,0,4.1,0,6.1c0,0.3,0.6,0.5,1.1,1h-3.5c0-0.1,0-0.1,0-0.2c1.3-0.5,1-1.6,1-2.6
			c0-1.4,0-2.9,0-4.3c0-1,0.3-2.1-1.2-2.6c2.3-0.6,2.9-0.4,4,1.3l3.8,5.8c0-2.2,0.1-4.1,0-6.1c0-0.3-0.6-0.6-1.1-1.1h3.6
			c-1.7,1-1.1,2.6-1.2,4s0,2.9,0,4.4v1.5c-0.9,0.4-2,0-2.4-0.9c-1-1.8-2.3-3.5-3.4-5.2C95.1,8.1,94.8,7.8,94.6,7.5z"/>
		<path class="st10" d="M273.2,4.6h3.8l-1.3,0.9v9c-1,0.4-2.2-0.1-2.6-1.1c-1.3-2.1-2.7-4.1-4.2-6c0,0.7,0,1.4,0,2.1s0,1.6,0.1,2.4
			s-0.2,1.9,1,2.5h-3.2c1.5-0.8,0.9-2.2,1-3.4c0.1-1,0.1-2,0-3c-0.1-1.2,0.5-2.5-1.2-3.2c2.2-0.6,2.8-0.4,3.9,1.2
			c1.3,2,2.7,3.9,4.1,5.8c-0.1-2-0.1-4-0.3-6C274.3,5.4,273.7,5.1,273.2,4.6z"/>
		<path class="st11" d="M278.1,13.9c0.2-0.6,0.4-0.9,0.5-1.3s0.4-0.6,0.6-1c0.1,0.3,0.2,0.8,0.5,0.9c0.9,0.5,2,0.8,3,1
			c0.7,0,1.4-0.4,1.9-0.9c0.6-0.7,0.1-1.5-0.7-1.8s-1.9-0.6-2.8-1c-1.8-0.6-2.5-1.3-2.4-2.5s1-2.4,2.7-2.8c1.7-0.3,3.5-0.2,5.1,0.4
			c-0.3,0.8-0.5,1.5-0.9,2.5c-0.5-1.9-1.9-2-3.2-2c-0.8,0-1.6,0.2-1.7,1.2s0.7,1.2,1.4,1.4c1,0.3,1.9,0.5,2.9,0.8
			c1.1,0.2,1.9,1.2,2,2.3c0.1,1.2-0.6,2.4-1.7,2.9C282.7,15.3,280.4,14.9,278.1,13.9z"/>
		<path class="st11" d="M232.3,13.9l1-2.3c0.5,1.6,1.7,1.8,2.9,2c0.6,0.1,1.2,0,1.7-0.2c0.5-0.3,0.8-0.8,0.9-1.3
			c0-0.5-0.3-0.9-0.8-1.2c-0.9-0.4-2-0.6-2.9-1.1c-0.8-0.3-1.5-0.7-2.1-1.3c-0.9-1.1-0.2-2.7,1.2-3.5c2.1-1.1,4.1-0.6,6.3,0l-0.7,2
			c-0.8-0.5-1.7-0.9-2.6-1.3c-0.5-0.2-1-0.1-1.4,0.1c-0.5,0.2-0.9,0.6-1.1,1.2c-0.1,0.3,0.5,1,0.9,1.1c1,0.4,2.1,0.6,3.1,0.9
			s2.1,1.1,2.1,2.4c0,1.3-0.8,2.4-2,2.8C236.7,15.2,234.5,14.9,232.3,13.9z"/>
		<path class="st8" d="M150.1,5l-0.9,2.3c-0.7-1.4-2.4-2.1-3.9-1.6c-0.5,0.2-0.8,0.6-1,1.1c-0.1,0.3,0.4,0.9,0.8,1.1
			c1,0.4,2,0.6,3,0.9c1.7,0.6,2.4,1.3,2.4,2.6c0,1.4-1,2.6-2.4,3c-2.1,0.7-4.3,0.5-6.2-0.5l1.1-2.5c0.9,1.7,2.2,2.4,3.7,2.1
			c0.7-0.2,1.3-0.6,1.6-1.3c0.4-0.9-0.4-1.4-1.1-1.7c-1-0.4-2.1-0.6-3.1-1c-1-0.2-1.8-1.1-1.9-2.1c-0.1-1.1,0.6-2.1,1.6-2.6
			C145.9,3.9,147.9,4.4,150.1,5z"/>
		<path class="st2" d="M120.8,4.6h7.8l0.4,2c-1.6-1.4-3.4-0.8-5.2-1c-0.1,1-0.1,1.8-0.2,3.1l4-0.6V10l-3.9-0.6v4.1
			c2-0.3,4,0.7,5.5-1.4l0.3,0.2l-0.4,2.2h-8.7c2.2-1.4,0.9-3.3,1.2-5c0.1-0.6,0.1-1.3,0-1.9C121.7,6.6,122.1,5.4,120.8,4.6z"/>
		<path class="st8" d="M80,4.6h4.2c-1.8,2.1-0.8,4.6-0.9,6.8c0,1.5,1.1,2.2,2.5,2.1c1.3,0,2.3-1.1,2.3-2.4c0,0,0,0,0,0
			c0-1.7,0-3.4-0.2-5.1c0-0.4-0.6-0.8-1-1.3h3.5c-2,1.7-0.9,3.8-1,5.7c-0.1,1.6-0.2,3-1.7,3.8c-1.6,0.9-3.5,0.9-5.1,0.1
			c-1-0.5-1.5-1.5-1.5-2.6c0-1,0.1-2,0-3C81.2,7.3,82,5.8,80,4.6z"/>
		<path class="st11" d="M251.8,4.8l-0.7,2.8c-0.7-2-2.1-2.1-3.5-1.9c-0.8,0.1-1.5,0.5-2,1c-1.3,1.6-1.3,3.8,0,5.4
			c1.4,1.7,3.5,1.7,5.9,0.1c0.9,0.4,0.5,0.9,0,1.3c-1.9,1.6-4.6,1.8-6.7,0.6c-1.8-1.3-2.6-3.6-2.1-5.7c0.7-2.4,2.9-4,5.4-3.9
			C249.4,4.4,250.6,4.6,251.8,4.8z"/>
		<path class="st12" d="M204.6,7c-1.3-1.8-3-1.1-4.6-1.4V9l3.6-0.6v2l-3.7-0.7v4.1l1.4,0.4v0.3h-4.4c0-0.1,0-0.1,0-0.2
			c1.2-0.5,1-1.5,1-2.4c0-1.5,0-3,0-4.4c0-1,0.3-2.1-1.2-2.5l0.2-0.3c0.4,0,0.8-0.1,1.2-0.1c1.6,0,3.1,0,4.7,0
			C204.6,4.6,204.6,4.6,204.6,7z"/>
		<path class="st6" d="M113.3,14.6c-0.9-2.4-1.8-4.9-2.7-7.2c-0.4-0.9-1-1.9-1.5-2.7h4.1l-1,0.9c0.8,2.4,1.6,4.8,2.5,7.5l2.5-7.5
			l-1-0.9h3.3c0,0.1,0.1,0.2,0,0.2c-1.9,1.4-2,3.6-2.9,5.5c-0.4,0.9-0.7,1.9-1,2.8C115.1,14.8,115.1,14.8,113.3,14.6z"/>
		<path class="st9" d="M167,4.6h4.3l-0.8,0.9l2.1,4l2.2-4l-0.9-0.9h3.4c-2.1,2.7-4.8,5.1-3.9,9.1l1.1,0.5l-0.1,0.3h-4.2
			c0-0.1-0.1-0.3,0-0.3c0.3-0.3,1-0.6,1-0.9c0.1-1.1,0-2.3-0.3-3.3c-0.7-1.4-1.5-2.8-2.4-4C168,5.5,167.6,5,167,4.6z"/>
		<path class="st9" d="M160.9,5.6c-1.3,0.2-2.6-0.3-3.1,1.3l-0.4-0.1l0.3-2.2h8.5l0.4,2.1L166.4,7c-0.7-1.4-1.9-1.3-3.3-1.3
			c0,2.6,0,5.1,0.1,7.6c0,0.3,0.7,0.6,1.2,1.1h-4.4l-0.1-0.2l1.1-0.6L160.9,5.6z"/>
		<path class="st12" d="M190.6,77.9c0.6-1.7,1.9-3.1,2.1-5.1h1.4c-1,1.9-2,3.9-3.1,5.8c-0.4,0.5-0.8,0.9-1.3,1.2l-0.4-0.3
			c-0.1-1.5-0.2-3.1-0.3-4.8c-1.5,1.4-1.2,4.1-3.6,5c-0.1-2-0.3-3.8-0.4-5.6c-0.1-0.5-0.3-0.9-0.5-1.3h2.3c-1.2,1.6,0,3.4-0.4,5.2
			c1.6-1.7,1.4-4.3,3.8-5.6v5.5L190.6,77.9z"/>
		<path class="st13" d="M108.1,4.7c-2,1.1-1.1,2.7-1.3,4.1c-0.1,0.8-0.1,1.7,0,2.5c0.1,1.1-0.8,2.5,1.3,3l-0.4,0.2h-4
			c1.9-2,0.8-4.5,1.1-6.7c0-0.2,0-0.4-0.1-0.6c0.1-1-0.3-2-1.1-2.5L108.1,4.7z"/>
		<path class="st9" d="M230.8,4.7c0,0,0,0.1,0,0.1c-1.4,0.8-0.9,2.2-1,3.4s0,2.5,0,3.7c0,1-0.3,2,1,2.6h-3.9c0-0.1,0-0.2,0-0.2
			c1.2-0.3,1-1.3,1-2.2c0-2,0-4.1-0.1-6.1c0-0.4-0.6-0.8-1-1.3H230.8z"/>
		<path class="st7" d="M152.2,14.5c1.5-0.8,0.8-2.2,0.9-3.4c0.1-1,0.1-2,0-3c-0.1-1.2,0.6-2.6-0.9-3.4h4.3c-2.1,1.1-1.2,2.8-1.3,4.1
			c-0.1,1-0.1,2.1,0,3.1c0,0.9-0.3,2,1,2.6L152.2,14.5z"/>
		<path class="st7" d="M288.2,4.6h4.4c-2,1.3-1,3.2-1.2,4.8c-0.1,0.8-0.1,1.5,0,2.3c0,1-0.4,2.1,1,2.8h-4.1c1.9-1,1.1-2.7,1.2-4.1
			c0.1-1.6,0-3.1-0.1-4.7C289.3,5.4,288.7,5.1,288.2,4.6z"/>
		<path class="st14" d="M126.8,72.7h2.3c-0.3,0.5-0.5,1.1-0.8,1.7c-0.3,1-0.4,2-0.7,2.9c-0.4,1.6-2,2.6-3.6,2.3
			c-0.2,0-0.4-0.1-0.6-0.2c-1-0.3-1.6-1.4-1.3-2.4c0.2-1,0.4-2,0.6-2.9c0-0.4-0.1-0.9-0.2-1.3h2.4c-1.1,1.5-1.6,3.3-1.4,5.1
			c0.1,1,2.1,1.4,2.5,0.4c0.6-1.6,1.1-3.3,1.4-5C127.5,73.2,127.2,73,126.8,72.7z"/>
		<path class="st13" d="M109.3,74.6c0.3-0.2,0.6-0.4,0.9-0.5c0.6-0.3,1.4,0,1.7,0.6c0.1,0.2,0.1,0.5,0.1,0.7c0,0.8-0.3,1.6-0.3,2.4
			c0,0.6,0,1.1,0.1,1.7h-1.7c0.2-1.1,0.5-2.2,0.7-3.2c0-0.4-0.3-0.8-0.4-1.2c-0.4,0.1-0.9,0.3-1.2,0.5c-1,1.2-1.1,2.8-0.3,4.1
			c-1.1-0.5-2.1,0.5-2.8-0.7l0,0c0.3-0.2,0.8-0.3,0.9-0.6c0.4-1.7,0.8-3.4,1.1-5.1c0.1-0.3-0.2-0.7-0.4-1.1l2-0.4
			c-0.2,1-0.3,1.8-0.5,2.6l-0.1,0.4L109.3,74.6z"/>
		<path class="st9" d="M44.5,72.1c0.8,2.7,0.5,5.1,1.6,7.3h-2.1l0.2-2.4h-2.5c0,0.8-1.2,1.4-0.4,2.5h-1.9c1.1-1.9,2.2-3.9,3.4-5.9
			C43.3,73,43.9,72.5,44.5,72.1z M43.6,73.5l-1.4,2.6H44c-0.1-0.6-0.1-1.1-0.2-1.6C43.8,74.2,43.7,74,43.6,73.5z"/>
		<path class="st1" d="M56.5,73.1l-0.8,1.6c-0.3-1.5-1.2-1.6-2.1-1.4c-1.5,0.2-2.5,1.5-2.4,3c-0.1,1.2,0.7,2.2,1.8,2.3
			c0,0,0.1,0,0.1,0c0.9-0.1,1.9-0.2,2.8-0.5c-1,1.4-2.8,1.8-4.4,1.1c-1.4-0.7-2.1-2.4-1.5-3.9c1-2.4,3.7-3.5,6.1-2.5
			C56.3,73,56.4,73.1,56.5,73.1z"/>
		<path class="st9" d="M64.8,74.6c1.2-0.9,1.7-0.9,2.7,0.2c0.2-0.1,0.3-0.4,0.6-0.4c0.6-0.1,1.5-0.5,1.8-0.2
			c0.4,0.5,0.6,1.2,0.6,1.9c-0.1,0.6-0.2,1.2-0.3,1.8c0,0.5,0.1,0.9,0.2,1.4h-1.7c0.3-1.1,0.5-2.2,0.7-3.3c0-0.3-0.2-0.8-0.4-1.1
			c-0.4,0.2-1,0.2-1.1,0.5c-0.4,1.1-0.7,2.2-1,3.3c0,0.1,0.3,0.4,0.6,0.7h-2.6c1.3-1,1.1-2.5,1.3-3.9c0-0.1-0.7-0.4-1-0.6L64.8,74.6
			z"/>
		<path class="st14" d="M241.2,78.2c-1.3,1.6-3.5,1.8-5.1,0.6c-0.1,0-0.1-0.1-0.2-0.1c-1.3-1.3-1-3.6,0.7-5c1.5-1.2,3.5-1.5,5.2-0.6
			l-0.7,1.6c-0.5-1.6-1.5-1.6-2.6-1.3c-1.3,0.4-2.2,1.6-2,3C237,79.5,239.2,78.7,241.2,78.2z"/>
		<path class="st2" d="M78.1,74.3l1.9-0.3c-0.3,1.2-0.6,2.3-0.7,3.3c0,0.5,0.1,0.9,0.3,1.4c0.5-0.2,1.1-0.4,1.3-0.7
			c0.4-0.8,0.7-1.7,0.9-2.6c0.1-0.3-0.3-0.6-0.5-1l1.9-0.4c-0.1,1.9-1.2,3.6-0.6,5.6l-1.7-0.4v-0.4c-0.3,0.2-0.5,0.5-0.8,0.6
			c-0.5,0.2-1.1,0.2-1.6,0c-0.4-0.4-0.6-0.9-0.6-1.4c0.1-0.8,0.2-1.5,0.3-2.2C78.3,75.2,78.2,74.7,78.1,74.3z"/>
		<path class="st13" d="M217.2,79.4h-2c0.3-1.2,0.5-2.2,0.7-3.3c0.1-0.3-0.1-1-0.3-1c-0.4-0.1-0.8,0-1.2,0.2c-1,0.8-1.4,3.2-0.7,4.1
			h-2.5c1.2-1,1.8-4.1,0.9-5l2-0.4l-0.1,0.7c0.1,0,0.2,0,0.3,0c0.8-0.4,1.5-1,2.4-0.3s0.4,1.5,0.3,2.3S216.2,78.4,217.2,79.4z"/>
		<path class="st13" d="M131.7,74.6c0.3-0.2,0.7-0.4,1.1-0.5c0.6-0.3,1.4,0,1.6,0.7c0.1,0.2,0.1,0.4,0.1,0.6c0,0.8-0.3,1.6-0.3,2.4
			c0,0.6,0,1.2,0,1.7h-1.6c0.2-1.1,0.5-2.2,0.7-3.2c0-0.4-0.1-0.8-0.3-1.2c-0.4,0.1-0.9,0.2-1.3,0.4c-1,1.1-1.2,2.7-0.6,4
			c-0.3,0-0.6,0.1-0.8,0.1h-1.3c0.3-0.8,0.6-1.7,0.8-2.6c0.1-0.8,1-1.7-0.2-2.7l2,0.1l-0.1,0.4L131.7,74.6z"/>
		<path class="st2" d="M229.1,79.3c0.2-1.1,0.5-2.3,0.7-3.4c0.1-0.8-0.4-1.3-1.1-1c-1.2,0.5-2,3.4-1.1,4.4h-2.5
			c1.2-0.9,1.8-4.1,0.9-5l1.9-0.4l0.2,0.8c0.2-0.1,0.4-0.3,0.6-0.3c0.6-0.1,1.4-0.3,1.9,0s0.4,1.1,0.4,1.7c-0.1,0.7-0.2,1.4-0.3,2.1
			c0,0.4,0.1,0.8,0.1,1.3L229.1,79.3z"/>
		<path class="st14" d="M59.1,78.8c-0.7,0.6-1.5,1.1-2.3,0.5c-0.7-0.6-0.9-1.6-0.4-2.4c0.6-1.9,2.5-3,4.5-2.8c0.3,0,0.6,0,1,0.1
			c-0.6,1.7-1.5,3.3-0.8,5.4l-1.7-0.5c0-0.2,0.1-0.3,0.2-0.8L59.1,78.8z M60.5,74.8c-1.5-0.1-2.9,1-3,2.6c0,0.1,0,0.3,0,0.4
			c0,0.3,0.2,0.7,0.4,0.9c0.3,0.1,0.7-0.1,0.9-0.3C59.4,77.2,59.9,76.1,60.5,74.8z"/>
		<path class="st14" d="M241.6,77.5c0.1-1.9,1.5-3.4,3.4-3.6c1.1,0,2.1,0.9,2.1,2c0,0,0,0.1,0,0.1c-0.1,1.9-1.5,3.4-3.4,3.5
			c-1.1,0.1-2.1-0.8-2.1-1.9C241.6,77.6,241.6,77.6,241.6,77.5z M246.2,76.3c-0.4-0.6-0.6-1.4-1-1.5c-0.6,0-1.2,0.2-1.6,0.7
			c-0.4,0.7-0.6,1.5-0.7,2.3c-0.2,0.5,0.1,1.1,0.6,1.3c0.5,0.2,1,0,1.2-0.5C245.3,77.9,245.8,77.1,246.2,76.3z"/>
		<path class="st14" d="M96.9,76.2c-0.1,1.9-1.6,3.4-3.5,3.4c-1,0.1-1.9-0.7-2-1.8c0-0.1,0-0.2,0-0.4c0.1-1.9,1.6-3.4,3.4-3.5
			c1.1,0,2,0.9,2,2C96.9,76,96.9,76.1,96.9,76.2z M92.4,77.5c0.4,0.5,0.6,1.2,1,1.3c0.6,0.1,1.1-0.1,1.5-0.6
			c0.4-0.7,0.6-1.6,0.7-2.4c0-0.5-0.3-0.9-0.7-1.1c-0.5-0.1-1,0.1-1.3,0.4C93.1,75.9,92.7,76.7,92.4,77.5z"/>
		<path class="st14" d="M177.6,76.1c0,1.9-1.5,3.4-3.4,3.5c-1.1,0.1-2.1-0.8-2.1-1.9c0-0.1,0-0.1,0-0.2c0.1-1.9,1.5-3.4,3.4-3.6
			c1.1-0.1,2,0.8,2.1,1.9C177.6,75.9,177.6,76,177.6,76.1z M176.4,76.1c-0.1-0.6-0.2-1.4-1.2-1.4s-1.9,1.5-1.8,2.9
			c0,0.7,0.2,1.4,1.1,1.4S176.4,77.5,176.4,76.1L176.4,76.1z"/>
		<path class="st14" d="M211.2,76.2c-0.1,1.8-1.5,3.3-3.4,3.4c-1.1,0.1-2.1-0.8-2.1-1.9c0-0.1,0-0.1,0-0.2c0.1-1.9,1.6-3.5,3.5-3.6
			c1.1,0,2,0.9,2,2C211.2,76,211.2,76.1,211.2,76.2z M206.8,77.5c0.3,0.5,0.6,1.2,0.9,1.3c0.6,0.1,1.1-0.1,1.5-0.5
			c0.4-0.7,0.7-1.6,0.7-2.4c0-0.5-0.3-0.9-0.7-1.1c-0.5-0.1-1,0.1-1.3,0.4C207.4,75.9,207.1,76.7,206.8,77.5z"/>
		<path class="st12" d="M200.6,74.4l-0.5,1c-0.4-0.3-0.9-0.5-1.4-0.7c-0.2,0-0.6,0.3-0.9,0.5c0.1,0.3,0.3,0.5,0.5,0.7
			c0.3,0.2,0.7,0.3,0.9,0.5c0.4,0.4,0.9,0.9,0.9,1.3c-0.1,0.6-0.4,1.1-0.9,1.4c-1.2,0.7-2.6,0.6-3.6-0.3l0.6-0.8
			c0.7,0.3,1.4,0.5,2.1,0.7c0.2,0,0.6-0.4,0.7-0.7s-0.2-0.6-0.4-0.7c-0.4-0.3-0.9-0.4-1.3-0.7c-0.6-0.3-0.9-1.1-0.6-1.7
			c0.1-0.3,0.3-0.5,0.6-0.6C198.2,73.9,199.1,73.8,200.6,74.4z"/>
		<path class="st1" d="M222.4,74.4l-0.6,1.2c-0.3-0.3-0.4-0.7-0.6-0.7c-0.5,0-1,0.1-1.5,0.2c0.2,0.4,0.5,0.7,0.7,1
			c0.3,0.2,0.5,0.3,0.8,0.4c0.7,0.3,1,1.2,0.7,1.9c-0.1,0.3-0.3,0.5-0.6,0.7c-1.2,0.8-2.8,0.7-3.9-0.2l0.6-0.8
			c0.7,0.3,1.4,0.6,2.1,0.8c0.2,0,0.7-0.3,0.8-0.6s-0.2-0.7-0.5-0.8c-0.4-0.2-0.8-0.4-1.2-0.6c-0.7-0.3-1-1-0.7-1.7
			c0.1-0.4,0.4-0.6,0.8-0.8C220.3,73.8,221.5,73.9,222.4,74.4z"/>
		<path class="st12" d="M83.2,78.9l0.8-1.1c0.4,0.3,0.7,0.8,1.1,0.9c0.5,0,1.1-0.1,1.6-0.4c-0.3-0.4-0.6-0.8-0.9-1.2
			c-0.2-0.2-0.6-0.2-0.7-0.4c-0.3-0.4-0.8-0.8-0.7-1.2c0.1-0.5,0.4-1,0.9-1.2c1-0.2,2.1-0.3,3.1-0.3l-0.6,1.5
			c-0.3-0.3-0.6-0.7-0.8-0.7c-0.5,0-0.9,0.1-1.4,0.2c0.2,0.4,0.5,0.7,0.8,1c0.2,0.2,0.5,0.2,0.7,0.4c0.7,0.3,1.1,1.2,0.8,1.9
			c-0.1,0.3-0.4,0.6-0.8,0.8C85.8,79.8,84.3,79.7,83.2,78.9z"/>
		<path class="st15" d="M152.6,78.9l0.6-0.9c0.5,0.4,1.1,0.6,1.7,0.9c0.3,0.1,0.8-0.3,1-0.6c0.1-0.1-0.3-0.7-0.5-0.9
			s-0.7-0.3-0.9-0.5c-0.4-0.4-0.9-0.9-0.8-1.4c0.1-0.6,0.5-1,1.1-1.2c1-0.2,2-0.2,2.9-0.2l-0.6,1.3c-0.5-0.3-1.1-0.5-1.6-0.6
			c-0.2,0-0.5,0.3-0.6,0.5s0.2,0.5,0.4,0.6c0.4,0.2,0.8,0.4,1.2,0.6c0.7,0.3,1.1,1.2,0.7,1.9c-0.1,0.3-0.4,0.5-0.7,0.7
			C155.2,79.8,153.7,79.7,152.6,78.9z"/>
		<path class="st13" d="M269.8,76.3h-3.7c0.2,0.8,0.2,1.8,0.5,2c0.9,0.2,1.8,0.2,2.6,0.1c-0.1,0.5-1,1.2-2.2,1.2
			c-1,0.1-1.9-0.6-2.1-1.6c-0.2-2,1.3-3.8,3.3-4c0,0,0,0,0,0C269.5,73.9,270,74.7,269.8,76.3z M266.6,75.3l0.2,0.4h2.3
			c-0.3-0.5-0.5-1.1-0.6-1.1C267.8,74.8,267.2,75.1,266.6,75.3z"/>
		<path class="st13" d="M148.4,76.3c-0.9,0-1.6,0-2.4,0s-1.3,0-1.2,1c0,0.7,0.5,1.3,1.3,1.3c0.1,0,0.2,0,0.4,0
			c0.6-0.2,1.1-0.4,1.6-0.7c-0.4,1.1-1.5,1.7-2.6,1.6c-1,0-1.8-0.8-1.9-1.8c-0.1-2,1.4-3.6,3.4-3.8
			C148.1,73.9,148.6,74.7,148.4,76.3z M145.1,75.3l0.2,0.4h2.3c-0.3-0.5-0.6-1.1-0.7-1.1C146.3,74.8,145.7,75.1,145.1,75.3
			L145.1,75.3z"/>
		<path class="st9" d="M258.5,76.3H255c-0.2,1-0.4,2,0.7,2.2c0.8,0,1.6-0.1,2.4-0.4c-0.7,1.2-2.1,1.7-3.4,1.3
			c-1.1-0.6-1.5-2-0.9-3.1c0,0,0,0,0,0c0.4-1.1,1.4-2,2.6-2.2C258.1,73.7,258.9,74.6,258.5,76.3z M255.3,75.3l0.2,0.4h2.3
			c-0.3-0.5-0.6-1.1-0.7-1.1C256.5,74.8,255.9,75.1,255.3,75.3L255.3,75.3z"/>
		<path class="st9" d="M117.7,77.9c-0.6,1.4-2.3,2-3.7,1.4c-1-0.6-1.4-2-0.7-3.1c0-0.1,0.1-0.1,0.1-0.2c0.5-0.8,1.2-1.4,2.1-1.8
			c1.7-0.8,3,0.4,2.4,2.1h-3.7c0.2,0.7,0.1,1.5,0.4,2C115.6,79.3,116.5,78.3,117.7,77.9z M114.7,75.5l0.1,0.4c0.5,0,1,0,1.5,0
			c0.3,0,0.4-0.4,0.7-0.6c-0.3-0.2-0.6-0.6-0.8-0.6C115.7,74.9,115.2,75.1,114.7,75.5L114.7,75.5z"/>
		<path class="st1" d="M269.7,78.9l0.7-1c0.5,0.3,0.9,0.8,1.4,0.9s0.9-0.3,1.3-0.4c-0.2-0.4-0.5-0.8-0.8-1.1c-0.8-0.5-1.9-0.7-1.5-2
			c0.2-0.9,1.6-1.4,2.9-1.2c0.3,0.1,0.6,0.2,1,0.3c-0.2,0.4-0.3,0.8-0.5,1.2c-0.3-0.3-0.5-0.7-0.8-0.7c-0.5,0-0.9,0.1-1.4,0.2
			c0.2,0.4,0.5,0.7,0.7,1c0.2,0.1,0.5,0.3,0.7,0.4c0.8,0.3,1.1,1.2,0.8,1.9c-0.1,0.4-0.4,0.7-0.8,0.8
			C272.2,79.8,270.8,79.7,269.7,78.9z"/>
		<path class="st1" d="M140.4,78.3c1.8-2.8,1.9-3.3,1.4-4.2h1.6c-0.7,2.5-2.7,5.2-3.8,5.3c-0.7-1.6,0-3.6-1.4-5.2l1.8-0.2
			L140.4,78.3z"/>
		<path class="st15" d="M205.7,74.3l-0.7,1.3c-0.4-1-1-1.2-1.8-0.7c-1,0.7-1.5,2-1.1,3.1c0.8,1.4,1.8,0.4,2.8,0
			c-0.3,1-1.3,1.7-2.4,1.6c-1,0-1.8-0.8-1.8-1.8c0-2.1,1.7-3.7,3.8-3.7C204.9,74,205.3,74.1,205.7,74.3z"/>
		<path class="st13" d="M251.5,72.1l2-0.4c-0.3,1.6-0.6,3-0.9,4.4c-0.2,0.7-0.3,1.3-0.4,2c0,0.4,0.1,0.8,0.2,1.3h-2.3
			C251.3,78.2,252.3,73.1,251.5,72.1z"/>
		<path class="st10" d="M248.5,72.1l2.1-0.4c-0.4,2.2-0.9,4.2-1.3,6.2c0,0.5,0,1,0.1,1.5h-1.9c0.4-1.2,0.7-2.4,1-3.6
			C248.6,74.6,249.6,73.4,248.5,72.1z"/>
		<path class="st14" d="M106.1,78.9c-0.3,0.2-0.5,0.4-0.8,0.5c-1.1,0.5-1.9-0.1-1.7-1.3c0.1-0.9,0.3-1.7,0.6-2.6
			c0.2-0.6-0.4-1.3,0.3-1.8c0.4-0.3,0.7-0.6,1.1-1l0.3,0.3l-0.2,1.1l1.1,0.1v0.2l-1.3,0.4l-0.7,3.4L106.1,78.9L106.1,78.9z"/>
		<path class="st2" d="M149.4,74.2h4.2l-0.6,1.2l-0.8-0.4c-0.6,1-1.1,2.1-1.5,3.1c-0.1,0.3,0.3,0.8,0.4,1.3h-2.2
			c0.3-0.8,0.6-1.6,0.7-2.4c0.1-0.8,1.1-1.8-0.2-2.4L149.4,74.2z"/>
		<path class="st2" d="M64.8,74.6l0.3,0.3c-1.2,1.2-1.7,3.5-1,4.5h-2.5c1.2-1,1.8-4.2,0.8-5l1.8-0.4L64.8,74.6z"/>
		<path class="st2" d="M193.5,74.4l2.2-0.5c-0.3,1.5-0.6,2.9-0.8,4.3c0,0.4,0.1,0.8,0.2,1.2h-2c0.3-0.8,0.6-1.6,0.8-2.4
			C193.9,76.1,194.9,75.2,193.5,74.4z"/>
		<path class="st13" d="M157.9,74.3l2.1-0.4c-0.1,1.8-1.1,3.5-0.7,5.4h-2.1C158.4,78.3,158.9,75.2,157.9,74.3z"/>
		<path class="st14" d="M222.8,74.3l2.1-0.4c0.1,1.8-1.2,3.6-0.5,5.4h-2c0.3-0.8,0.5-1.6,0.7-2.5C223.3,76.1,224.2,75.2,222.8,74.3z
			"/>
		<path class="st2" d="M135.6,74.4l2.1-0.4c0,1.9-1.2,3.6-0.5,5.5h-2c0.3-0.8,0.6-1.6,0.8-2.5C136.1,76.1,136.9,75.2,135.6,74.4z"/>
		<path class="st15" d="M159.9,71.5c0.3,0.4,0.6,0.7,0.6,0.8c-0.2,0.3-0.4,0.6-0.6,0.9c-0.2-0.2-0.7-0.4-0.6-0.6
			C159.3,72.3,159.6,72,159.9,71.5z"/>
		<path class="st15" d="M137.6,71.5c0.3,0.4,0.7,0.7,0.6,0.8c-0.2,0.3-0.4,0.6-0.6,0.9c-0.2-0.2-0.7-0.4-0.7-0.6
			C136.9,72.3,137.2,72,137.6,71.5z"/>
		<path class="st15" d="M195.4,71.5c0.3,0.4,0.6,0.7,0.6,0.8c-0.2,0.3-0.4,0.6-0.7,0.9c-0.2-0.2-0.6-0.4-0.5-0.6
			C195,72.2,195.2,71.9,195.4,71.5z"/>
		<path class="st2" d="M224.6,73.6c-0.2-0.5-0.5-0.8-0.4-1c0.2-0.3,0.4-0.6,0.7-0.8c0.2,0.2,0.6,0.5,0.5,0.7S225,73.1,224.6,73.6z"
			/>
		<path class="st16" d="M71.9,61.2H2V2h69.9V61.2z M24.8,36.8c-4,0.8-8.1-0.5-8.2-5.1c-0.2-6.7-0.2-13.4-0.3-20.1
			c0-1,0.5-1.4,1.5-1.4c0.7,0.1,1.4,0.1,2.1,0c0.5-0.1,0.9-0.3,1.1-0.7c0.5-1.5-0.3-3.2-1.8-3.7c-0.3-0.1-0.5-0.1-0.8-0.2
			c-2.4,0.1-4.7,0.2-7.1,0.2c-1.6,0-3.3-0.2-4.9-0.1c-0.6,0-1,0.4-1.3,0.8c-0.7,1.7,1.1,4,2.8,3.7c0.4,0,0.8,0,1.2,0.1
			c0,0.6,0,1.1,0,1.6c0.1,6.3,0.2,12.7,0.5,19C9.8,35,12.2,38,15.8,40c3,1.7,6.3,1.7,9.6,1.5c0.7-0.1,1.3,0.3,1.5,1c0,0,0,0,0,0
			c1.2,3.6,2.4,7.1,3.7,10.6c0.5,1.5,0.9,3,2.2,4.2c0.9,0.8,2,0.8,2.7-0.2c0.4-0.6,0.7-1.3,0.9-2c2.3-6.5,4.6-12.9,6.9-19.4
			c0.1-0.3,0.3-0.7,0.5-1.3c2.3,6.8,4.4,13.3,6.7,19.7c0.5,1.1,1.1,2.2,1.9,3.1c0.5,0.7,1.5,0.8,2.2,0.3c0.2-0.2,0.4-0.4,0.5-0.6
			c0.4-0.7,0.7-1.5,1-2.3c3.3-9,6.7-18,10-27c0.2-1,1.2-1.7,2.2-1.6c0.6,0,1.1-0.3,1.4-0.8c0.8-1.7-1.1-3.8-2.7-3.7
			c-2.6,0.1-5.3,0-7.9,0c-0.7,0-1.7-0.2-1.9,0.8s-0.5,2,0.7,2.7c0.7,0.4,1.4,1,2.4,1.6l-5.8,18.5H54c-1.9-6.2-3.8-12.4-5.8-18.9
			c0.8,0.1,1.6,0.1,2.4,0c0.5-0.1,0.9-0.3,1.1-0.6c0.5-1.5-0.3-3.2-1.8-3.7c-0.2-0.1-0.5-0.1-0.7-0.2c-2.2,0.1-4.5,0.1-6.7,0.2
			c-1.8,0-3.5,0-5.4,0v-8.8c0-2.8,0-2.8,2.8-3c0.5,0,1-0.3,1.3-0.8c0.5-1.5-0.3-3.2-1.9-3.7c-0.3-0.1-0.6-0.1-0.8-0.1
			c-2,0.2-3.9,0.2-5.9,0.2c-1.4,0-2.8-0.1-4.2-0.2c-0.9,0-1.3,0.4-1.4,1.3C26.9,8.4,28,9.8,29.5,10c0.2,0,0.5,0,0.7,0
			c1.2,0,1.5,0.3,1.5,1.5c0,5.1,0.2,10.1,0.1,15.2c0.2,2.1-0.2,4.3-1,6.2l-2.1-6.8c0.5,0.1,0.9,0.1,1.4,0c0.4-0.1,0.9-0.3,1.1-0.6
			c0.7-1.6-0.6-4-2.5-3.9c-2.1,0.1-4.1,0.1-6.2,0.2c-1.2,0-2.5-0.2-3.7-0.1c-0.5,0-1,0.2-1.3,0.6c-0.8,1.3,0.6,3.9,2,3.8
			s2,0.6,2.3,1.8c0.1,0.5,0.3,1,0.5,1.5C23.1,31.8,23.9,34.3,24.8,36.8z"/>
		<path class="st17" d="M109.3,74.6l-0.3,0.2l0.1-0.4L109.3,74.6z"/>
		<path class="st18" d="M43.6,73.5c0.1,0.5,0.2,0.7,0.2,1c0.1,0.5,0.1,1,0.2,1.6h-1.8"/>
		<path class="st17" d="M131.7,74.6l-0.3,0.2l0.1-0.4L131.7,74.6z"/>
		<path class="st17" d="M59.1,78.8l0.5-0.5c-0.1,0.4-0.2,0.6-0.2,0.8L59.1,78.8z"/>
		<path class="st18" d="M269,75.8h-2.3l-0.2-0.4"/>
		<path class="st18" d="M117,75.2c-0.2,0.2-0.4,0.5-0.7,0.6c-0.5,0-1,0-1.5,0l-0.1-0.3"/>
		<path class="st19" d="M24.8,36.8c-0.9-2.5-1.7-5-2.6-7.4c-0.2-0.5-0.4-1-0.5-1.5c-0.3-1.2-0.8-1.9-2.3-1.8s-2.8-2.6-2-3.8
			c0.3-0.4,0.8-0.6,1.3-0.6c1.2,0,2.5,0.1,3.7,0.1c2.1,0,4.1-0.1,6.2-0.2c1.9-0.1,3.2,2.3,2.5,3.9c-0.1,0.3-0.7,0.5-1.1,0.6
			c-0.5,0.1-0.9,0.1-1.4,0l2.1,6.8c0.8-2,1.2-4.1,1-6.2c0-5.1-0.1-10.1-0.1-15.2c0-1.1-0.4-1.5-1.5-1.5c-1.5,0.2-2.9-0.9-3.1-2.5
			c0-0.2,0-0.5,0-0.7c0-0.9,0.5-1.3,1.4-1.3c1.4,0,2.8,0.2,4.2,0.2c2,0,3.9,0,5.9-0.2c1.6,0,2.9,1.4,2.8,3c0,0.3-0.1,0.5-0.1,0.8
			C41,9.7,40.5,10,40,10c-2.7,0.2-2.8,0.1-2.8,3v8.8c1.8,0,3.6,0,5.4,0c2.2,0,4.5-0.1,6.7-0.2c1.6,0.2,2.8,1.6,2.6,3.2
			c0,0.2-0.1,0.5-0.2,0.7c-0.3,0.4-0.7,0.6-1.1,0.6c-0.8,0.1-1.6,0.1-2.4,0c2,6.4,3.9,12.7,5.8,18.9h0.3l5.7-18.3
			c-1-0.7-1.7-1.2-2.4-1.6c-1.1-0.7-0.9-1.8-0.7-2.7s1.2-0.8,1.9-0.8c2.6,0,5.3,0.1,7.9,0c1.5-0.1,3.4,2,2.7,3.7
			c-0.3,0.5-0.8,0.8-1.4,0.8c-1-0.1-1.9,0.6-2.2,1.5c-3.3,9-6.6,18-10,27c-0.3,0.8-0.6,1.6-1,2.3c-0.3,0.8-1.3,1.2-2.1,0.8
			c-0.3-0.1-0.5-0.3-0.6-0.5c-0.8-0.9-1.4-2-1.9-3.1c-2.3-6.4-4.4-12.9-6.7-19.7c-0.3,0.6-0.4,0.9-0.5,1.3
			c-2.3,6.5-4.6,12.9-6.9,19.4c-0.2,0.7-0.5,1.4-0.9,2c-0.7,1-1.7,1-2.7,0.2c-1.3-1.1-1.7-2.7-2.2-4.2c-1.3-3.5-2.5-7.1-3.7-10.6
			c-0.1-0.7-0.7-1.1-1.4-1c0,0,0,0,0,0c-3.3,0.2-6.6,0.2-9.6-1.5c-3.6-2-6-5-6.2-9.2c-0.3-6.3-0.3-12.7-0.5-19c0-0.5,0-1,0-1.6
			c-0.4-0.1-0.8-0.1-1.2-0.2c-1.7,0.3-3.5-1.9-2.8-3.7c0.3-0.5,0.8-0.8,1.3-0.8c1.6,0,3.3,0.1,4.9,0.1c2.4,0,4.7,0,7.1-0.2
			c1.6,0.1,2.9,1.4,2.8,3c0,0.3-0.1,0.5-0.1,0.8c-0.3,0.4-0.7,0.6-1.1,0.7c-0.7,0.1-1.4,0.1-2.1,0c-1,0-1.5,0.4-1.5,1.4
			c0.1,6.7,0.1,13.4,0.3,20.1C16.7,36.3,20.8,37.6,24.8,36.8z M26.1,37.7c-0.9,0.1-1.6,0.2-2.4,0.3c-5.3,0.3-8.8-2.8-9-8
			c-0.2-6.5-0.2-12.9-0.3-19.4c0-1.6,0.8-2.3,2.4-2.4h2.4V6.5H5.9v1.7h2.4C9.2,8.1,9.9,8.7,10,9.5c0,0.1,0,0.2,0,0.3
			c0,0.5,0,1,0,1.4c0.1,6.1,0.1,12.1,0.3,18.2s3,9.3,8.8,10.1c2.5,0.2,5,0.2,7.5,0.1c0.1,0.1,0.1,0.2,0.2,0.4
			c1.7,4.9,3.4,9.8,5.1,14.7c0.3,0.5,0.6,1,1.1,1.4c0.4-0.5,0.8-0.9,1.1-1.4c0.1-0.1,0.1-0.2,0.2-0.3c2.1-5.9,4.2-11.7,6.3-17.5
			c0.8-2.2,1.6-4.5,2.5-7c0.8,2.5,1.6,4.7,2.3,6.9c2,6,4.1,12.1,6.1,18.1c0.2,0.5,0.6,0.8,1,1.2c0.4-0.3,0.7-0.7,1-1.1
			c0.5-1.2,1-2.5,1.5-3.8c3-8.2,6-16.4,9.1-24.6c0.4-0.8,0.9-1.5,1.7-2c0.4-0.3,1.2-0.2,1.8-0.2v-1.6h-9.6v1.6c0.2,0,0.4,0,0.5,0
			c2.6-0.3,2.9,0.9,2.3,2.9c-1.6,5.1-3.1,10.3-4.7,15.4c-0.7,2.1-1.4,4.2-2.2,6.5c-0.2-0.4-0.2-0.5-0.3-0.7l-3.9-12.3
			c-1-3.1-2-6.3-2.9-9.5c-0.6-1.8-0.1-2.4,1.8-2.4h1.4v-1.7H37.7v1.6l0.6,0c2.7,0.1,3.7,1.4,2.9,3.9c-2,6.2-4,12.4-6.1,18.6
			c-0.2,0.7-0.5,1.3-0.7,1.9c-1.4-3.6-2.5-7.2-3.7-10.8c0-0.3,0.1-0.6,0.3-0.8c2.9-2.5,3.8-5.8,4-9.4c0.1-4.4,0.2-8.7,0.2-13.1
			c0-1.5,0-3,0.1-4.6s0.8-1.9,2.2-2h1.7c0.4-1.7,0.3-1.7-1.2-1.7h-10v1.8h2c1.1-0.2,2.1,0.6,2.3,1.7c0,0.1,0,0.2,0,0.3
			c0.1,0.9,0.2,1.7,0.2,2.6c0,5.1,0.1,10.2,0,15.2c-0.1,1.6-0.3,3.1-0.7,4.6c-0.4,1-0.9,2-1.6,2.9c-1.2-2.9-2.1-5.6-2.9-8.3
			s-0.9-2.7,2-3.1v-1.5H18.2l0.1,1.7c0.5,0,0.9,0,1.3,0c1-0.2,2,0.5,2.3,1.5L26.1,37.7z M34.6,45c0.1-0.1,0.2-0.1,0.3-0.2
			c1.9-5.9,3.8-11.8,5.8-17.6c0.3-0.8-0.1-1.1-0.9-1.1c-0.8,0.2-1.7-0.2-2.1-1c-0.1-0.1-0.4-0.2-0.8-0.3c0,1.5,0.1,2.9,0,4.3
			c-0.2,3.5-1.1,6.7-3.8,9.2c-0.2,0.3-0.4,0.6-0.3,1C33.4,41.2,34,43.1,34.6,45z"/>
		<path class="st20" d="M26.1,37.7l-4.2-11.9c-0.2-1-1.2-1.7-2.3-1.5c-0.4,0-0.8,0-1.3,0l-0.1-1.7h11.2v1.6c-2.8,0.4-2.8,0.4-2,3.1
			s1.7,5.4,2.9,8.3c0.6-0.9,1.1-1.9,1.6-2.9c0.4-1.5,0.7-3,0.7-4.6c0.1-5.1,0-10.2,0-15.2c0-0.9-0.1-1.8-0.2-2.6c0-1.1-0.9-2-2-2
			c-0.1,0-0.2,0-0.3,0h-2V6.5h10c1.6,0,1.6,0,1.2,1.7h-1.7c-1.4,0-2.1,0.5-2.2,2s-0.1,3-0.1,4.6c-0.1,4.4-0.1,8.7-0.2,13.1
			c-0.1,3.6-1,6.9-4,9.4c-0.2,0.2-0.3,0.5-0.3,0.8c1.1,3.6,2.3,7.2,3.7,10.8c0.2-0.6,0.5-1.3,0.7-1.9c2-6.2,4.1-12.4,6.1-18.6
			c0.8-2.6-0.2-3.9-2.9-3.9l-0.6,0v-1.7h12.2v1.7h-1.4c-1.9,0-2.4,0.6-1.8,2.4c1,3.2,2,6.3,2.9,9.5l3.8,12.3c0,0.1,0.1,0.3,0.3,0.7
			c0.8-2.3,1.5-4.4,2.2-6.5c1.6-5.1,3.2-10.3,4.7-15.4c0.6-2,0.3-3.2-2.3-2.9c-0.2,0-0.4,0-0.5,0v-1.6h9.7v1.6
			c-0.6,0.1-1.4-0.1-1.8,0.2c-0.7,0.5-1.3,1.2-1.7,2C61,34.6,58,42.8,55,51c-0.5,1.3-0.9,2.6-1.5,3.8c-0.3,0.4-0.6,0.8-1,1.1
			c-0.3-0.4-0.8-0.8-1-1.2c-2.1-6-4.1-12.1-6.1-18.1c-0.8-2.2-1.5-4.4-2.3-6.9c-0.9,2.5-1.7,4.7-2.5,7c-2.1,5.8-4.2,11.7-6.3,17.5
			c0,0.1-0.1,0.2-0.2,0.3c-0.4,0.5-0.8,0.9-1.1,1.4c-0.4-0.4-0.8-0.9-1.1-1.4c-1.7-4.9-3.4-9.8-5.1-14.7c0-0.1-0.1-0.3-0.2-0.4
			c-2.5,0.1-5,0.1-7.5-0.1c-5.8-0.8-8.7-4.1-8.8-10.1s-0.2-12.1-0.3-18.2c0-0.5,0-1,0-1.4c0-0.8-0.6-1.6-1.4-1.6c-0.1,0-0.2,0-0.3,0
			H5.9V6.5h13.2v1.7h-2.4c-1.6,0-2.4,0.8-2.4,2.4c0,6.5,0,13,0.3,19.4c0.2,5.3,3.7,8.3,9,8C24.4,37.9,25.1,37.8,26.1,37.7z"/>
		<path class="st21" d="M34.6,45c-0.6-1.9-1.2-3.8-1.8-5.7c-0.1-0.4,0.1-0.7,0.3-1c2.7-2.5,3.5-5.7,3.8-9.2c0.1-1.4,0-2.8,0-4.3
			c0.4,0.1,0.7,0.2,0.8,0.3c0.4,0.8,1.3,1.2,2.1,1c0.8-0.1,1.1,0.3,0.9,1.1c-1.9,5.9-3.8,11.8-5.7,17.7C32.1,53.8,34.8,44.9,34.6,45
			z"/>
	</g>
</g>
</svg>
