<?xml version="1.0" encoding="utf-8"?>
<!-- Generator: Adobe Illustrator 22.0.0, SVG Export Plug-In . SVG Version: 6.00 Build 0)  -->
<svg version="1.1" id="Layer_1" xmlns="http://www.w3.org/2000/svg" xmlns:xlink="http://www.w3.org/1999/xlink" x="0px" y="0px"
	 viewBox="0 0 300 300" style="enable-background:new 0 0 300 300;" xml:space="preserve">
<style type="text/css">
	.st0{enable-background:new    ;}
	.st1{fill:#808080;}
</style>
<g class="st0">
	<path class="st1" d="M59.3,107c3,0,5.6,1.6,7.5,4.7c2,3.1,3,7.1,3,11.9c0,4.9-1,9-3,12.1s-4.6,4.6-7.7,4.6c-3.2,0-5.8-1.5-7.7-4.5
		c-1.9-3-2.9-7-2.9-12.1c0-4.9,1-9,3-12.1C53.5,108.5,56.1,107,59.3,107z M59.4,111.4h-0.2c-1.8,0-3.3,1.1-4.3,3.3
		c-1.1,2.2-1.6,5.2-1.6,8.9c0,3.9,0.5,6.9,1.6,9.1c1,2.2,2.5,3.3,4.3,3.3s3.3-1.1,4.3-3.3c1.1-2.2,1.6-5.2,1.6-8.9
		c0-3.8-0.5-6.8-1.5-9C62.5,112.5,61.1,111.4,59.4,111.4z"/>
	<path class="st1" d="M81.1,107.4h4.7V140h-4.7V107.4z"/>
	<path class="st1" d="M108,107c3,0,5.6,1.6,7.5,4.7c2,3.1,3,7.1,3,11.9c0,4.9-1,9-3,12.1s-4.6,4.6-7.7,4.6c-3.2,0-5.8-1.5-7.7-4.5
		c-1.9-3-2.9-7-2.9-12.1c0-4.9,1-9,3-12.1C102.1,108.5,104.8,107,108,107z M108,111.4h-0.2c-1.8,0-3.3,1.1-4.3,3.3
		c-1.1,2.2-1.6,5.2-1.6,8.9c0,3.9,0.5,6.9,1.6,9.1c1,2.2,2.5,3.3,4.3,3.3s3.3-1.1,4.3-3.3c1.1-2.2,1.6-5.2,1.6-8.9
		c0-3.8-0.5-6.8-1.5-9C111.1,112.5,109.7,111.4,108,111.4z"/>
	<path class="st1" d="M132.3,107c3,0,5.6,1.6,7.5,4.7c2,3.1,3,7.1,3,11.9c0,4.9-1,9-3,12.1s-4.6,4.6-7.7,4.6c-3.2,0-5.8-1.5-7.7-4.5
		c-1.9-3-2.9-7-2.9-12.1c0-4.9,1-9,3-12.1C126.5,108.5,129.1,107,132.3,107z M132.3,111.4h-0.2c-1.8,0-3.3,1.1-4.3,3.3
		c-1.1,2.2-1.6,5.2-1.6,8.9c0,3.9,0.5,6.9,1.6,9.1c1,2.2,2.5,3.3,4.3,3.3s3.3-1.1,4.3-3.3c1.1-2.2,1.6-5.2,1.6-8.9
		c0-3.8-0.5-6.8-1.5-9C135.4,112.5,134.1,111.4,132.3,111.4z"/>
	<path class="st1" d="M154.1,107.4h4.7V140h-4.7V107.4z"/>
	<path class="st1" d="M180.9,107c3,0,5.6,1.6,7.5,4.7c2,3.1,3,7.1,3,11.9c0,4.9-1,9-3,12.1s-4.6,4.6-7.7,4.6c-3.2,0-5.8-1.5-7.7-4.5
		c-1.9-3-2.9-7-2.9-12.1c0-4.9,1-9,3-12.1C175.1,108.5,177.7,107,180.9,107z M181,111.4h-0.2c-1.8,0-3.3,1.1-4.3,3.3
		c-1.1,2.2-1.6,5.2-1.6,8.9c0,3.9,0.5,6.9,1.6,9.1c1,2.2,2.5,3.3,4.3,3.3c1.8,0,3.3-1.1,4.3-3.3s1.6-5.2,1.6-8.9
		c0-3.8-0.5-6.8-1.5-9C184.1,112.5,182.7,111.4,181,111.4z"/>
	<path class="st1" d="M202.7,107.4h4.7V140h-4.7V107.4z"/>
	<path class="st1" d="M227,107.4h4.7V140H227V107.4z"/>
</g>
<g class="st0">
	<path class="st1" d="M59.3,146c3,0,5.6,1.6,7.5,4.7c2,3.1,3,7.1,3,11.9c0,4.9-1,9-3,12.1s-4.6,4.6-7.7,4.6c-3.2,0-5.8-1.5-7.7-4.5
		c-1.9-3-2.9-7-2.9-12.1c0-4.9,1-9,3-12.1C53.5,147.6,56.1,146,59.3,146z M59.4,150.5h-0.2c-1.8,0-3.3,1.1-4.3,3.3
		c-1.1,2.2-1.6,5.2-1.6,8.9c0,3.9,0.5,6.9,1.6,9.1c1,2.2,2.5,3.3,4.3,3.3s3.3-1.1,4.3-3.3c1.1-2.2,1.6-5.2,1.6-8.9
		c0-3.8-0.5-6.8-1.5-9C62.5,151.6,61.1,150.5,59.4,150.5z"/>
	<path class="st1" d="M81.1,146.5h4.7V179h-4.7V146.5z"/>
	<path class="st1" d="M108,146c3,0,5.6,1.6,7.5,4.7c2,3.1,3,7.1,3,11.9c0,4.9-1,9-3,12.1s-4.6,4.6-7.7,4.6c-3.2,0-5.8-1.5-7.7-4.5
		c-1.9-3-2.9-7-2.9-12.1c0-4.9,1-9,3-12.1C102.1,147.6,104.8,146,108,146z M108,150.5h-0.2c-1.8,0-3.3,1.1-4.3,3.3
		c-1.1,2.2-1.6,5.2-1.6,8.9c0,3.9,0.5,6.9,1.6,9.1c1,2.2,2.5,3.3,4.3,3.3s3.3-1.1,4.3-3.3c1.1-2.2,1.6-5.2,1.6-8.9
		c0-3.8-0.5-6.8-1.5-9C111.1,151.6,109.7,150.5,108,150.5z"/>
	<path class="st1" d="M132.3,146c3,0,5.6,1.6,7.5,4.7c2,3.1,3,7.1,3,11.9c0,4.9-1,9-3,12.1s-4.6,4.6-7.7,4.6c-3.2,0-5.8-1.5-7.7-4.5
		c-1.9-3-2.9-7-2.9-12.1c0-4.9,1-9,3-12.1C126.5,147.6,129.1,146,132.3,146z M132.3,150.5h-0.2c-1.8,0-3.3,1.1-4.3,3.3
		c-1.1,2.2-1.6,5.2-1.6,8.9c0,3.9,0.5,6.9,1.6,9.1c1,2.2,2.5,3.3,4.3,3.3s3.3-1.1,4.3-3.3c1.1-2.2,1.6-5.2,1.6-8.9
		c0-3.8-0.5-6.8-1.5-9C135.4,151.6,134.1,150.5,132.3,150.5z"/>
	<path class="st1" d="M156.6,146c3,0,5.6,1.6,7.5,4.7c2,3.1,3,7.1,3,11.9c0,4.9-1,9-3,12.1s-4.6,4.6-7.7,4.6c-3.2,0-5.8-1.5-7.7-4.5
		c-1.9-3-2.9-7-2.9-12.1c0-4.9,1-9,3-12.1C150.8,147.6,153.4,146,156.6,146z M156.6,150.5h-0.2c-1.8,0-3.3,1.1-4.3,3.3
		s-1.6,5.2-1.6,8.9c0,3.9,0.5,6.9,1.6,9.1c1,2.2,2.5,3.3,4.3,3.3s3.3-1.1,4.3-3.3s1.6-5.2,1.6-8.9c0-3.8-0.5-6.8-1.5-9
		S158.4,150.5,156.6,150.5z"/>
	<path class="st1" d="M178.4,146.5h4.7V179h-4.7V146.5z"/>
	<path class="st1" d="M205.2,146c3,0,5.6,1.6,7.5,4.7c2,3.1,3,7.1,3,11.9c0,4.9-1,9-3,12.1s-4.6,4.6-7.7,4.6c-3.2,0-5.8-1.5-7.7-4.5
		c-1.9-3-2.9-7-2.9-12.1c0-4.9,1-9,3-12.1C199.4,147.6,202,146,205.2,146z M205.3,150.5H205c-1.8,0-3.3,1.1-4.3,3.3
		s-1.6,5.2-1.6,8.9c0,3.9,0.5,6.9,1.6,9.1c1,2.2,2.5,3.3,4.3,3.3c1.8,0,3.3-1.1,4.3-3.3s1.6-5.2,1.6-8.9c0-3.8-0.5-6.8-1.5-9
		C208.4,151.6,207,150.5,205.3,150.5z"/>
	<path class="st1" d="M227,146.5h4.7V179H227V146.5z"/>
</g>
</svg>
