<?xml version="1.0" standalone="no"?>
<!DOCTYPE svg PUBLIC "-//W3C//DTD SVG 20010904//EN"
 "http://www.w3.org/TR/2001/REC-SVG-20010904/DTD/svg10.dtd">
<svg version="1.0" xmlns="http://www.w3.org/2000/svg"
 width="400.000000pt" height="400.000000pt" viewBox="0 0 400.000000 400.000000"
 preserveAspectRatio="xMidYMid meet">
<metadata>
Created by potrace 1.14, written by Peter Selinger 2001-2017
</metadata>
<g transform="translate(0.000000,400.000000) scale(0.100000,-0.100000)"
fill="#000000" stroke="none">
<path d="M2155 3740 c-11 -4 -51 -18 -90 -30 -149 -47 -428 -212 -551 -325 -6
-5 -28 -26 -50 -45 -43 -40 -144 -154 -189 -215 -114 -152 -234 -392 -261
-520 -51 -235 -33 -387 61 -529 47 -72 104 -117 180 -146 50 -18 72 -21 135
-16 123 10 179 23 293 67 235 92 450 274 610 514 156 236 236 469 241 705 4
152 -26 242 -96 284 -39 23 -39 24 -17 31 13 4 34 13 47 21 l22 15 -19 37
c-45 88 -142 153 -235 157 -33 2 -70 -1 -81 -5z m108 -369 c29 -11 64 -79 70
-136 11 -111 -96 -334 -273 -565 -68 -88 -68 -88 -196 -206 -54 -50 -115 -106
-134 -124 -76 -70 -260 -174 -322 -181 -61 -7 -91 28 -106 124 -39 248 147
601 446 850 77 64 224 167 238 167 4 0 15 7 25 15 15 15 17 14 23 -10 8 -31
26 -32 63 -1 50 42 105 76 124 76 10 0 29 -4 42 -9z"/>
<path d="M3590 3723 c-112 -36 -277 -119 -385 -192 -208 -142 -351 -295 -480
-512 -36 -60 -65 -114 -65 -119 0 -6 -6 -21 -14 -33 -15 -23 -70 -179 -81
-232 -14 -60 -17 -212 -6 -270 25 -133 107 -252 209 -302 158 -77 463 4 699
185 263 202 462 524 518 841 16 89 13 270 -5 321 -14 39 -67 100 -87 100 -26
0 -12 19 22 30 19 6 35 18 35 26 0 44 -74 124 -149 160 -53 26 -125 25 -211
-3z m169 -341 c52 -38 66 -137 32 -233 -39 -115 -107 -233 -215 -378 -77 -104
-106 -135 -250 -266 -162 -147 -285 -225 -382 -240 -33 -6 -42 -3 -61 17 -11
12 -26 40 -31 61 -20 72 -1 239 36 332 70 171 184 326 356 484 49 44 261 191
277 191 5 0 9 -7 9 -15 0 -30 30 -27 72 8 50 40 96 65 115 63 7 -1 26 -12 42
-24z"/>
<path d="M973 3710 c-96 -34 -499 -257 -551 -304 -34 -30 -43 -51 -49 -107 -4
-39 -1 -50 11 -55 9 -3 99 25 201 64 102 39 185 67 185 63 0 -4 -18 -32 -41
-62 -144 -190 -411 -581 -502 -734 -61 -103 -116 -229 -168 -388 -76 -230 -74
-335 7 -409 25 -22 238 -128 257 -128 26 0 31 19 32 134 1 84 6 126 22 171 73
211 161 380 447 863 53 89 96 167 96 172 0 6 5 10 10 10 6 0 10 4 10 9 0 5 28
56 61 113 153 256 184 322 184 388 0 97 -75 220 -134 220 -14 -1 -50 -9 -78
-20z"/>
<path d="M1898 1835 c-2 -1 -52 -5 -113 -9 -60 -3 -123 -8 -140 -10 -16 -2
-55 -7 -85 -10 -30 -3 -64 -8 -75 -10 -11 -2 -40 -7 -65 -10 -36 -5 -201 -40
-281 -60 -53 -13 -188 -60 -278 -96 -206 -82 -332 -154 -421 -241 -160 -157
-78 -342 152 -341 99 0 229 73 214 120 -8 24 -3 28 120 85 282 130 611 198
1089 222 195 11 570 5 715 -10 19 -2 73 -7 120 -10 47 -4 92 -8 100 -10 9 -2
43 -6 75 -10 33 -4 67 -9 75 -10 8 -1 35 -6 60 -10 25 -4 54 -9 65 -12 202
-43 260 -47 317 -21 87 39 106 124 44 196 -47 54 -192 118 -336 148 -14 3 -41
9 -60 14 -19 5 -51 11 -70 14 -19 3 -46 8 -60 10 -97 17 -240 36 -315 41 -27
2 -76 7 -109 10 -125 13 -728 29 -738 20z"/>
<path d="M2507 1214 c-1 -1 -81 -5 -177 -8 -96 -4 -193 -8 -215 -11 -22 -2
-74 -6 -115 -9 -41 -4 -93 -9 -115 -12 -22 -3 -58 -7 -80 -10 -22 -2 -53 -6
-70 -8 -16 -2 -50 -7 -75 -10 -70 -10 -207 -36 -300 -58 -47 -11 -96 -22 -109
-24 -14 -3 -28 -7 -33 -10 -5 -3 -20 -7 -34 -10 -14 -3 -46 -12 -71 -20 -25
-9 -53 -17 -62 -19 -64 -15 -288 -107 -441 -183 -286 -140 -450 -290 -450
-411 0 -49 34 -113 72 -136 67 -41 167 -54 247 -33 48 13 132 54 164 83 28 23
37 65 15 65 -22 1 24 29 152 94 139 71 211 101 349 146 132 43 373 103 465
115 15 3 35 6 45 9 9 3 36 8 61 11 25 3 52 8 60 10 8 2 40 7 70 10 30 3 66 8
80 10 132 20 282 34 560 51 105 6 596 6 675 0 119 -10 202 -17 231 -21 114
-14 167 -18 223 -17 148 3 240 111 176 208 -32 50 -160 112 -265 129 -19 3
-44 9 -55 12 -11 3 -29 7 -40 9 -139 19 -179 24 -235 29 -142 13 -692 28 -703
19z"/>
</g>
</svg>
