<?xml version="1.0" encoding="utf-8"?>
<!-- Generator: Adobe Illustrator 22.0.0, SVG Export Plug-In . SVG Version: 6.00 Build 0)  -->
<svg version="1.1" id="Layer_1" xmlns="http://www.w3.org/2000/svg" xmlns:xlink="http://www.w3.org/1999/xlink" x="0px" y="0px"
	 viewBox="0 0 1500 621" style="enable-background:new 0 0 1500 621;" xml:space="preserve">
<style type="text/css">
	.st0{fill:#080705;}
	.st1{fill:#080808;}
	.st2{fill:#D01340;}
	.st3{fill:#D01341;}
	.st4{fill:#D01542;}
	.st5{fill:#D01441;}
	.st6{fill:#CF1240;}
	.st7{fill:#070707;}
	.st8{fill:#060606;}
	.st9{fill:#050505;}
	.st10{fill:#0A0A0A;}
	.st11{fill:#A7895A;}
	.st12{fill:#A6885A;}
	.st13{fill:#A48759;}
	.st14{fill:#A08457;}
	.st15{fill:#A5885A;}
	.st16{fill:#A58859;}
	.st17{fill:#A38658;}
	.st18{fill:#0A0805;}
	.st19{fill:#090404;}
	.st20{fill:#967B51;}
	.st21{fill:#CF123F;}
	.st22{fill:#FEFCFC;}
</style>
<title>UniversityOfWisconsin</title>
<g id="Layer_2_1_">
	<g id="Layer_1-2">
		<path class="st0" d="M198.8,0c1.4,0.4,2.7,0.8,4.1,1.2c11.5,3.2,19,10.5,22.9,21.7c0.8,2.3,1.7,3,4.1,3c9.6,0.1,16.3,4.8,20,13.6
			c0.9,2.2,1.6,4.5,2.1,6c6.4,0,12.6-0.2,18.7,0c25.7,0.8,46.4,12.2,63.5,30.9c15.4,16.8,25.6,36.7,33.4,58
			c9.4,25.5,14.8,52,18,78.9c3.4,28.9,4.1,58.1,2.1,87.2c-4.6,70-20.1,137.1-54.1,199.1c-18.6,33.9-42.3,63.6-74.6,85.6
			c-14.9,10.2-31.4,18.1-48.7,23.2c-1.6,0.5-3,1.9-4.3,3.2c-3,3.1-5.9,6.3-8.8,9.5H192c-3.1-3.2-6.1-6.5-9.4-9.5
			c-1.2-1.3-2.6-2.4-4.3-3.1c-15.4-4.6-30.2-11.3-43.7-19.9c-29.6-18.8-52.3-44.3-70.7-73.8C38.8,474.5,23,430.5,12.7,384.5
			c-6.3-28.7-10.4-57.8-12-87.1c-0.2-0.9-0.4-1.8-0.8-2.6v-51c0.3-0.6,0.5-1.3,0.7-1.9c0.8-9,1.3-17.9,2.3-26.9
			c3-28.4,8.8-56.1,18.9-82.9c7.8-20.5,17.9-39.8,32.9-56.1c17.1-18.5,37.7-29.8,63.3-30.5c6.1-0.2,12.2,0,18.7,0
			c2.9-12.4,10.5-20.5,25.2-19.6c4-13.9,13-22.3,26.8-25.5c0.1,0,0.1-0.2,0.2-0.3L198.8,0z M60.3,110c-1.5,2.7-2.8,4.8-4,7
			c-17,32-23.8,66.8-27.7,102.3c-0.7,6.5-0.4,6.9,5.7,9.4c10.5,4.3,21.7,5.6,32.9,6.8c7.1,0.8,7.2,0.6,9.8-6.1
			c0.6-1.6,1.3-3.3,1.9-4.9c7.4-18.7,17.2-35.8,33.1-48.7c3.5-2.8,7-5.5,10.8-8.5c-1.5-0.9-2.7-1.5-3.8-2.3
			c-10.9-7.3-22.2-14-32.6-21.9C75.3,134.6,65.7,124.3,60.3,110z M265.9,167.4c1.7,1.3,3,2.3,4.4,3.3c14.6,10.3,26.2,24.3,33.6,40.5
			c3.2,7,6.2,14.2,9.1,21.4c1,2.4,2.1,3.6,4.9,3.2c5.3-0.8,10.8-0.7,16-1.9c8.1-1.9,16-4.4,24-6.9c2-0.6,3.2-2,2.8-4.6
			c-2-13.2-3.5-26.5-5.9-39.6c-4.4-23.3-11.2-45.8-22.7-66.7c-1-1.8-2.1-3.5-3.3-5.4C315.5,138.3,290.8,152.6,265.9,167.4
			L265.9,167.4z M143.5,86.4c-8.9-12.3-23.3-17.3-38-13.2c-18.3,5.2-31.2,17.4-41.7,32.5c-0.7,1.4-0.8,3-0.1,4.4
			c3.8,6.2,7.3,12.9,12.1,18.3c13.2,14.8,29.8,25.3,47,35c2.6,1.4,4.4,1.3,6.7-0.2c12.5-7.9,26.6-12.9,41.3-14.6
			c5.8-0.7,9.4-3,10.7-8.4c1.8-7.5,3.8-15,4.6-22.7c2-19.2,0.7-38.5-3.8-57.3c-1.7-8.1-7-14.9-14.4-18.7c-8.4-4.4-16.6-0.3-18.8,9.5
			c10.8,4.7,18,13.5,23.8,23.4c12,20.5,13.2,41.2,1.1,62.1c-2.1,3.8-5.7,6.5-9.9,7.4c-12.3,3.2-24.4,3.1-36.4-1.7
			c-3.8-1.5-7.3-2.9-9.7-6.5c-7.2-11-7.2-32.8,0.1-43.8c2.6-4,6.1-6,11-5.8C133.7,86.5,138.3,86.4,143.5,86.4L143.5,86.4z M239.9,51
			c-3.4-10.9-12-14.1-21.3-8c-6.3,4.1-10.7,10.5-12.2,17.8c-4.6,19.4-5.8,39.4-3.6,59.2c0.8,7.4,3.1,14.6,5,21.8
			c1.1,4,3.7,6.2,8.3,6.7c15.8,1.8,31,7.1,44.5,15.5c1.3,0.6,2.7,0.7,4,0.1c14.3-7.6,27.8-16.3,39.9-27.1
			c8.4-7.5,16.1-15.7,20.5-26.4c1-1.9,0.7-4.2-0.6-5.9c-6.6-9.5-14.9-17.6-24.5-24c-9.2-6-19.1-9.8-30.4-8.7
			c-10.1,1-17.9,6.1-24.6,14.4c5,0,9.3,0.3,13.6-0.1c6.6-0.5,10.8,2.7,13.3,8.3c5.7,12.2,5.7,26.3,0.1,38.5c-1.5,3.3-4,6-7.1,7.7
			c-9,4.4-18.6,5.8-28.7,5.4c-13.3-0.5-21.7-6.4-26.3-19.1C199.9,99.3,212.6,66,239.9,51L239.9,51z M315.6,239.4
			c0.3,1.2,0.5,2.3,0.7,3.4c2.1,14.2,5.1,28.3,6,42.6c2.2,35.9-3.7,70.9-14.4,105.1c-6.5,20.6-14.5,40.7-23.9,60.1
			c-0.6,1.3-1,3.5-0.3,4.3c7.8,9.6,16.8,17.4,29.3,20.2c2.6,0.6,3.7-0.1,4.9-2.4c11.2-22.3,20.3-45.7,27-69.7
			c15.7-55.9,19.4-113,16.6-170.7c-0.1-0.7-0.2-1.5-0.4-2.2c-7.5,2.1-14.7,4.5-22.1,6S323.5,238.3,315.6,239.4L315.6,239.4z
			 M27.7,230.1c-0.2,2.4-0.5,5.5-0.6,8.6c-1.4,39.7-0.1,79.2,6.6,118.3c6.9,40.2,18.7,78.8,37.1,115.4c1.3,2.6,2.6,3.3,5.4,2.6
			c11.2-2.5,19.3-9.5,26.9-17.5c2.5-2.6,2.9-4.7,1.3-8.1c-19.1-39.6-32.9-80.8-37.2-124.9c-2.4-22.5-1.6-45.2,2.3-67.5
			c1-5.8,2.3-11.6,3.5-17.6c-7.8-1.1-15.4-1.7-22.8-3.2S35.4,232.2,27.7,230.1z M318.9,299.1c0.3-19.8-2.3-39.5-7.6-58.5
			c-7.3-25.4-19.6-47.8-40-65.1c-13.7-11.6-29.1-16.8-47.3-11.4c-7.8,2.2-15.8,3.7-23.8,4.5c-12.5,1.5-24.6-1.8-36.6-4.8
			c-6.1-1.5-12.2-2.5-18.5-1.4c-14.2,2.4-25.3,10-35.1,20.1c-18.3,19.1-29.1,42.2-34.9,67.7c-7,30.6-6.6,61.5-1.6,92.3
			c8.4,52.2,27.6,100.2,58.1,143.4c16.2,22.9,35.4,43,58.9,58.7c2.9,1.9,5,2.5,7.9,0.1c10.3-8.6,21.5-16.4,31.1-25.8
			c26.8-26.3,46.3-57.8,61.2-92.1C308.3,386.2,318.5,343.7,318.9,299.1z M74.9,479.8C74.7,479.1,74.7,479.5,74.9,479.8
			c16.4,29.7,36.5,56.4,63.5,77.3c1.1,0.9,3.5,0.9,5,0.4c11-4.3,17.5-12.8,21.6-23.5c1.1-2.8,0.6-4.7-1.7-6.8
			c-20-18.4-37.1-39.6-50.9-63c-1.4-2.3-2.8-4.6-4-6.8c-5.3,4.6-9.9,9.6-15.4,13.3S81.1,476.8,74.9,479.8L74.9,479.8z M280.7,456.8
			c-2.8,4.5-5.3,8.9-8.1,13.3c-13.3,21.4-29.4,40.8-47.9,57.9c-0.9,0.8-2,2.7-1.7,3.6c3.3,10.7,9.3,19.5,19.6,24.9
			c3.9,2,6.7,1.8,10.3-1.1c25-20.6,44.2-45.7,59.9-73.7c0.5-0.9,0.9-1.9,1.5-3C299.8,476.3,289.8,467.4,280.7,456.8L280.7,456.8z
			 M252.3,141.4c-1.5-0.8-2.5-1.3-3.4-1.8c-8.2-4-13-10.7-14.8-19.5c-1.9-9.2-0.1-17.9,3.2-26.4c7.8-19.6,25.7-29.2,45.3-24.4
			c11.6,2.8,22.2,8.8,30.7,17.2c5.7,5.7,10.8,12,16.4,18.2l13.8-9.3c-11.8-19.2-33-36.2-53.8-42.9c-27.7-8.9-56-2.5-71.4,24.1
			c-10.9,18.9-12.2,38-1.3,57.3c1.3,2.4,3.4,5,5.8,6C232.1,143.8,241.8,144.1,252.3,141.4z M137,141.1l0.1,1.2
			c7.1,0,14.1,0.3,21.2-0.1c7.4-0.4,12.3-4.5,15.3-11.3s5.2-13.6,5.6-20.8c1.9-31.9-22.4-59.3-54.2-61.2c-4.9-0.3-9.9,0-14.8,1
			c-23.4,4.4-41.8,17.1-57,34.9c-2.8,3.3-5.3,6.9-8.1,10.6l14.6,9.8c1.1-1.5,1.8-2.6,2.7-3.7C72.8,87,85.5,75.6,102.9,70.3
			c18.2-5.6,33.5-0.5,44,14.9c6.6,9.4,9.6,20.9,8.3,32.3c-1.1,10.1-6.2,17.8-15.6,22.3C138.7,140.3,137.8,140.7,137,141.1L137,141.1
			z M143.1,561.1c9,6.6,18.9,11.8,29.4,15.6c2.3,1,5,0.6,6.9-0.9c9-6.3,18.6-7.3,27.9-1c3.8,2.6,7,2.7,11,1.1
			c9.6-3.7,18.7-8.7,27.1-14.8c-13.9-5.2-21.3-15.6-25.6-28.9c-1.1,0.9-2,1.6-2.9,2.2c-6.9,5-13.6,10.1-20.6,14.9
			c-1.3,0.7-2.9,0.7-4.2,0.1c-6.6-4.5-13-9.3-19.5-14c-1.3-1-2.6-2.1-4.2-3.3C164.3,545.9,156.8,556.1,143.1,561.1L143.1,561.1z
			 M364.3,227.1c0.1,2.5,0.2,4.5,0.3,6.4c2.7,29.7,1,59.4-2.1,88.9c-1,9.9-2.3,19.8-3.3,29.8c-0.1,1,0.5,2.9,1.3,3.2
			c4.9,1.9,9.9,3.4,15.1,5.1c8-44.9,10.4-89.5,6.3-134.9L364.3,227.1z M6.8,225.7c-3.9,45-1.7,90.4,6.4,134.9L30,355
			c-5.5-42.5-9.8-84.9-5.4-127.9L6.8,225.7z M69.2,475.8c-18-37.3-32-75.7-38.5-116.8c-4.9,1.6-9.2,3.2-13.7,4.4
			c-2.7,0.7-3.3,2-2.7,4.6c1.8,7.8,3.4,15.6,5.2,23.4c7.2,31.3,16.6,62,31.4,90.7c0.6,1.2,1.3,2.3,2,3.6L69.2,475.8z M358,359
			c-6.5,41.2-20.5,79.6-38.4,116.8l16.4,9.8c20.2-38.2,30.6-79.1,39-121.1L358,359z M24.8,223.9c4.4-40.9,12-80.3,33.1-116.1
			L43.3,98C19.9,136.4,11.1,178.6,7,222.5L24.8,223.9z M330.8,107.9c21.2,36,28.7,75.4,33.1,116l17.9-1.4
			c-4.3-44-12.9-86.2-36.4-124.5L330.8,107.9z M248.3,48.3c-0.2-4.4-1.9-8.6-4.7-12c-5.3-5.9-12.3-6.4-19.5-5.7
			c-7.6-19.5-14.3-26-28.8-26.4c-17.8-0.5-26,11-30.5,26.3c-15.8-0.5-23.9,5.5-24.1,17.7c2.2,1.4,3.3,0.9,4.4-1.7
			c4.4-10.6,13.8-14.2,24.2-9.4c9,3.9,15.5,12.1,17.3,21.8c2,9,3.4,18.2,4.2,27.4c1.2,15.1,1.4,30.2-1.8,45.2
			c-1.1,5.3-3,10.4-4.5,15.4h20.2c-0.9-2.2-1.9-4.2-2.7-6.3c-0.8-2.1-1.4-4.3-1.8-6.5c-5.2-25.9-3.8-51.7,2.4-77.2
			c2.1-8.3,7.4-14.7,15-18.8c11.3-6,21.2-2.5,26.3,9.3c0.3,0.7,0.7,1.3,1.1,2L248.3,48.3z M318,478.8c-17.4,32-38.6,60.1-67.2,82.4
			c2.8,3.5,5.4,6.7,8,9.9c1.3,1.6,2.7,3.2,4.2,5c30.8-23.5,53.5-53.5,71.5-87.6L318,478.8z M137.9,561.1
			c-14.3-11.1-27.1-23.3-37.7-37.6S80,494.4,69.7,479.4l-15.4,9.1c18.2,34.3,40.8,64.1,71.6,87.6L137.9,561.1z M209.3,589.8
			c0.3-10.9-0.7-12.2-7.6-14.7c-7.3-2.5-14-1.4-20.2,2.9c-0.9,0.6-2.1,1.8-2.1,2.8c-0.6,13.2,2,25.3,12.1,34.8
			c2.2,2.1,3.8,1.8,5.9-0.2C204.6,608.7,208.8,599.5,209.3,589.8z M210.7,603.5c10.3-1.7,39.3-16.6,49.5-25.7
			c-4-4.9-8-9.8-11.4-13.8l-35.1,17.9C212.8,588.7,211.7,596,210.7,603.5z M128.5,577.8c11.5,9.8,41.7,25.3,50.2,25.5
			c-0.9-3.5-2.1-7.1-2.6-10.8c-0.4-3.5-0.6-7-0.7-10.5l-35.5-18.2L128.5,577.8z M147.3,158.1c6.6,1.2,13.5,2.1,20.2,3.8
			c14.3,3.4,28.6,5.5,43.3,2.3c10.2-2.2,20.1-6.3,30.9-5.5C210.1,147.3,178.5,147.3,147.3,158.1z M273.1,115.5
			c-0.4-9.1-0.8-15.6-4.9-21.1c-3.5-4.7-8.8-5.1-12.7-0.7c-1.8,1.9-3.1,4.2-4,6.7c-3.2,9.3-3.2,19.4,0,28.6c0.9,2.4,2.4,4.7,4.2,6.5
			c2.5,2.8,6.7,3,9.5,0.5c0.1-0.1,0.2-0.2,0.3-0.2c2-1.7,3.5-3.9,4.4-6.4C271.5,124,272.4,118.5,273.1,115.5L273.1,115.5z
			 M140.5,114.4c-1.6-5.8-2.9-11.9-5.1-17.7c-1.3-3.5-4.3-6.3-8.6-6.1s-6.8,3.2-8.2,6.7c-4.4,11-3.9,23.4,1.2,34.1
			c1.6,3.4,4.1,6.1,8.3,6c4.2-0.1,6.8-3,8-6.4C138,125.9,139,120.4,140.5,114.4L140.5,114.4z M136,137.9c7.8-3.1,12.4-7.7,14.6-14.5
			c3.6-11.1,1.1-21.7-3.7-31.9c-0.6-0.9-1.5-1.5-2.6-1.6c-2.4-0.2-4.9-0.1-7.9-0.1C145,105.8,144.7,121.4,136,137.9L136,137.9z
			 M252.4,137.3c-4.1-7.2-6.4-15.4-6.5-23.7c-0.1-8.3,2.3-15.9,6.4-23.6c-2,0.1-4.1,0.1-6.1,0c-2.8-0.4-4.3,0.9-5.3,3.4
			c-3.3,8.2-5.3,16.6-3.9,25.6S244.4,135.4,252.4,137.3z"/>
		<path class="st1" d="M1500,429.8c-1.7-0.1-3.4-0.4-5.2-0.4c-352.4,0-704.9,0-1057.3,0h-4.8v-4.8h1062.4c1.6,0,3.3,0,4.9-0.1V429.8
			z"/>
		<path d="M1500,210c-1.4,0-2.8,0.1-4.1,0.1h-477.7v-4.4c0.9-0.1,2-0.2,3.1-0.2h477.6c0.4,0,0.8,0,1.1,0.1V210z"/>
		<path class="st2" d="M528,399.8c-6.5-5-12.5-9.5-18.2-14.3s-8.4-11.4-10.5-18.2c-11-35.6-21.7-71.3-32.9-106.9
			c-2.5-7.8-6.3-15.1-10-22.4c-1.4-2.7-4.2-4.8-6.6-7.4h33.8c0.2,12.2,5,23.2,8.4,34.5c9.4,31.2,19,62.3,28.5,93.4
			c0.3,1,0.7,2,1.3,3.8c2.8-9.6,5.4-18.4,8-27.3c7.5-25.6,14.9-51.2,22.3-76.9c0.6-2,1-4.1,1.3-6.2c1-8.3,0.5-16-8.8-21.3h33
			c2.2,25.9,13,49.5,19.7,74.1c4.9,17.8,10.7,35.3,16.2,52.9c0.3,1,0.7,2,1.3,3.9c2.8-9.6,5.4-18.4,8-27.2c7-23.8,14.2-47.6,21-71.4
			c1.5-5.3,2.3-10.7,2.5-16.2c0.3-6.5-2.9-11.5-8.9-14.5c-0.7-0.4-1.4-0.8-2.9-1.6H671c-16.5,56.3-32.9,112.5-49.4,168.7
			c-13.5-8.1-24.9-17.2-29.4-33.4c-8-28.6-17.2-56.8-25.9-85.2c-0.4-1.4-1.1-2.8-2-4L528,399.8z"/>
		<path class="st3" d="M995.7,255.5c39.9-1,70.3,31,70.4,69.5c0.1,40.4-31.6,72.4-71.7,72.4s-70.7-31-70.6-71.3
			C923.8,286.4,955.3,255.5,995.7,255.5z M1044,328.9c-0.4-14.4-3.8-28.1-12.7-40.1c-18.2-24.4-55-24.9-73.9-1
			c-19.5,24.8-13.4,68,12.2,86.3c21,15.1,51.2,9.4,65.3-12.3C1041.4,352,1043.9,340.9,1044,328.9z"/>
		<path class="st4" d="M1178.2,363v-19.1c0-20.2,0-40.5,0-60.7c0-2.1,0-4.3-0.2-6.4c-0.9-8.7-1.8-10.3-9.7-17.7h33.7
			c-0.5,0.6-1,1.1-1.6,1.6c-5.2,3.7-7.6,8.9-7.9,15c-0.2,4.5-0.3,9-0.3,13.5c0,35.5,0,71,0,106.5v5.4c-5-2.8-9.8-4.7-13.5-7.8
			c-4.8-4.1-9.2-8.8-13-13.8c-22-29.2-43.8-58.6-65.7-87.9c-0.7-0.9-1.4-1.8-2.4-3.1c-0.1,1.1-0.3,1.8-0.3,2.5
			c0,27.3-0.1,54.5,0.1,81.7c0.1,4.6,1.1,9.1,2.8,13.4c1.2,2.9,4.2,5.1,6.5,7.7h-34.4c10.8-6.2,10.9-15.8,10.9-25.6
			c-0.1-28.9-0.1-57.7-0.1-86.6c0-2.4-0.1-4.7-0.3-7.1c-0.7-6.4-3.9-11.4-9.2-15.6c8.8,0,17.6,0,26.4,0c0.7,0.1,1.3,0.4,1.7,1
			c11.5,15.7,22.9,31.5,34.4,47.2c12.9,17.5,26,34.8,39.1,52.2C1175.9,360.3,1176.7,361.2,1178.2,363z"/>
		<path class="st5" d="M1456.6,361.9v-56.6c0-8.1-0.1-16.3,0-24.4c0.1-8.7-1.5-16.5-10.8-21.8h35.7c-10.9,6.3-10.8,16-10.8,25.7
			c0,37,0,74,0,111v4.5c-6.3-1.7-12-5-16.7-9.5c-3.5-3.4-6.7-7.1-9.6-11c-22-29.3-43.9-58.6-65.7-88c-0.8-1-1.6-2-3.1-3.8v4.3
			c0,25.7,0,51.5,0,77.2c0,1.4,0,2.8,0.1,4.1c0.2,8,2.3,15,10.5,20h-35.2c8.6-5.1,10.6-12.7,10.6-21.2c0-30.7,0-61.5,0-92.2
			c0-8.5-1.9-16.1-9.6-21.2h26.6l77.2,103.2L1456.6,361.9z"/>
		<path class="st5" d="M1285.3,283.1c-10.4-9.5-21.8-13.7-34.9-12.3c-4.1,0.4-8,1.6-11.7,3.5c-9.4,4.9-12.1,16.3-5.5,24.5
			c3.7,4.3,8.2,8,13.2,10.8c8.8,5.1,18.2,9.4,27.2,14.2c3.3,1.8,6.4,3.8,9.4,6.1c15.2,11.7,18,29.5,7,45.4
			c-8.8,12.7-21.4,19.2-36.3,21.4c-14,2-27.6-0.1-41-4.4c-2-0.5-3.4-2.1-3.6-4.1c-1.2-6.4-2.8-12.7-4.1-19c-0.2-1-0.3-2-0.3-3
			l3.3,2.5c11.6,8.7,24.5,13.8,39.2,13.8c6.8,0,13.4-2.2,18.9-6.2c10.1-7.3,11.6-20.2,2.7-28.9c-4.7-4.6-10.7-8-16.6-11.3
			c-8.1-4.6-16.8-8.3-24.9-13c-8.4-4.8-15.1-11.5-18.1-21.1c-5.2-16.9,1.7-32.5,17.8-40.3c12.3-6,25.4-7,38.8-5.6
			c5.8,0.6,11.5,2.1,17.2,3.4c1.2,0.4,2,1.4,2.3,2.6C1285.3,268.8,1285.3,275.5,1285.3,283.1z"/>
		<path class="st5" d="M712.3,365.6c9.6,8.1,19.7,13.3,31.2,15.7c9.2,1.9,18.1,1.7,26.7-2.6c14.9-7.5,17-23.7,4-34.1
			c-6-4.7-13.2-7.9-19.9-11.7c-7.5-4.2-15.5-7.7-22.5-12.5c-13.6-9.3-18.7-23.4-14.7-38.2c2.7-10.3,9.8-16.9,19.2-21
			c14.1-6.3,28.8-6.6,43.7-4.3c4.5,0.7,9,2,13.3,3V283c-6.9-6.4-14.5-10.4-23.3-11.8c-7.1-1.2-14.2-0.9-21,2
			c-12,5.1-15.3,18.7-6,27.9c4.9,4.8,11.2,8.3,17.2,11.8c7.1,4.1,14.7,7.5,21.9,11.3c3.1,1.7,6,3.6,8.8,5.7
			c15.4,11.7,18.3,29.3,7.3,45.3c-8.7,12.8-21.3,19.4-36.2,21.6c-14.1,2.1-27.9,0.1-41.3-4.5c-1.5-0.6-2.7-1.8-3.2-3.3
			C715.6,381.4,714.1,374,712.3,365.6z"/>
		<path class="st5" d="M924,368.2c-2.9,7.1-5.9,14.5-9.1,21.7c-0.7,1.2-1.8,2-3.1,2.3c-6.7,1.7-13.5,4-20.3,4.7
			c-15,1.6-30.1-0.9-43.8-7.2c-16.2-7.6-27.3-20-32.7-37.1c-5.7-17.1-5.6-35.6,0.2-52.7c8.7-26.2,31.6-43.1,59.1-44.2
			c12.9-0.5,25.4,1.4,37.8,4.5c0.9,0.2,2.2,1.4,2.2,2.2c0.2,7.1,0.1,14.1,0.1,20.6c-7.7-3-15.1-6.8-23-8.6
			c-32.7-7.8-56.1,13.2-58.1,44.2c-0.6,8.7,0.4,17.5,3.2,25.9c9.5,28.6,34.6,41.8,63.8,33.1C908.3,375.2,916,371.4,924,368.2z"/>
		<path class="st2" d="M708.5,393.8h-37.3c7.6-4.5,8.4-11.5,8.4-18.7c0-33.7-0.1-67.4-0.3-101.2c-0.2-3.2-1-6.4-2.5-9.3
			c-1-2.1-3.2-3.7-5-5.6h36.3c-7.4,4.5-8.4,11.6-8.5,18.8c-0.1,32.5-0.1,65,0,97.4C699.8,382.3,700.8,389.2,708.5,393.8z"/>
		<path class="st6" d="M1306.6,259h36.3c-8.8,5.9-8.6,14.5-8.6,23c-0.1,29.8-0.1,59.7,0,89.5c0,2.7,0.3,5.5,0.5,8.2
			c0.5,5.6,2.3,10.6,8.2,14.1h-36.9c8.6-5.6,8.3-14.1,8.4-22.2c0.3-14.5,0-29,0-43.5c0-15.5,0.1-31,0-46.5c0-3.4-0.2-6.7-0.7-10.1
			C1313.1,266.5,1311.3,262,1306.6,259z"/>
		<path d="M905.1,205.7v4.2H432.6v-4.2H905.1z"/>
		<path class="st7" d="M731.6,457.5h9.8c1.7,13.7,3.3,27.2,6.9,40.4h-10.2c0.2-2.3,0.7-4.7,0.5-7c-1.1-8.8-2.5-17.5-3.9-27.3
			c-5.7,12.2-11,23.7-16.9,36.1c-2.3-3-4.5-5.2-6-7.9c-4.8-9-9.2-18.2-14.2-27.3c-1.2,11.1-5.2,21.9-4.2,33.5h-9
			c3.9-6.4,8.6-36.3,6.5-40.5h11.5l15.3,30.1L731.6,457.5z"/>
		<path class="st8" d="M881.7,133.6c0,9.7-0.2,19.3,0.1,29c0,1.8,1.8,3.5,2.8,5.3h-11.3c0.8-2.8,2.2-5.8,2.3-8.9
			c0.3-9.4,0.2-18.7,0-28.1c-0.1-2.6-1.4-5.2-2.2-8c2.3,0,5.5-0.1,8.7,0.1c0.9,0.2,1.7,0.8,2.3,1.5c1.2,1.2,2.3,2.6,3.5,3.9
			c8.9,9.5,17.8,19,26.9,28.8c0.2-0.6,0.4-1.2,0.5-1.8c0-8.2,0.2-16.5-0.1-24.7c-0.1-2.5-1.4-4.9-2.1-7.4h11.9
			c-3.5,2.3-3.8,5.5-3.8,9c0.1,12.5,0,25,0,37.8c-4.4-0.7-7.6-3-10.4-6c-8.6-9.2-17.2-18.5-25.8-27.7c-0.8-1-1.6-2.1-2.3-3.2
			L881.7,133.6z"/>
		<path class="st8" d="M663.2,146.3h-29.1c-1.5,8.4-0.6,17.9,2,21.7h-12.7c0.6-2.6,1.8-5.2,1.9-7.9c0.2-9.7,0.2-19.5,0-29.2
			c0-2.6-1.1-5.1-1.7-7.7H636c-4.2,5.4-1.5,11.7-2.5,17.7h29c1.4-7.8,0.7-13.9-2.1-17.7h12.4c-0.5,2.8-1.5,5.6-1.5,8.5
			c-0.2,9.2-0.2,18.5,0,27.7c0.1,2.9,1,5.8,1.6,8.6h-12.5C665.2,161.3,661.8,153.7,663.2,146.3z"/>
		<path class="st1" d="M799.7,123h11.5c-0.6,2.8-1.5,5.6-1.6,8.5c-0.2,7.2-0.2,14.5,0.3,21.7c0.4,6.3,3.3,9.3,8.8,10.5
			c6.3,1.4,13.5-0.8,16.1-5.2c0.8-1.4,1.1-3,1.1-4.6c0.1-7.7,0.3-15.5,0-23.2c-0.1-2.6-1.2-5.1-1.8-7.6h11.8
			c-0.5,2.7-1.5,5.4-1.5,8.1c-0.2,9.7-0.2,19.5,0,29.2c0.1,2.5,1.1,5,1.7,7.6h-9.8l-0.6-3.7c-7,5-14.6,6-22.5,4
			c-8.2-2-11.7-6.6-11.9-15c-0.1-7.2,0.1-14.5-0.1-21.7C801,128.6,800.2,125.8,799.7,123z"/>
		<path class="st8" d="M1127,145.1c3.7-1.3,6.7-2.1,9.5-3.5c3.3-1.6,5.2-4.4,4.4-8.3c-0.7-3.7-3.5-5.4-6.9-5.9
			c-2.9-0.2-5.8-0.2-8.7-0.1c0,12-0.1,23.6,0.1,35.2c0,1.8,1.4,3.5,2.2,5.2h-12.3c0.5-2.6,1.5-5.4,1.5-8.2c0.2-9.9,0.2-19.7,0-29.6
			c0-2.3-1-4.6-1.4-6.4c7.5,0,15.8-0.1,24,0.1c1.9,0.2,3.6,0.9,5.2,2c5.7,3.5,6.7,10.3,1.8,14.9c-2.5,2.4-5.9,3.9-9.6,6.3l22.4,20.9
			c-6.3,0.9-12.8,0.1-17.8-6.5C1136.9,155.8,1131.9,150.7,1127,145.1z"/>
		<path class="st1" d="M1128.8,499.3c-7.3-0.2-14.1-2-19.8-6.8c-9.3-7.9-9.5-20.5-0.6-28.8c10.2-9.4,29-10,39.9-1.4
			c10.3,8.2,10.4,22,0.3,30.3C1142.9,497.3,1136.1,499.1,1128.8,499.3z M1147.6,478.4c-0.1-10.2-8.1-17.8-18.7-17.8
			c-10.9,0-18.6,6.8-18.6,16.3c0,9.9,8.6,17.9,19.2,17.8C1140.4,494.6,1147.7,488,1147.6,478.4z"/>
		<path class="st9" d="M883.4,457c8.5,0.4,17.3,0.2,25.9,1.5c11.9,1.8,18.5,10.1,17.8,20.8c-0.6,8.6-7.9,16.3-18.5,17.9
			c-8.5,1.3-17.3,1-25.4,1.5c0.7-3.3,1.6-5.9,1.7-8.6c0.2-8.5,0.2-17,0-25.5C884.8,462.2,884,460,883.4,457z M892.6,493.3
			c8.1,1,14.4,0,19.2-2.9c9.2-5.6,9.4-19.8,0.3-25.4c-6.1-3.8-12.7-3.4-19.5-2.5L892.6,493.3z"/>
		<path class="st9" d="M1236.3,457.5h9.2c-0.6,2.9-1.8,5.7-1.8,8.6c-0.2,11.2-0.1,22.5-0.1,35.1c-3.7-2.6-7-4.3-9.5-6.8
			c-8.8-9-17.3-18.3-26.6-28.2v7.1c0,5.6-0.2,11.3,0.1,16.9c0.1,2.6,1.1,5.2,1.7,7.9h-9c0.6-3,1.6-6.2,1.7-9.4
			c0.3-7.4,0.3-14.7,0-22.1c-0.1-3-1.1-6-1.8-9.1c2.3-0.1,4.7-0.1,7,0.1c1.3,0.3,2.4,1,3.3,2c9.1,9.6,18.1,19.2,27.5,28.7
			C1237.1,478,1240.4,467.5,1236.3,457.5z"/>
		<path class="st1" d="M1206.3,123.3v6.9c-2.8-1-5.6-2.5-8.5-2.9c-3.3-0.5-6.7-0.3-9.9,0.5c-1.8,0.5-4,2.7-4.2,4.4s1.3,4.4,2.8,5.4
			c3.1,2.1,6.7,3.2,10.1,4.8c3.2,1.5,6.5,2.7,9.4,4.5c6.4,4.1,7.2,10.6,1.4,15.5c-3.3,2.8-7.7,5.3-11.8,5.8c-6,0.8-12.4,0-18.5-0.8
			c-4.5-0.6-2.6-5.4-4.3-7.9c4.8,1.5,9.3,3.6,13.9,4.1c4.1,0.3,8.1-0.4,11.8-2c4.4-1.9,4.6-6.8,0.5-9.6c-2.6-1.8-5.7-3-8.6-4.4
			c-3.7-1.8-7.5-3.3-11.1-5.2c-3.6-1.8-5.7-5.6-5.3-9.6c0.4-4.3,3-7,6.8-8.6C1189.1,120.8,1197.6,121.3,1206.3,123.3z"/>
		<path class="st1" d="M700.6,122.9h27.9v6l-17.8-1.3v13.3h13v5.7l-12.9-0.7V162c8.3,1,16.7,2.6,25.3-3.2l-3.7,9.1h-32
			c0.5-2.7,1.5-5.4,1.6-8.2c0.2-9.6,0.2-19.2,0-28.8C702.1,128.3,701.2,125.8,700.6,122.9z"/>
		<path class="st1" d="M1078.7,146.7l-12.9-0.9v16.3c8.2,0.9,16.6,2.5,25.2-3.2c-1.4,3.6-2.5,6.3-3.6,9h-32.2c0.7-2.4,1.9-4.9,2-7.4
			c0.2-10.1,0.2-20.2,0-30.3c0-2.3-1.1-4.6-1.8-7.1h28.1v6.6c-2.9-0.7-5.8-1.3-8.7-1.8c-3-0.2-6-0.2-9-0.1v13h13L1078.7,146.7z"/>
		<path class="st7" d="M1011,169.8c-4.9-1.6-8.8-5.3-10.6-10.1c-4-9.8-8.3-19.4-12.7-29.1c-1.1-2.6-2.7-4.9-4.2-7.5h10l15.6,36.5
			c0.9-1.9,1.7-3.2,2.3-4.6c3.5-7.8,7-15.7,10.4-23.5c1.8-4.1,1.6-5.3-0.6-8.4h10.9L1011,169.8z"/>
		<path class="st7" d="M788.8,498c5.9-4.6,20.8-36.6,19.2-40.3c0.2-0.1,0.5-0.2,0.7-0.3c9.6-0.4,9.6-0.4,13.7,8.1
			c3.8,7.8,7.5,15.7,11.4,23.5c1.6,3.1,3.6,6,5.4,8.9h-11.3c-0.1-1.6,0.2-3.3-0.3-4.6c-4.1-10.4-4.2-10.4-15.5-10.4H804
			c-1,5.1-6,9.1-3.8,15.1H788.8z M806.3,478.1h14.4l-7.2-15.5C810.9,468.1,808.7,473,806.3,478.1z"/>
		<path class="st1" d="M1025.6,490.3c5.7,3,11.6,5.2,18.2,4c1.3-0.2,2.7-0.6,3.9-1.3c4.7-2.4,5.2-6.7,0.7-9.6
			c-2.6-1.7-5.6-2.7-8.4-4s-5.6-2.2-8.2-3.7c-3.6-2-6.2-4.8-5.8-9.3c0.4-4.6,3.5-7,7.5-8.4c7.2-2.5,14.4-2.3,21.9-0.5v6.6
			c-4.8-2.6-9.7-4.2-15-3c-2.7,0.6-5.2,1.5-5.8,4.5s1.8,4.8,4.2,5.9c4.2,2,8.5,3.5,12.7,5.5c3.9,1.9,8.2,3.8,8.3,9.1
			c0.1,5.5-3.8,8.5-8.2,10.6c-7.7,3.6-15.7,3.1-23.4,0.7c-1.7-0.5-2.4-4.3-3.6-6.6L1025.6,490.3z"/>
		<path class="st8" d="M1325.2,123.1c5.7-0.8,11.2-0.4,14.8,6.2c2.5,4.7,6.2,8.7,9.6,13.4c3.6-4.6,6.9-9,10.4-13.3
			c1.9-2.4,1.3-4.3-1-6.3h13.3c-1.6,2.1-2.9,3.8-4.2,5.5c-3.2,4.1-6,8.7-9.8,12.2c-6.5,6-6.4,13.4-5.5,21c0.2,2.1,1.8,4.1,2.8,6.1
			h-12.9c0.5-2.6,1.2-5.4,1.6-8.2c1.3-8-1.2-14.7-6.7-20.7C1332.9,133.9,1329.2,128.3,1325.2,123.1z"/>
		<path class="st8" d="M561.8,129.9c0.6-2.4,1.2-4.9,1.7-7.2h39.7c-0.9,2.7-1.6,5-2.1,6.4l-14.8-1.8v23.1c-0.2,3.4-0.1,6.7,0.1,10.1
			c0.3,2.5,1.5,4.9,2.3,7.3h-12.9c0.7-1.8,2-3.8,2-5.9c0.2-11.2,0.1-22.4,0.1-33.9c-5.7-0.6-11-0.4-16.2,1.7L561.8,129.9z"/>
		<path class="st9" d="M1268.4,130c0.5-2.5,1.1-4.9,1.6-7.3h39.7l-2,6.3l-14.8-1.7c0,12.2-0.1,23.7,0.1,35.1c0,1.8,1.7,3.6,2.7,5.4
			h-13.4c0.7-1.8,2.1-3.6,2.1-5.5c0.2-11.3,0.1-22.7,0.1-34.3c-5.7-0.4-11-0.5-16.2,1.9L1268.4,130z"/>
		<path class="st10" d="M992.7,198.3l6.4,0.3c0.1,0.4,0.2,0.8,0.2,1.1c-1.3,0.4-2.6,0.5-3.9,0.6c-3-0.4-4.7,0.9-6.3,3.4
			c-5.7,9.2-11.6,18.4-17.6,27.4c-4.8,7.3-11.6,11.6-20.4,12.4c-2.2,0.2-4.5,0-6.6-0.6c-1.5-0.5-2.6-1.5-3.3-2.9
			c-0.3-0.7,1.3-2.8,2.4-3.1c1.6-0.3,3.3,0,4.7,0.8c1.6,0.9,3.2,3.6,4.2,3.4c2.9-0.6,6.5-1.8,8.1-3.9c8.3-11.8,16-24,24.4-36.7h-5.9
			c-0.1-0.3-0.2-0.6-0.2-1c1-0.4,2-1.1,2.8-1c3.4,0.5,5.1-1.1,6.8-3.8c4.8-7.4,11.6-11.5,20.5-11.7c1-0.1,2,0,2.9,0.4
			c1.1,0.7,2.1,1.5,3.1,2.3c-0.9,1.1-1.7,2.8-2.8,3.1s-3.7-0.2-4.1-1.1c-1.5-3.4-3.7-2.6-5.8-1.4c-1.6,0.8-2.9,1.9-4,3.3
			C996.5,192.3,994.8,195.1,992.7,198.3z"/>
		<path class="st10" d="M952.1,197.9c12.4-0.2,16.1,5.6,11.2,14.3c-6,10.8-15.4,16.6-27.7,17.9c-2,0.1-4-0.1-5.9-0.7
			c-4.1-1.1-6-4.3-5.2-8.6c0.2-1.2,0.5-2.4,1.1-3.6C931.8,205.7,941.4,199.1,952.1,197.9z M953,200.6c-2,0.5-4.1,1.1-6,1.9
			c-7,3.5-11.6,9.4-14.7,16.3c-0.9,1.9-1.3,5.2-0.3,6.5s4.3,1.7,6.4,1.4c8.1-1.1,18.9-12.6,20-20.8C959,202.3,957.6,200.9,953,200.6
			z"/>
		<path class="st1" d="M961.3,167.9h-11.8c0.6-2.5,1.7-5,1.8-7.5c0.2-10,0.2-20,0.1-29.9c0-2.4-1.1-4.9-1.7-7.4h11.5
			c-0.5,3-1.3,6.1-1.4,9.3c-0.2,9-0.2,17.9,0,26.9C959.8,162.3,960.8,165.1,961.3,167.9z"/>
		<path d="M1236.5,123h11.4c-0.5,3.3-1.3,6.7-1.3,10c-0.2,8.7-0.2,17.5,0,26.2c0.1,2.9,1,5.8,1.6,8.7h-11.6c0.6-2.9,1.6-5.9,1.6-8.9
			c0.2-9.6,0.2-19.2,0-28.8C1238.1,127.9,1237.2,125.6,1236.5,123z"/>
		<path class="st1" d="M982.8,498.1h-11.7c2.7-5.7,2.6-36.1-0.2-40.7h11.6C979.6,463,979.7,493.3,982.8,498.1z"/>
		<path class="st9" d="M1268.4,129.9l-0.5,0.1l0.1-0.3L1268.4,129.9L1268.4,129.9z"/>
		<path class="st8" d="M561.8,129.8l-0.4,0.4v-0.4L561.8,129.8L561.8,129.8z"/>
		<path class="st11" d="M60.3,110c5.5,14.3,15.1,24.5,26.3,33.1c10.4,7.9,21.7,14.7,32.6,21.9c1.1,0.7,2.3,1.4,3.8,2.3
			c-3.8,3-7.4,5.7-10.8,8.5c-16,12.9-25.7,30-33.1,48.7c-0.6,1.6-1.3,3.3-1.9,4.9c-2.6,6.7-2.7,6.9-9.8,6.1
			c-11.2-1.1-22.4-2.4-33-6.8c-6-2.5-6.4-2.8-5.7-9.4C32.4,183.8,39.3,149,56.3,117C57.4,114.8,58.7,112.7,60.3,110z"/>
		<path class="st11" d="M265.8,167.4c25-14.8,49.6-29.1,62.9-56.8c1.2,1.9,2.3,3.6,3.3,5.4c11.5,20.9,18.4,43.4,22.7,66.7
			c2.5,13.1,3.9,26.4,5.9,39.6c0.4,2.6-0.8,4-2.8,4.6c-8,2.4-15.9,5-24,6.9c-5.2,1.2-10.7,1.1-16,1.9c-2.8,0.4-3.9-0.8-4.9-3.2
			c-2.9-7.2-5.9-14.3-9.1-21.4c-7.5-16.2-19-30.2-33.6-40.5C268.9,169.7,267.5,168.6,265.8,167.4z"/>
		<path class="st12" d="M143.4,86.4c-5.1,0-9.7,0.1-14.3,0c-4.9-0.2-8.3,1.9-11,5.8c-7.3,11-7.3,32.7-0.1,43.8
			c2.4,3.6,5.9,5,9.7,6.5c12,4.8,24.1,4.9,36.4,1.7c4.2-1,7.8-3.7,9.9-7.4c12.1-20.9,10.9-41.7-1.1-62.1c-5.8-9.9-13-18.7-23.8-23.4
			c2.2-9.8,10.4-13.9,18.8-9.5c7.4,3.7,12.7,10.6,14.4,18.6c4.6,18.7,5.8,38.1,3.8,57.3c-0.8,7.6-2.8,15.1-4.6,22.6
			c-1.3,5.4-4.9,7.7-10.7,8.4c-14.7,1.7-28.8,6.7-41.3,14.6c-2.4,1.5-4.2,1.7-6.7,0.2c-17.1-9.7-33.8-20.2-47-35
			c-4.8-5.4-8.3-12-12.1-18.3c-0.7-1.4-0.6-3.1,0.1-4.4c10.5-15.2,23.4-27.4,41.6-32.5C120.1,69.1,134.6,74.1,143.4,86.4z"/>
		<path class="st12" d="M239.8,51c-27.3,15-40,48.3-29.9,76.2c4.6,12.8,13,18.6,26.3,19.1c10.1,0.4,19.7-1.1,28.7-5.4
			c3.2-1.7,5.7-4.4,7.1-7.7c5.6-12.2,5.6-26.3-0.1-38.5c-2.5-5.6-6.7-8.8-13.3-8.3c-4.3,0.3-8.6,0.1-13.6,0.1
			c6.7-8.3,14.5-13.4,24.6-14.4c11.2-1.1,21.1,2.8,30.4,8.7c9.6,6.4,17.9,14.5,24.5,24c1.3,1.7,1.6,4,0.6,5.9
			c-4.4,10.7-12.1,18.8-20.5,26.4c-12.1,10.8-25.6,19.5-39.9,27.1c-1.3,0.6-2.7,0.5-4-0.1c-13.5-8.4-28.7-13.7-44.5-15.5
			c-4.6-0.5-7.2-2.7-8.3-6.7c-1.9-7.2-4.2-14.4-5-21.8c-2.2-19.8-1-39.8,3.6-59.2c1.6-7.3,6-13.7,12.2-17.8
			C227.9,36.8,236.5,40,239.8,51z"/>
		<path class="st13" d="M315.6,239.4c7.9-1.1,15.6-1.8,23.2-3.3s14.6-3.9,22.1-6c0.2,0.7,0.4,1.4,0.4,2.2
			c2.8,57.7-0.9,114.8-16.6,170.7c-6.7,24-15.8,47.4-27,69.7c-1.1,2.3-2.3,3-4.9,2.4c-12.5-2.8-21.5-10.6-29.3-20.2
			c-0.7-0.8-0.3-3,0.3-4.3c9.4-19.4,17.4-39.5,23.9-60.1c10.7-34.3,16.7-69.3,14.4-105.2c-0.9-14.3-3.9-28.4-6-42.6
			C316.1,241.7,315.9,240.7,315.6,239.4z M340.6,276.1c-9.5,0-14.7,5.4-15.2,15.2c-0.9,15.8-1.4,31.7-3.3,47.4
			c-2.9,24.2-9.2,47.8-17.5,70.7c-2,5.6-0.8,10.7,3.7,14.2c3.6,2.8,7.7,4.9,12.1,6.1c7.2,2,11.9-1.3,14.1-8.5
			c12.7-41.6,21.4-83.9,22.7-127.5C357.6,282.5,351.9,276.1,340.6,276.1L340.6,276.1z"/>
		<path class="st13" d="M27.7,230.1c7.7,2.1,15,4.5,22.5,6.1s15,2.2,22.8,3.2c-1.2,6-2.5,11.8-3.5,17.7c-3.9,22.3-4.6,45-2.3,67.5
			c4.3,44,18,85.3,37.2,124.9c1.7,3.4,1.3,5.5-1.3,8.1c-7.6,7.9-15.8,14.9-26.9,17.5c-2.9,0.7-4.2-0.1-5.4-2.6
			c-18.3-36.5-30.2-75.2-37.1-115.4c-6.7-39.2-8-78.7-6.6-118.4C27.3,235.6,27.6,232.5,27.7,230.1z M31.5,295.4l-0.6,0.1
			c1.5,14.9,2.6,29.8,4.7,44.7c3.8,27.2,10.2,53.9,18.3,80.1c2.6,8.5,7.2,11.2,15.8,9.4C82,427,87.1,418,83,406.3
			c-10-28.6-16.6-58-18.6-88.3c-0.7-9.6-0.8-19.2-1.3-28.8c-0.2-4.6-2-8.6-6.2-10.9c-6.4-3.4-12.8-2.9-19,0.5c-5.5,3.1-7.1,8-6.4,14
			C31.5,293.7,31.5,294.6,31.5,295.4z"/>
		<path class="st14" d="M318.9,299.1c-0.4,44.6-10.6,87-28.3,127.8c-15,34.3-34.4,65.8-61.2,92.1c-9.6,9.4-20.8,17.2-31.1,25.8
			c-2.8,2.4-5,1.8-7.9-0.1C166.9,529,147.7,509,131.5,486c-30.5-43.3-49.7-91.2-58.1-143.4c-5-30.9-5.4-61.7,1.6-92.3
			c5.8-25.5,16.6-48.6,34.9-67.7c9.7-10.2,20.9-17.8,35.1-20.1c6.3-1.1,12.4-0.1,18.5,1.4c12,3,24.1,6.3,36.6,4.8
			c8.1-0.8,16-2.4,23.8-4.5c18.2-5.4,33.6-0.2,47.3,11.4c20.4,17.3,32.7,39.8,40,65.1C316.6,259.7,319.2,279.4,318.9,299.1z
			 M314.6,305.5c0-26.5-2.1-46.5-7.9-65.9c-6.5-22-16.8-41.7-34.9-56.5c-14.7-12.1-30.7-18-50-12c-16.5,5.1-33.4,5.3-50.3,1.4
			c-6.5-1.5-13.1-3.3-19.8-3.7c-12.2-0.7-22.5,5-31.9,12c-18.6,13.9-29.6,32.9-36.5,54.5c-10.7,33.4-11.2,67.6-6.6,101.9
			c5.1,39,17.2,76.7,35.7,111.3c18.5,34.6,42.4,64.7,74.9,87.3c7,4.8,6.9,4.9,14,0c32.5-22.5,56.4-52.4,74.7-87
			C301,402.1,314,352.2,314.6,305.5L314.6,305.5z"/>
		<path class="st11" d="M74.9,479.9c6.2-3,12.6-5.4,18.1-9.1s10.2-8.7,15.4-13.3c1.3,2.1,2.7,4.4,4,6.8
			c13.8,23.4,30.9,44.7,50.9,63.1c2.3,2.1,2.8,3.9,1.7,6.8c-4.2,10.7-10.6,19.3-21.6,23.5c-1.4,0.5-3.9,0.5-5-0.4
			C111.3,536.2,91.1,509.6,74.9,479.9C74.7,479.5,74.7,479.1,74.9,479.9z"/>
		<path class="st11" d="M280.7,456.9c9.1,10.5,19.1,19.4,33.6,21.8c-0.5,1.1-1,2.1-1.5,3c-15.6,28.1-34.9,53.2-59.9,73.7
			c-3.6,3-6.4,3.1-10.3,1.1c-10.3-5.4-16.2-14.1-19.6-24.9c-0.3-1,0.7-2.8,1.7-3.6c18.5-17.1,34.6-36.5,47.9-57.9
			C275.3,465.8,277.9,461.5,280.7,456.9z"/>
		<path class="st12" d="M252.3,141.4c-10.4,2.6-20.1,2.4-29.5-1.4c-2.4-1-4.4-3.6-5.8-6c-10.9-19.3-9.6-38.4,1.3-57.3
			c15.4-26.6,43.7-32.9,71.4-24.1c20.8,6.6,42,23.7,53.8,42.9l-13.8,9.3c-5.6-6.3-10.6-12.6-16.4-18.2c-8.4-8.5-19-14.5-30.7-17.3
			c-19.6-4.8-37.5,4.8-45.3,24.4c-3.4,8.5-5.1,17.2-3.2,26.4c1.8,8.9,6.6,15.5,14.8,19.5C249.8,140.1,250.7,140.6,252.3,141.4z"/>
		<path class="st12" d="M137,141.1c0.9-0.4,1.7-0.9,2.6-1.3c9.4-4.5,14.4-12.2,15.6-22.3c1.3-11.4-1.7-22.9-8.3-32.3
			c-10.5-15.4-25.8-20.5-44-14.9c-17.4,5.3-30.1,16.8-40.5,31.2c-0.8,1.1-1.6,2.2-2.7,3.7L45,95.3c2.8-3.7,5.3-7.3,8.1-10.6
			c15.2-17.7,33.5-30.4,57-34.9c31.3-6.2,61.8,14.1,68,45.4c1,4.9,1.3,9.8,1,14.8c-0.4,7.3-2.6,14.2-5.6,20.9
			c-3,6.7-8,10.9-15.3,11.3c-7,0.4-14.1,0.1-21.2,0.1L137,141.1z"/>
		<path class="st12" d="M143.1,561.2c13.7-5.1,21.2-15.3,25.6-29c1.6,1.3,2.8,2.3,4.2,3.3c6.5,4.7,12.9,9.5,19.5,14
			c1.3,0.7,2.9,0.6,4.2-0.1c7-4.8,13.8-9.9,20.6-14.9c0.9-0.6,1.7-1.3,2.9-2.2c4.3,13.3,11.6,23.7,25.6,28.9
			c-8.4,6.1-17.5,11.1-27.1,14.8c-4,1.5-7.2,1.5-11-1.1c-9.3-6.3-18.9-5.3-27.9,1c-2,1.5-4.6,1.9-6.9,0.9
			C162.1,573,152.2,567.8,143.1,561.2z"/>
		<path class="st15" d="M364.3,227.1l17.6-1.4c4.1,45.3,1.7,90-6.3,134.9c-5.3-1.7-10.3-3.3-15.1-5.1c-0.7-0.3-1.4-2.1-1.3-3.2
			c1-9.9,2.3-19.8,3.3-29.8c3.1-29.6,4.8-59.2,2.1-88.9C364.4,231.6,364.4,229.6,364.3,227.1z"/>
		<path class="st16" d="M6.8,225.7l17.8,1.4c-4.4,43-0.1,85.4,5.4,127.9l-16.9,5.5C5.1,316.1,2.9,270.7,6.8,225.7z"/>
		<path class="st15" d="M69.2,475.8l-16.3,9.8c-0.7-1.3-1.4-2.4-2-3.6c-14.7-28.7-24.1-59.3-31.3-90.7c-1.8-7.8-3.4-15.6-5.2-23.4
			c-0.6-2.6,0-3.9,2.7-4.6c4.4-1.2,8.8-2.8,13.7-4.4C37.3,400.1,51.1,438.5,69.2,475.8z"/>
		<path class="st15" d="M358,359l16.9,5.5c-8.4,42-18.8,82.9-39,121.1l-16.4-9.8C337.5,438.5,351.5,400.3,358,359z"/>
		<path class="st15" d="M24.8,223.9L7,222.5c4.1-43.9,12.9-86,36.2-124.5l14.7,9.8C36.8,143.5,29.3,183,24.8,223.9z"/>
		<path class="st15" d="M330.8,107.8l14.6-9.9c23.5,38.2,32,80.5,36.4,124.5l-17.9,1.4C359.5,183.3,352,143.9,330.8,107.8z"/>
		<path class="st17" d="M248.3,48.3l-3.2,0.9c-0.4-0.6-0.8-1.3-1.1-2c-5-11.8-15-15.3-26.3-9.3c-7.7,4.1-13,10.5-15,18.8
			c-6.3,25.5-7.6,51.3-2.4,77.2c0.5,2.2,1.1,4.4,1.8,6.5c0.7,2.1,1.7,4.1,2.7,6.3h-20.2c1.5-5,3.3-10.1,4.5-15.4
			c3.2-14.9,3-30.1,1.8-45.2c-0.8-9.2-2.2-18.3-4.2-27.3c-1.8-9.7-8.3-17.8-17.3-21.8c-10.4-4.8-19.8-1.2-24.2,9.4
			c-1,2.5-2.2,3-4.4,1.7c0.2-12.2,8.3-18.2,24.1-17.7c4.5-15.3,12.7-26.8,30.5-26.3c14.4,0.4,21.2,6.9,28.8,26.4
			c7.2-0.7,14.2-0.2,19.5,5.7C246.4,39.6,248.1,43.8,248.3,48.3z M218.8,28.8c-1.7-6.5-2.9-12.8-9.2-16c-6.1-3.1-11-0.5-15.2,3.9
			c-6.3-5.4-10-6.5-15-4c-6.6,3.3-7.8,9.7-9.3,16.2c13.8,2.6,19,13.4,24.4,24.6C199.7,42,205,31.5,218.8,28.8L218.8,28.8z"/>
		<path class="st12" d="M318,478.8l16.5,9.7c-18.1,34.1-40.7,64-71.5,87.6c-1.5-1.8-2.9-3.4-4.2-5c-2.6-3.2-5.2-6.4-8-9.9
			C279.4,538.9,300.6,510.8,318,478.8z"/>
		<path class="st12" d="M137.9,561.1l-12.2,14.9c-30.8-23.5-53.4-53.3-71.5-87.6l15.4-9.1c10.3,15,20,29.9,30.6,44.1
			C110.9,537.8,123.7,550.1,137.9,561.1z"/>
		<path class="st12" d="M209.3,589.8c-0.5,9.8-4.7,19-11.9,25.7c-2.1,2-3.7,2.3-5.9,0.2c-10.1-9.5-12.7-21.6-12.1-34.8
			c0-1,1.2-2.2,2.1-2.8c6.2-4.3,13-5.5,20.2-2.9C208.6,577.5,209.6,578.9,209.3,589.8z"/>
		<path class="st16" d="M210.7,603.5c1.1-7.4,2.1-14.8,3.1-21.6l35.1-17.9c3.4,4.1,7.4,9,11.4,13.8
			C250,586.8,220.9,601.8,210.7,603.5z"/>
		<path class="st16" d="M128.5,577.8l11.4-13.9l35.5,18.2c0.1,3.5,0.3,7,0.7,10.5c0.6,3.7,1.8,7.2,2.6,10.8
			C170.3,603.1,140,587.6,128.5,577.8z"/>
		<path class="st13" d="M147.3,158.1c31.2-10.8,62.8-10.8,94.4,0.6c-10.8-0.8-20.7,3.4-30.9,5.5c-14.7,3.1-29,1.1-43.3-2.3
			C160.8,160.3,153.9,159.3,147.3,158.1z"/>
		<path class="st14" d="M273.1,115.5c-0.7,3-1.6,8.5-3.2,13.8c-0.9,2.4-2.4,4.6-4.4,6.4c-2.6,2.6-6.9,2.6-9.5,0
			c-0.1-0.1-0.2-0.2-0.2-0.3c-1.8-1.9-3.3-4.1-4.2-6.5c-3.2-9.3-3.2-19.4,0-28.6c0.9-2.5,2.2-4.7,4-6.7c3.9-4.4,9.2-4,12.7,0.7
			C272.3,99.9,272.7,106.4,273.1,115.5z M251.5,113.5c1.9,4.9,3.2,9.5,5.5,13.7c1.9,3.4,5,3.4,7.5,0.8c8.1-8.4,8.3-18.7,0.7-27.5
			c-2.8-3.2-6.2-3.5-8.3,0.2C254.5,104.4,253.3,108.9,251.5,113.5L251.5,113.5z"/>
		<path class="st14" d="M140.5,114.4c-1.5,6-2.5,11.5-4.4,16.7c-1.2,3.4-3.8,6.3-8,6.4s-6.7-2.6-8.3-6c-5.1-10.7-5.6-23.1-1.2-34.1
			c1.3-3.6,3.8-6.6,8.2-6.7s7.3,2.6,8.6,6.1C137.6,102.5,138.9,108.6,140.5,114.4z M137.1,113.4c-1.7-4.5-2.9-8.7-4.9-12.6
			c-1.4-2.7-4.1-3.7-7-1.8c-5.1,3.4-8.7,13.4-6.5,19c1.3,3.1,2.9,6.1,4.8,8.8c2.7,4,6.3,4.1,8.6,0S135.3,118.1,137.1,113.4z"/>
		<path class="st17" d="M136,137.9c8.7-16.5,9-32.1,0.5-48c2.9,0,5.4-0.1,7.9,0.1c1,0.1,2,0.7,2.6,1.6c4.8,10.2,7.3,20.8,3.7,31.9
			C148.4,130.3,143.8,134.9,136,137.9z"/>
		<path class="st13" d="M252.4,137.3c-8-1.8-14.1-9.5-15.5-18.4s0.6-17.3,3.9-25.6c1-2.6,2.5-3.8,5.3-3.4c2,0.1,4.1,0.1,6.1,0
			c-4.1,7.7-6.4,15.3-6.4,23.6C246.1,121.8,248.3,130,252.4,137.3z"/>
		<path class="st18" d="M340.6,276.1c11.3,0,17,6.4,16.6,17.6c-1.3,43.6-10,85.9-22.7,127.5c-2.2,7.3-6.9,10.5-14.1,8.5
			c-4.4-1.2-8.5-3.3-12.1-6.1c-4.5-3.5-5.7-8.5-3.7-14.2c8.3-23,14.6-46.5,17.5-70.7c1.9-15.7,2.4-31.6,3.3-47.4
			C326,281.5,331.1,276,340.6,276.1z M353.8,304.8c0.2-4.1,0.3-8,0.6-12c0.6-7.4-2.7-11.9-9.8-13.6c-6.7-1.5-13.6,0.8-15,6
			c-1.3,4.9-1.3,10.1-1.9,15.6C340,297.3,342.9,297.7,353.8,304.8L353.8,304.8z M333.5,414.9c1.2-3.9,2.3-7.3,3.2-10.8
			c0.3-1.1,0.2-2.2-0.2-3.2c-3.1-8-13.3-12.8-21.3-9.9c-0.8,0.2-1.5,0.8-1.9,1.5c-1.3,3.8-2.5,7.7-3.8,12
			C320,402.4,327.5,406.1,333.5,414.9z M347.1,358.3c3.1-9,1.7-12.8-6.3-16.9c-1.6-0.8-3.2-1.4-4.9-1.8c-8.7-2.1-12.9,1.7-12.1,10.5
			C336.7,350.1,338.5,350.8,347.1,358.3z M332.1,419.1c-0.8-1.8-1.3-3.7-2.4-5.3c-3.4-4.6-8.2-6.8-13.8-7.2
			c-3.7-0.3-6.9,0.9-8.7,4.5s-0.7,6.6,1.5,9.4c3.6,4.4,9.1,6.9,14.8,6.8C328.4,427.3,331.6,423.9,332.1,419.1z M341.5,384.2l1.3-0.2
			c0-3.2,1-6.9-0.2-9.6c-3.3-6.9-13-10.6-20.5-8.5c-1,0.3-1.9,1-2.3,1.9c-0.8,2.4-1.2,5-1.8,7.9
			C327.7,374.1,335.6,376.4,341.5,384.2L341.5,384.2z M352.1,330.8c-0.3-4.1,0.5-7.5-0.8-9.6c-3.5-5.7-11.2-8.1-17.8-6.5
			s-7.4,3-6.2,10.3C336.2,322.2,344.3,323.5,352.1,330.8L352.1,330.8z M334.4,392.3c0.6-3.5,4.3-6.8,0.6-10.4
			C334.5,385.4,330.5,388.6,334.4,392.3z M335.1,302.8l-1-1c-0.7,0.8-1.9,1.5-2.1,2.4c-0.3,1.7-0.4,3.4-0.2,5.2
			c0,0.6,0.7,1.3,1.1,1.9c0.6-0.6,1.6-1.2,1.7-1.8C334.9,307.3,335,305.1,335.1,302.8L335.1,302.8z M337.9,326.7
			c-2.6,0.3-3.6,3.5-3,9.6C337.5,336.3,338.8,332.4,337.9,326.7L337.9,326.7z M337.9,397.7c3.2-6.6,3.3-9.1,0.5-11.5
			C338.4,390.1,335.1,393.4,337.9,397.7L337.9,397.7z M349.1,313.9c0.9-8.5,0.9-8.5-2.2-9.8C345.9,311,346.1,312.3,349.1,313.9
			L349.1,313.9z M340.8,367.3c0.4-3.4,3.6-6.8,0.2-10.1C340.6,360.6,337.1,364,340.8,367.3L340.8,367.3z M340.5,327.1
			c0.2,3.6-2.3,7.2,0.7,11.5C343.7,330.6,343.6,328.3,340.5,327.1L340.5,327.1z M323.1,387.4c0.6,0.1,1.2,0.2,1.8,0.2
			c1-2.9,2-5.8,2.9-8.8c0-0.1-0.9-0.7-1.1-0.6c-0.5,0.2-1,0.6-1.2,1.1C324.6,382,323.9,384.6,323.1,387.4L323.1,387.4z M339.7,306.3
			L339.7,306.3c0.1-0.9,0.1-1.7-0.1-2.6c-0.3-0.8-0.8-1.5-1.3-2.1c-0.5,0.7-1.3,1.3-1.5,2c-0.3,1.2-0.3,2.5,0,3.7
			c0.3,1.1,0.8,2.2,1.4,3.3c0.5-1,1-2.1,1.5-3.1C339.8,307.1,339.8,306.7,339.7,306.3L339.7,306.3z M345.5,329.5
			c0.1,3.6-2.9,7.4,0.4,10.9C346,336.8,349.3,332.9,345.5,329.5L345.5,329.5z M342.3,302.4c-1.1,6.5-0.8,7.9,1.8,8.5
			C345.6,304.7,345.3,302.8,342.3,302.4z M329.5,389.3l0.9-0.5c0.6-2.5,1.3-5,1.9-7.5c0.1-0.5-0.6-1.2-0.9-1.8
			c-0.5,0.4-1.3,0.7-1.5,1.1c-0.8,2.1-1.4,4.2-1.8,6.4C328.1,387.7,329.1,388.6,329.5,389.3L329.5,389.3z M333.9,355.1l-1.2-1.8
			c-0.5,0.5-1.3,1-1.5,1.7c-0.6,1.9-1,3.9-1.2,5.8c-0.1,0.6,0.5,1.4,0.8,2.1c0.6-0.5,1.4-0.9,1.6-1.5
			C333,359.5,333.4,357.6,333.9,355.1L333.9,355.1z M336.1,364.9c2.9-6.4,2.9-9.5-0.1-9.9C336.3,358.1,332.9,361.3,336.1,364.9
			L336.1,364.9z M333.4,327c-3.1,0.8-4.1,5-2.8,10.3C333.7,334.3,332.6,330.6,333.4,327L333.4,327z M329.5,353.3l-1.4-0.5
			c-2.4,2.8-2.1,6.3-2.6,9.6l1.6,0.5C327.8,359.7,328.7,356.5,329.5,353.3L329.5,353.3z M318.8,387.1l1.2,0.4c2.5-2.5,2.4-5.9,3.2-9
			l-1.6-0.5L318.8,387.1z M345.5,361.2c-2.6,4.1-2.9,8.4-0.6,10.6C345,368.3,347.4,365,345.5,361.2L345.5,361.2z M320.9,362.7
			l1.7,0.5c0.8-3.2,1.6-6.4,2.3-9.5l-1.1-0.3C321.2,355.9,322,359.6,320.9,362.7L320.9,362.7z M350.9,333.4l-1.4-0.1
			c-0.4,3.5-1.8,6.9-0.9,10.5l1.3,0.1L350.9,333.4z M325.6,337.3l1.6,0.4l1.4-9l-1.6-0.3C325.7,331.1,325.2,334.2,325.6,337.3z
			 M327.6,312.6l1.8,0.2l0.5-8.5l-1.6-0.1L327.6,312.6z M318.9,379.3l-1.6-0.6l-2.3,8.7l1.5,0.4L318.9,379.3z M351.8,317l0.9-0.2
			v-8.3l-0.9,0.1V317z"/>
		<path class="st18" d="M31.5,295.4c0-0.9,0-1.7,0-2.6c-0.7-6,0.9-10.9,6.4-14c6.2-3.4,12.6-4,19-0.5c4.2,2.3,6,6.2,6.2,10.9
			c0.5,9.6,0.7,19.2,1.3,28.8c2.1,30.3,8.7,59.7,18.6,88.3C87.1,418,82,427,69.7,429.7c-8.6,1.9-13.2-0.9-15.8-9.4
			c-8.1-26.3-14.6-52.9-18.3-80.1c-2-14.8-3.2-29.8-4.7-44.7L31.5,295.4z M60.9,301.3c-0.3-4.8-0.4-8.6-0.8-12.4
			c-0.6-5.6-3.8-8.8-9.3-9.7c-7.2-1.1-15.2,2.4-16,7.9c-0.8,5.7-0.2,11.6-0.2,18.4C42.9,298.3,51.1,296.7,60.9,301.3z M79.3,404.5
			c-1.3-4.4-2.4-8.1-3.6-11.7c-0.4-0.9-1.2-1.5-2.1-1.9c-6.7-2.4-14.6,0.3-19.2,6.5c-3.3,4.4-2.8,10.5,1.4,16.7
			C61.3,406.1,68.7,402.4,79.3,404.5z M41.4,358.7c6.6-7.5,14.5-9.8,23.6-8.5c0.5-8.2-1.4-10.9-8-11.1c-7.1-0.2-12.3,3.4-16.6,8.7
			c-0.4,0.6-0.6,1.3-0.5,2.1C40.3,352.7,40.8,355.4,41.4,358.7z M66,427.3c5.7-0.6,10.5-2.5,14.1-6.9c2.2-2.7,3.1-5.6,1.5-9
			c-1.6-3.5-4.7-4.8-8.2-4.7c-5.4,0.1-10.6,2.5-14.1,6.7c-2.3,2.8-3.2,5.9-1.6,9.4S62.7,427,66,427.3z M70.9,375.9
			c-0.7-3-1.2-5.5-1.9-7.9c-0.2-0.8-0.8-1.5-1.5-1.8c-6.9-1.9-12.9,0-18.5,4.4c-4.9,4-4.3,8.6-2,13.9
			C52.9,376.5,60.8,374.1,70.9,375.9z M37.7,329.8c7.1-6.4,15.3-7.5,24.2-4.6c-0.7-9-2.8-11-11.2-11c-0.7,0-1.5,0-2.2,0.1
			C39.5,315.5,34.8,322.1,37.7,329.8z M46.9,337.9c2.8-1.2,3-5,0.8-10.5C45.3,328.4,45.3,328.4,46.9,337.9z M53.2,336.5
			c1.1-7.2,0.1-10-3.2-9.5C51.7,330.1,49.6,334.3,53.2,336.5L53.2,336.5z M43,329.5c-3.1,3.7-0.5,7.3,0.1,11
			C46.3,336.9,43.3,333.2,43,329.5L43,329.5z M54.3,392.5c3.9-3.8,0-7.1-0.5-10.6C49.8,385.6,54.1,389,54.3,392.5L54.3,392.5z
			 M50.2,398.4c4-4.8,0.1-8.3-0.4-11.9C46.4,390.5,50.1,393.9,50.2,398.4L50.2,398.4z M47.3,367.5c3-1.7,3-4.8,0.1-11
			C44.3,360.5,47.6,363.9,47.3,367.5L47.3,367.5z M61.9,377.9c-0.5,0.6-1.2,1.1-1.2,1.5c0.6,2.6,1.4,5.3,2.2,7.8
			c0.1,0.3,1.1,0.4,1.6,0.3c0.4-0.2,0.6-0.7,0.7-1.1c-0.6-2.4-1.2-4.8-1.9-7.2C63.2,378.8,62.5,378.5,61.9,377.9L61.9,377.9z
			 M51.7,353.6c-2.8,4.2,0.2,7.4,0.2,11.1C54.7,363,54.5,359.7,51.7,353.6L51.7,353.6z M52.5,305.9c-0.8-1.5-1.6-2.9-2.3-4.3
			c-0.4,1.5-1.3,3-1.2,4.4s-1.5,4.2,1.6,4.3C51.1,310.4,51.8,307.7,52.5,305.9L52.5,305.9z M59.4,363.5c-0.8-3.7-1.3-6.1-1.7-8.5
			c0-0.1,0-0.3-0.1-0.4c-0.6-0.5-1.2-0.9-1.8-1.3c-0.3,0.6-1,1.2-0.9,1.7c0.3,2.3,0.9,4.6,1.5,6.8C56.6,362.4,57.8,362.7,59.4,363.5
			L59.4,363.5z M56,326.3c-1,6.6,0.2,10.2,3.4,10.1C57.6,333.3,60,329.3,56,326.3z M44.1,310.9l1.2,0.6c0.6-0.8,1.6-1.6,1.7-2.5
			c0.2-1.7,0.2-3.5-0.1-5.2c-0.1-0.6-0.9-1.1-1.4-1.7c-0.5,0.6-1.3,1.1-1.4,1.8C44,306.3,44.1,308.6,44.1,310.9z M56.5,311.9
			c1-8,0.6-9.1-2.8-9.3C54.8,305.5,52.3,309.3,56.5,311.9L56.5,311.9z M58.8,390.3c1-1.8,1.8-2.6,1.7-3.3c-0.4-2.1-0.9-4.1-1.7-6.1
			c-0.2-0.6-1.1-0.9-1.7-1.4c-0.3,0.7-0.9,1.5-0.7,2.2C56.9,384.3,57.7,386.7,58.8,390.3z M40.1,314.1c3.5-3.3,1.2-6.9,2-10.4
			C38.6,305.8,38.3,307.4,40.1,314.1z M59.7,353.1c0.3,6.4,1.2,8.8,3.4,9.3C62.8,355.4,62.2,353.7,59.7,353.1L59.7,353.1z M43.9,361
			c-1.9,2.4-1.7,5.6,0.4,10.5C46,369.4,46,369.4,43.9,361L43.9,361z M63.3,338.3c-0.4-8.7-0.4-8.7-3.5-10.2
			C61.4,331.5,59.4,335.2,63.3,338.3z M66,363.1c1.9-4.6,0.6-8.9-2.3-9.5C64.6,356.9,65.3,360,66,363.1L66,363.1z M67.9,387.7
			l1.3-0.3c0.2-4.7-1.3-8.3-4-8.9L67.9,387.7z M38.9,344l1.7-0.1l-1.2-10.5l-1.6,0.1C38.1,337,38.5,340.5,38.9,344z M37,308.6
			l-1.1-0.1v8.5H37V308.6z M72.3,387.8l1.4-0.3c-0.8-2.9-0.6-6.1-3.9-8.1L72.3,387.8z"/>
		<path class="st19" d="M314.6,305.5c-0.6,46.7-13.6,96.6-38.5,143.4c-18.4,34.6-42.3,64.5-74.7,87c-7.1,4.9-7,4.8-14,0
			c-32.5-22.6-56.4-52.7-74.9-87.3c-18.5-34.6-30.6-72.3-35.7-111.3c-4.6-34.4-4.1-68.5,6.6-101.9c6.9-21.6,18-40.6,36.5-54.5
			c9.5-7.1,19.7-12.7,31.9-12c6.6,0.4,13.3,2.2,19.8,3.7c16.9,4,33.8,3.8,50.3-1.4c19.3-6,35.3-0.1,50,12
			c18.1,14.8,28.3,34.5,34.9,56.5C312.5,259,314.6,278.9,314.6,305.5z M310.7,298.8c0.2-18-1.9-36-6.3-53.5
			c-5.8-22.7-15.6-43.2-33.5-59c-14-12.3-29.4-18.1-48.3-12.2c-10.2,3.2-21,5-31.8,4c-9.2-0.7-18.3-2.3-27.3-4.6
			c-13.9-3.9-26.2-1-37.7,6.8c-19.3,13-30.8,31.7-38,53.3c-8.4,25.3-10.6,51.4-9.3,78c1.5,34.7,8.7,69,21.3,101.4
			c19.2,49,48.6,90.4,91.5,121.6c2.3,1.7,3.8,1.7,6.1,0c22.4-16.1,41.8-35.9,57.7-58.4C292.5,423,309.3,363.3,310.7,298.8
			L310.7,298.8z"/>
		<path class="st9" d="M218.8,28.8C205,31.5,199.7,42,194.4,53.4c-5.4-11.1-10.6-21.9-24.4-24.6c1.5-6.5,2.7-13,9.3-16.2
			c5-2.5,8.8-1.4,15,4c4.2-4.4,9.1-7,15.2-3.9C215.9,16,217.1,22.3,218.8,28.8z M194.4,42.4c4.6-8.2,10.1-14.3,18.5-17
			c-2.1-9.9-7.6-10.6-18.5-2.6c-12-7.1-16.2-6.6-18.7,2.6C184.3,28.1,189.9,34.3,194.4,42.4z"/>
		<path class="st9" d="M251.5,113.5c1.8-4.6,3-9,5.3-12.8c2.1-3.6,5.5-3.4,8.3-0.2c7.6,8.8,7.4,19.1-0.7,27.5
			c-2.5,2.6-5.6,2.6-7.5-0.8C254.7,123,253.4,118.3,251.5,113.5z M257.5,108.9v9.4h4.8v-9.3L257.5,108.9z M264.5,124l-0.6-1.1h-7.5
			c2,1.7,3.2,3.3,4.7,3.7C262,126.8,263.3,124.9,264.5,124L264.5,124z M264.3,104.3l0.6-1.1c-1.4-0.9-2.8-2.5-4.2-2.5
			c-1.2,0-2.3,1.9-4.2,3.6H264.3z"/>
		<path class="st0" d="M137.1,113.4c-1.7,4.7-2.8,9.3-5.1,13.4s-5.9,4-8.6,0c-1.9-2.8-3.5-5.7-4.8-8.8c-2.2-5.6,1.3-15.6,6.5-19
			c2.9-1.9,5.6-0.9,7,1.8C134.1,104.6,135.4,108.9,137.1,113.4z M131.3,118.4c0.2-3.1,0.3-6.3,0.4-9.4h-5.3v9.4L131.3,118.4z
			 M124.1,103.3l0.5,0.8h6.5l0.4-0.9c-1.3-0.9-2.6-2.5-3.8-2.5S125.3,102.3,124.1,103.3z M124.8,123l-0.6,1.1
			c1.3,0.9,2.6,2.5,3.8,2.5c1.2,0,2.1-1.9,3.8-3.6L124.8,123z"/>
		<path class="st16" d="M353.8,304.8c-10.9-7.1-13.8-7.6-26-4c0.6-5.5,0.6-10.7,1.9-15.6c1.4-5.2,8.3-7.5,15-6
			c7.1,1.6,10.4,6.2,9.8,13.6C354.1,296.8,354,300.7,353.8,304.8z"/>
		<path class="st17" d="M333.5,414.9c-6-8.8-13.5-12.6-24-10.4c1.4-4.4,2.5-8.2,3.8-12c0.4-0.7,1.1-1.3,1.9-1.5
			c8-2.8,18.3,1.9,21.3,9.9c0.4,1,0.4,2.2,0.2,3.2C335.8,407.6,334.7,411,333.5,414.9z"/>
		<path class="st17" d="M347.1,358.3c-8.5-7.5-10.4-8.1-23.3-8.2c-0.8-8.9,3.5-12.6,12.1-10.5c1.7,0.4,3.3,1,4.9,1.8
			C348.8,345.5,350.2,349.3,347.1,358.3z"/>
		<path class="st14" d="M332.1,419.1c-0.5,4.7-3.7,8.1-8.6,8.1c-5.7,0.2-11.2-2.3-14.8-6.7c-2.3-2.7-3.3-5.9-1.5-9.4s5-4.8,8.7-4.5
			c5.5,0.4,10.4,2.6,13.8,7.2C330.8,415.4,331.3,417.4,332.1,419.1z M321.4,424c2-1.4,4.3-2.2,4.9-3.6s-0.1-4.4-1.2-5.2
			c-2.7-1.9-5.7-3.2-8.9-4c-1.3-0.3-3.8,1.2-4.4,2.5c-0.5,1.7-0.1,3.5,1,4.9C315.2,420.8,318.3,422.1,321.4,424z"/>
		<path class="st17" d="M341.5,384.3c-5.9-7.9-13.8-10.1-23.6-8.4c0.6-2.9,1-5.5,1.8-7.9c0.5-0.9,1.3-1.6,2.3-1.9
			c7.5-2.1,17.3,1.5,20.5,8.5c1.2,2.6,0.2,6.4,0.2,9.6L341.5,384.3z"/>
		<path class="st17" d="M352.1,330.8c-7.9-7.2-16-8.6-24.8-5.8c-1.2-7.3-0.4-8.6,6.2-10.3s14.3,0.7,17.8,6.5
			C352.6,323.3,351.9,326.7,352.1,330.8z"/>
		<path class="st20" d="M334.4,392.3c-3.9-3.7,0.1-6.9,0.6-10.4C338.7,385.5,335,388.8,334.4,392.3z"/>
		<path class="st20" d="M335.1,302.9c-0.1,2.2-0.1,4.4-0.5,6.6c-0.1,0.7-1.1,1.2-1.7,1.8c-0.4-0.6-1.1-1.2-1.1-1.9
			c-0.2-1.7-0.1-3.5,0.2-5.2c0.2-0.9,1.4-1.6,2.1-2.4L335.1,302.9z"/>
		<path class="st20" d="M337.9,326.7c0.9,5.7-0.3,9.6-3,9.6C334.3,330.3,335.3,327.1,337.9,326.7z"/>
		<path class="st20" d="M337.9,397.8c-2.9-4.3,0.4-7.6,0.5-11.5C341.3,388.7,341.1,391.2,337.9,397.8z"/>
		<path class="st20" d="M349.1,313.9c-3-1.7-3.3-2.9-2.2-9.8C350,305.5,350,305.5,349.1,313.9z"/>
		<path class="st20" d="M340.8,367.3c-3.7-3.3-0.2-6.7,0.2-10.1C344.4,360.5,341.3,363.9,340.8,367.3z"/>
		<path class="st20" d="M340.5,327.1c3.1,1.1,3.3,3.5,0.7,11.5C338.2,334.3,340.6,330.7,340.5,327.1z"/>
		<path class="st20" d="M323.1,387.5c0.8-2.9,1.5-5.5,2.3-8c0.2-0.5,0.7-0.9,1.2-1.1c0.3-0.1,1.2,0.5,1.1,0.6
			c-0.9,2.9-1.9,5.9-2.9,8.8C324.3,387.7,323.7,387.6,323.1,387.5z"/>
		<path class="st20" d="M339.7,306.3c0.1,0.4,0.1,0.7,0,1.1c-0.5,1.1-1,2.1-1.5,3.1c-0.6-1-1-2.1-1.4-3.2c-0.2-1.2-0.2-2.5,0-3.7
			c0.2-0.8,1-1.4,1.5-2c0.5,0.6,1,1.3,1.3,2.1C339.9,304.6,339.9,305.5,339.7,306.3L339.7,306.3z"/>
		<path class="st14" d="M345.5,329.5c3.8,3.4,0.5,7.3,0.4,10.9C342.5,337,345.6,333.1,345.5,329.5z"/>
		<path class="st20" d="M342.3,302.4c2.9,0.3,3.4,2.3,1.8,8.5C341.5,310.3,341.3,309,342.3,302.4z"/>
		<path class="st20" d="M329.6,389.3c-0.5-0.7-1.5-1.6-1.3-2.2c0.4-2.2,1-4.3,1.8-6.4c0.2-0.5,1-0.8,1.5-1.1c0.3,0.6,1,1.2,0.9,1.8
			c-0.5,2.5-1.2,5-1.9,7.5L329.6,389.3z"/>
		<path class="st14" d="M334,355.1c-0.6,2.5-1,4.5-1.6,6.4c-0.2,0.6-1,1-1.6,1.5c-0.3-0.7-0.9-1.4-0.8-2.1c0.3-2,0.7-3.9,1.2-5.8
			c0.2-0.6,1-1.1,1.5-1.7L334,355.1z"/>
		<path class="st14" d="M336.1,364.9c-3.2-3.6,0.2-6.7-0.1-9.9C339,355.3,339,358.5,336.1,364.9z"/>
		<path class="st14" d="M333.4,327c-0.8,3.6,0.3,7.2-2.8,10.3C329.3,332,330.3,327.8,333.4,327z"/>
		<path class="st20" d="M329.5,353.4c-0.8,3.2-1.7,6.4-2.5,9.5l-1.6-0.5c0.5-3.3,0.2-6.9,2.6-9.6L329.5,353.4z"/>
		<path class="st20" d="M318.9,387.1l2.8-9.1l1.6,0.5c-0.8,3.1-0.7,6.5-3.2,9L318.9,387.1z"/>
		<path class="st20" d="M345.5,361.2c1.9,3.8-0.5,7-0.6,10.6C342.6,369.6,342.9,365.3,345.5,361.2z"/>
		<path class="st20" d="M320.9,362.7c1-3.1,0.3-6.8,2.9-9.4l1.1,0.3c-0.8,3.2-1.5,6.4-2.3,9.5L320.9,362.7z"/>
		<path class="st20" d="M350.9,333.5l-1,10.5l-1.3-0.1c-0.9-3.5,0.5-7,0.9-10.5L350.9,333.5z"/>
		<path class="st20" d="M325.6,337.3c-0.4-3.1,0.1-6.2,1.3-9l1.6,0.3l-1.4,9L325.6,337.3z"/>
		<path class="st20" d="M327.6,312.6l0.7-8.5l1.6,0.1l-0.5,8.5L327.6,312.6z"/>
		<path class="st20" d="M319,379.3l-2.5,8.5l-1.5-0.4l2.3-8.7L319,379.3z"/>
		<path class="st20" d="M351.8,317v-8.4l0.9-0.1v8.3L351.8,317z"/>
		<path class="st13" d="M60.9,301.3c-9.8-4.6-18-3-26.3,4.1c0-6.8-0.6-12.7,0.2-18.4c0.8-5.5,8.8-9,16-7.9c5.5,0.9,8.7,4.1,9.3,9.7
			C60.5,292.6,60.6,296.5,60.9,301.3z"/>
		<path class="st17" d="M79.3,404.5c-10.5-2.1-18,1.6-23.5,9.6c-4.2-6.2-4.7-12.3-1.4-16.7c4.6-6.1,12.5-8.8,19.2-6.5
			c0.9,0.3,1.7,1,2.1,1.9C76.9,396.4,77.9,400.1,79.3,404.5z"/>
		<path class="st17" d="M41.4,358.7c-0.6-3.3-1.2-6.1-1.6-8.8c-0.1-0.7,0.1-1.5,0.5-2.1c4.3-5.3,9.5-8.9,16.6-8.7
			c6.6,0.2,8.5,3,8,11.1C55.9,349,48,351.3,41.4,358.7z"/>
		<path class="st14" d="M66,427.3c-3.4-0.3-6.6-1-8.2-4.6s-0.7-6.6,1.6-9.4c3.5-4.2,8.6-6.6,14.1-6.7c3.6-0.1,6.6,1.2,8.2,4.7
			c1.6,3.4,0.7,6.4-1.5,9C76.5,424.8,71.7,426.8,66,427.3z M66.9,424.2c3.4-2,6.5-3.4,9-5.5c1.1-0.9,1.6-3.7,1-4.9s-3.1-2.7-4.4-2.4
			c-3.2,0.8-6.2,2.1-8.9,4c-1.1,0.8-1.8,3.5-1.3,4.8S64.9,422.5,66.9,424.2z"/>
		<path class="st17" d="M70.9,375.9c-10-1.8-17.9,0.6-23.8,8.6c-2.4-5.3-3-9.9,2-13.9c5.5-4.5,11.5-6.3,18.5-4.4
			c0.7,0.4,1.3,1,1.5,1.8C69.7,370.4,70.2,372.8,70.9,375.9z"/>
		<path class="st17" d="M37.7,329.8c-3-7.7,1.8-14.2,10.8-15.5c0.7-0.1,1.5-0.1,2.2-0.1c8.4,0,10.5,2,11.2,11
			C53,322.3,44.8,323.4,37.7,329.8z"/>
		<path class="st20" d="M46.9,337.9c-1.7-9.4-1.7-9.4,0.8-10.5C49.9,332.8,49.7,336.6,46.9,337.9z"/>
		<path class="st20" d="M53.3,336.5c-3.6-2.2-1.6-6.4-3.2-9.5C53.3,326.5,54.3,329.3,53.3,336.5z"/>
		<path class="st20" d="M43,329.5c0.4,3.7,3.3,7.4,0.1,11C42.5,336.8,39.9,333.2,43,329.5z"/>
		<path class="st14" d="M54.3,392.5c-0.2-3.5-4.5-6.9-0.5-10.6C54.3,385.4,58.3,388.7,54.3,392.5z"/>
		<path class="st20" d="M50.2,398.4c-0.1-4.5-3.8-8-0.4-11.9C50.3,390.2,54.1,393.6,50.2,398.4z"/>
		<path class="st20" d="M47.3,367.5c0.2-3.6-3-7,0.1-11C50.4,362.7,50.4,365.8,47.3,367.5z"/>
		<path class="st20" d="M61.9,377.9c0.6,0.5,1.3,0.9,1.4,1.3c0.7,2.4,1.3,4.8,1.9,7.2c0,0.5-0.2,0.9-0.7,1.1c-0.5,0.1-1.5,0-1.6-0.3
			c-0.8-2.6-1.6-5.2-2.2-7.8C60.7,379,61.4,378.5,61.9,377.9z"/>
		<path class="st20" d="M51.7,353.6c2.8,6.1,2.9,9.3,0.2,11.1C51.9,361.1,48.9,357.8,51.7,353.6z"/>
		<path class="st20" d="M52.5,305.9c-0.8,1.8-1.4,4.4-1.9,4.4c-3.1-0.2-1.5-2.8-1.6-4.3s0.7-2.9,1.2-4.4L52.5,305.9z"/>
		<path class="st20" d="M59.4,363.5c-1.5-0.8-2.8-1.1-3-1.7c-0.7-2.2-1.2-4.5-1.5-6.8c-0.1-0.5,0.6-1.1,0.9-1.7
			c0.6,0.5,1.2,0.9,1.8,1.3c0.1,0.1,0.1,0.2,0.1,0.4C58.1,357.4,58.6,359.8,59.4,363.5z"/>
		<path class="st20" d="M56,326.3c4,3,1.7,7.1,3.4,10.1C56.1,336.4,55,332.8,56,326.3z"/>
		<path class="st20" d="M44.1,310.9c0-2.3-0.1-4.7,0.1-7c0-0.6,0.9-1.2,1.4-1.8c0.5,0.6,1.3,1.1,1.4,1.7c0.3,1.7,0.3,3.4,0.1,5.2
			c-0.1,0.9-1.1,1.6-1.7,2.5L44.1,310.9z"/>
		<path class="st14" d="M56.5,312c-4.2-2.7-1.8-6.5-2.8-9.3C57.2,302.9,57.5,303.9,56.5,312z"/>
		<path class="st20" d="M58.8,390.3c-1-3.6-1.8-6.1-2.4-8.6c-0.1-0.6,0.5-1.5,0.7-2.2c0.6,0.5,1.5,0.8,1.7,1.4c0.8,2,1.3,4,1.7,6.1
			C60.6,387.7,59.7,388.5,58.8,390.3z"/>
		<path class="st20" d="M40.1,314.1c-1.8-6.7-1.5-8.4,2-10.4C41.3,307.3,43.7,310.9,40.1,314.1z"/>
		<path class="st20" d="M59.7,353.1c2.5,0.6,3.1,2.2,3.4,9.3C60.9,361.9,60,359.5,59.7,353.1z"/>
		<path class="st20" d="M43.9,361c2.1,8.4,2.1,8.4,0.4,10.5C42.2,366.6,42,363.4,43.9,361z"/>
		<path class="st20" d="M63.3,338.3c-3.9-3.1-1.9-6.8-3.5-10.2C62.8,329.6,62.8,329.6,63.3,338.3z"/>
		<path class="st20" d="M66.1,363.1c-0.8-3.1-1.5-6.2-2.3-9.5C66.7,354.3,68,358.5,66.1,363.1z"/>
		<path class="st20" d="M67.9,387.7l-2.8-9.2c2.7,0.6,4.2,4.2,4,8.9L67.9,387.7z"/>
		<path class="st20" d="M38.9,344c-0.4-3.5-0.8-7-1.2-10.4l1.6-0.1l1.2,10.5L38.9,344z"/>
		<path class="st20" d="M37,308.6v8.4h-1.1v-8.5L37,308.6z"/>
		<path class="st20" d="M72.3,387.8l-2.4-8.5c3.3,2,3.1,5.3,3.9,8.1L72.3,387.8z"/>
		<path class="st21" d="M310.7,298.8c-1.3,64.5-18.2,124.1-55.5,177.3c-15.8,22.6-35.3,42.3-57.7,58.4c-2.3,1.7-3.8,1.7-6.1,0
			C148.4,503.4,118.9,462,99.8,413C87.2,380.5,80,346.3,78.5,311.6c-1.3-26.6,0.8-52.7,9.3-78c7.2-21.6,18.7-40.3,38-53.3
			c11.5-7.7,23.8-10.7,37.7-6.8c8.9,2.4,18.1,4,27.3,4.7c10.8,1,21.6-0.8,31.8-4c18.9-6,34.3-0.1,48.3,12.2
			c18,15.8,27.8,36.3,33.5,59C308.7,262.9,310.8,280.8,310.7,298.8z M226.9,487.6c2.6-0.4,5.5,1.8,6.5-2.8
			c11.6-53,23.3-106,35.1-159c5.5-24.8,11-49.7,16.5-74.5c1-4.7,3.3-6.6,8-6.9c0.8-0.1,1.6-0.1,2.4-0.2v-11.5H257v11.1
			c10.6,0.3,13,3.5,10.7,13.8c-0.1,0.2-0.1,0.5-0.2,0.7l-26,112.3l-6.4,27.5c-0.5-2.2-0.9-3.4-1.1-4.6
			c-12.4-59.1-24.7-118.2-36.9-177.3c-0.8-3.8-2.3-4.9-6.1-3.5c-9.4,60.7-18.9,121.6-28.5,183.6c-0.6-2.1-1-3.2-1.2-4.3
			c-8.2-35.2-16.5-70.4-24.7-105.7c-2.4-10.3-5.1-20.6-7-31c-1.5-7.8,1.9-12.6,9.1-11.7c0.2,0,0.4-0.3,0.5-0.4v-10.5H96v10.9
			c4.6,1,7.8,3.2,8.9,8.1c16.5,71.2,33,142.4,49.6,213.6c1.7,7.5,3.6,15,5.3,22.3h6.7c8.8-57.4,17.5-114.7,26.3-172h0.6
			C204.6,372.7,215.6,429.9,226.9,487.6z"/>
		<path class="st13" d="M194.4,42.4c-4.5-8.2-10.2-14.3-18.7-17c2.5-9.2,6.7-9.8,18.7-2.6c10.8-8,16.3-7.3,18.5,2.6
			C204.5,28.2,199,34.3,194.4,42.4z"/>
		<path class="st14" d="M257.5,108.9h4.8v9.4h-4.8V108.9z"/>
		<path class="st14" d="M264.4,124c-1.1,0.9-2.5,2.7-3.4,2.5c-1.5-0.3-2.6-2-4.7-3.7h7.5L264.4,124z"/>
		<path class="st14" d="M264.3,104.3h-7.8c1.9-1.7,3-3.6,4.2-3.6c1.4,0,2.8,1.6,4.2,2.5L264.3,104.3z"/>
		<path class="st14" d="M131.3,118.4h-4.9V109h5.3C131.5,112.1,131.4,115.2,131.3,118.4z"/>
		<path class="st14" d="M124.1,103.3c1.2-1,2.4-2.6,3.6-2.7c1.2,0,2.5,1.6,3.8,2.5l-0.4,0.9h-6.5L124.1,103.3z"/>
		<path class="st13" d="M124.8,123h7c-1.6,1.6-2.7,3.5-3.8,3.6s-2.5-1.6-3.8-2.5L124.8,123z"/>
		<path class="st9" d="M321.4,424c-3.2-1.9-6.3-3.3-8.7-5.4c-1.1-1.4-1.5-3.2-1-4.9c0.6-1.3,3.1-2.8,4.4-2.5c3.2,0.8,6.2,2.1,8.9,4
			c1.1,0.8,1.8,3.7,1.2,5.2S323.5,422.6,321.4,424z"/>
		<path class="st9" d="M66.9,424.2c-2-1.6-4.1-2.6-4.6-4s0.2-4,1.3-4.8c2.7-1.9,5.7-3.2,8.9-4c1.3-0.3,3.8,1.1,4.4,2.4s0.1,4-1,4.9
			C73.4,420.8,70.3,422.3,66.9,424.2z"/>
		<path class="st22" d="M226.9,487.6c-11.2-57.7-22.3-114.9-33.4-172h-0.6c-8.7,57.3-17.5,114.6-26.3,172h-6.7
			c-1.8-7.4-3.6-14.9-5.3-22.3C138,394,121.5,322.8,105,251.6c-1.1-4.9-4.3-7-8.9-8.1v-10.9h43.2v10.5c-0.2,0.1-0.4,0.4-0.5,0.4
			c-7.2-0.9-10.6,3.9-9.1,11.7c2,10.4,4.6,20.7,7,31c8.2,35.2,16.4,70.4,24.7,105.7c0.3,1.1,0.6,2.1,1.2,4.3
			c9.6-62,19.1-122.8,28.5-183.6c3.8-1.4,5.3-0.3,6.1,3.5c12.2,59.1,24.5,118.2,36.9,177.3c0.3,1.2,0.6,2.4,1.1,4.6l6.4-27.5
			l26-112.3c0.1-0.3,0.1-0.5,0.2-0.7c2.3-10.2-0.1-13.4-10.7-13.8v-11.1h38.4v11.5c-0.8,0.1-1.6,0.2-2.4,0.2c-4.7,0.3-7,2.2-8,6.9
			c-5.5,24.8-11,49.7-16.5,74.5c-11.7,53-23.4,106-35.1,159C232.4,489.4,229.5,487.1,226.9,487.6z"/>
	</g>
</g>
</svg>
