<?xml version="1.0" encoding="UTF-8"?>
<!DOCTYPE svg PUBLIC "-//W3C//DTD SVG 1.1//EN" "http://www.w3.org/Graphics/SVG/1.1/DTD/svg11.dtd">
<svg version="1.1" xmlns="http://www.w3.org/2000/svg" xmlns:xlink="http://www.w3.org/1999/xlink" x="0" y="0" width="280" height="120" viewBox="0, 0, 280, 120">
  <defs>
    <radialGradient id="Gradient_1" gradientUnits="userSpaceOnUse" cx="35.837" cy="60" r="37.126">
      <stop offset="0" stop-color="#FFFFFE"/>
      <stop offset="0.25" stop-color="#FFFFFE"/>
      <stop offset="0.84" stop-color="#C9AF86"/>
      <stop offset="1" stop-color="#C9AF86"/>
    </radialGradient>
    <clipPath id="Clip_1">
      <path d="M35.841,15.288 C39.592,15.288 40.494,18.896 40.504,18.934 L40.55,19.127 L40.744,19.154 C42.132,19.35 43.978,20.398 44.703,21.877 C44.723,22.132 44.992,22.14 45.083,22.142 C49.209,22.201 53.015,24.03 56.094,27.431 C57.787,29.282 59.247,31.609 60.434,34.35 L60.673,34.919 C62.165,38.53 63.159,42.705 63.625,47.325 C65.95,70.348 55.624,99.037 37.091,103.394 L36.98,103.42 L36.916,103.515 C36.493,104.155 36.004,104.666 35.837,104.712 C35.67,104.667 35.181,104.155 34.759,103.515 L34.695,103.42 L34.584,103.394 C16.049,99.037 5.723,70.348 8.05,47.325 C8.319,44.666 8.76,42.163 9.364,39.845 C9.982,37.473 10.782,35.256 11.741,33.256 C12.812,31.022 14.104,29.062 15.581,27.431 C18.66,24.03 22.467,22.201 26.588,22.142 C26.683,22.14 26.95,22.132 26.973,21.882 C27.694,20.4 29.551,19.365 30.937,19.17 L31.131,19.143 L31.178,18.952 C31.217,18.796 32.099,15.288 35.841,15.288 z"/>
    </clipPath>
    <clipPath id="Clip_2">
      <path d="M7.5,15 L272.5,15 L272.5,105 L7.5,105 z"/>
    </clipPath>
  </defs>
  <g id="UW-Madison">
    <g id="color-flush-UWlogo-print">
      <path d="M99.313,49.293 C102.412,50.414 101.1,53.78 100.386,56.147 L95.896,71.348 L90.375,53.363 C89.818,51.538 89.545,50.209 89.779,49.17 L84.177,49.17 L84.177,49.293 C86.364,50.458 85.571,53.156 84.814,55.69 L80.164,71.475 L74.248,52.16 C74.01,51.369 73.613,50.083 73.772,49.17 L67.972,49.17 L67.972,49.293 C69.958,50.705 70.556,53.407 71.27,55.69 L75.958,71.016 C77.267,75.296 77.625,75.005 81.237,77.745 L87.436,56.769 L91.803,71.058 C93.117,75.336 93.395,75.128 97.049,77.745 L105.429,49.17 L99.313,49.17 L99.313,49.293" fill="#BC1F41"/>
      <path d="M106.78,49.293 C108.806,50.083 108.527,53.115 108.527,55.027 L108.527,70.683 C108.527,72.55 108.764,75.627 106.78,76.374 L106.78,76.499 L114.327,76.499 L114.327,76.374 C112.342,75.584 112.578,72.55 112.578,70.683 L112.578,55.027 C112.578,53.156 112.342,50.083 114.327,49.293 L114.327,49.17 L106.78,49.17 L106.78,49.293" fill="#BC1F41"/>
      <path d="M121.276,55.276 C121.276,52.411 124.139,51.497 126.402,51.497 C128.628,51.497 131.09,52.451 132.64,54.112 L132.64,49.418 C130.73,48.795 128.707,48.503 126.72,48.503 C121.874,48.503 116.75,50.502 116.75,55.731 C116.75,64.538 130.412,63.375 130.412,69.854 C130.412,72.761 127,74.171 124.735,74.171 C121.636,74.171 118.377,72.843 116.035,70.726 L117.188,75.917 C119.452,76.79 121.874,77.164 124.296,77.164 C130.496,77.164 134.943,73.008 134.943,68.567 C134.943,60.882 121.276,60.964 121.276,55.276" fill="#BC1F41"/>
      <path d="M151.044,73.719 C144.926,73.719 140.952,68.275 140.952,62.171 C140.952,56.147 144.766,51.953 150.248,51.953 C152.868,51.953 155.414,52.866 157.598,54.32 L157.598,49.544 C155.252,48.963 152.79,48.503 150.37,48.503 C142.225,48.503 136.424,54.195 136.424,62.794 C136.424,71.683 142.225,77.164 151.601,77.164 C153.665,77.164 155.729,76.834 157.598,75.917 L159.624,71.101 L159.503,71.101 C157.001,72.594 154.023,73.719 151.044,73.719" fill="#BC1F41"/>
      <path d="M173.752,74.171 C167.517,74.171 163.582,68.192 163.582,62.376 C163.582,56.103 167.517,51.453 173.674,51.453 C179.946,51.453 183.641,57.31 183.641,63.375 C183.641,69.564 179.788,74.171 173.752,74.171 z M173.949,48.466 C165.61,48.255 159.054,54.859 159.054,62.75 C159.054,71.268 165.689,77.164 173.554,77.164 C181.459,77.164 188.167,71.016 188.167,62.541 C188.167,55.07 182.293,48.422 173.949,48.466" fill="#BC1F41"/>
      <path d="M208.574,49.293 C210.68,50.541 210.641,52.203 210.641,54.527 L210.641,70.271 L196.102,51.082 L195.544,50.251 C195.267,49.917 195.105,49.711 194.949,49.21 L194.949,49.17 L189.152,49.17 L189.152,49.293 C191.216,50.541 191.216,52.203 191.216,54.527 L191.216,71.101 C191.216,73.425 191.216,75.084 189.111,76.374 L189.111,76.499 L196.142,76.499 L196.142,76.374 C194.036,75.084 194.076,73.425 194.076,71.101 L194.076,55.027 L207.701,73.091 C209.448,75.461 210.68,76.834 213.499,77.83 L213.499,54.527 C213.499,52.203 213.499,50.541 215.565,49.293 L215.565,49.17 L208.574,49.17 L208.574,49.293" fill="#BC1F41"/>
      <path d="M221.377,55.276 C221.377,52.411 224.237,51.497 226.502,51.497 C228.727,51.497 231.191,52.451 232.738,54.112 L232.738,49.418 C230.833,48.795 228.807,48.503 226.818,48.503 C221.977,48.503 216.85,50.502 216.85,55.731 C216.85,64.538 230.512,63.375 230.512,69.854 C230.512,72.761 227.097,74.171 224.831,74.171 C221.734,74.171 218.48,72.843 216.133,70.726 L217.286,75.917 C219.55,76.79 221.977,77.164 224.399,77.164 C230.592,77.164 235.042,73.008 235.042,68.567 C235.042,60.882 221.377,60.964 221.377,55.276" fill="#BC1F41"/>
      <path d="M236.54,49.293 C238.564,50.083 238.288,53.115 238.288,55.027 L238.288,70.683 C238.288,72.55 238.528,75.627 236.54,76.374 L236.54,76.499 L244.085,76.499 L244.085,76.374 C242.097,75.584 242.339,72.55 242.339,70.683 L242.339,55.027 C242.339,53.156 242.097,50.083 244.085,49.293 L244.085,49.17 L236.54,49.17 L236.54,49.293" fill="#BC1F41"/>
      <path d="M265.509,49.17 L265.509,49.293 C267.619,50.541 267.578,52.203 267.578,54.527 L267.578,70.271 L253.037,51.082 L252.48,50.251 C252.205,49.917 252.046,49.711 251.884,49.21 L251.884,49.17 L246.084,49.17 L246.084,49.293 C248.149,50.541 248.149,52.203 248.149,54.527 L248.149,71.101 C248.149,73.425 248.149,75.084 246.046,76.374 L246.046,76.499 L253.078,76.499 L253.078,76.374 C250.972,75.084 251.013,73.425 251.013,71.101 L251.013,55.027 L264.636,73.091 C266.382,75.461 267.619,76.834 270.435,77.83 L270.435,54.527 C270.435,52.203 270.435,50.541 272.5,49.293 L272.5,49.17 L265.509,49.17" fill="#BC1F41"/>
      <path d="M79.144,88.31 C79.433,88.31 79.693,88.259 79.922,88.161 C80.151,88.063 80.345,87.924 80.504,87.745 C80.661,87.568 80.783,87.355 80.868,87.108 C80.951,86.862 80.993,86.59 80.993,86.29 L80.993,81.861 L82.066,81.861 L82.066,86.29 C82.066,86.718 81.998,87.115 81.864,87.478 C81.729,87.842 81.534,88.156 81.282,88.421 C81.029,88.686 80.723,88.893 80.361,89.043 C80.001,89.192 79.595,89.267 79.144,89.267 C78.692,89.267 78.286,89.192 77.925,89.043 C77.564,88.893 77.258,88.686 77.005,88.421 C76.752,88.156 76.558,87.842 76.423,87.478 C76.289,87.115 76.222,86.718 76.222,86.29 L76.222,81.861 L77.298,81.861 L77.298,86.285 C77.298,86.584 77.34,86.858 77.422,87.106 C77.504,87.354 77.625,87.568 77.784,87.745 C77.942,87.924 78.136,88.063 78.365,88.161 C78.594,88.259 78.854,88.31 79.144,88.31" fill="#1A1919"/>
      <path d="M89.962,81.861 L89.962,89.18 L89.417,89.18 C89.332,89.18 89.262,89.165 89.207,89.135 C89.151,89.104 89.095,89.055 89.037,88.987 L84.937,83.64 C84.944,83.732 84.95,83.821 84.955,83.91 C84.961,83.999 84.963,84.082 84.963,84.16 L84.963,89.18 L84.018,89.18 L84.018,81.861 L84.573,81.861 C84.668,81.861 84.739,81.872 84.786,81.894 C84.833,81.916 84.885,81.966 84.942,82.044 L89.053,87.396 C89.043,87.298 89.035,87.202 89.03,87.108 C89.026,87.015 89.023,86.927 89.023,86.846 L89.023,81.861 L89.962,81.861" fill="#1A1919"/>
      <path d="M92.041,81.861 L93.122,81.861 L93.122,89.18 L92.041,89.18 z" fill="#1A1919"/>
      <path d="M101.181,81.861 L98.228,89.18 L97.262,89.18 L94.31,81.861 L95.169,81.861 C95.264,81.861 95.34,81.884 95.4,81.932 C95.459,81.98 95.503,82.041 95.533,82.116 L97.495,87.091 C97.542,87.213 97.588,87.347 97.633,87.493 C97.679,87.64 97.721,87.793 97.757,87.952 C97.791,87.793 97.828,87.64 97.869,87.493 C97.909,87.347 97.953,87.213 98,87.091 L99.957,82.116 C99.98,82.048 100.023,81.988 100.086,81.937 C100.148,81.886 100.224,81.861 100.315,81.861 L101.181,81.861" fill="#1A1919"/>
      <path d="M106.866,88.299 L106.861,89.18 L102.362,89.18 L102.362,81.861 L106.861,81.861 L106.861,82.743 L103.444,82.743 L103.444,85.063 L106.194,85.063 L106.194,85.913 L103.444,85.913 L103.444,88.299 L106.866,88.299" fill="#1A1919"/>
      <path d="M110.537,85.388 C110.812,85.388 111.056,85.355 111.267,85.286 C111.477,85.218 111.654,85.122 111.795,84.999 C111.937,84.875 112.043,84.727 112.113,84.554 C112.185,84.383 112.22,84.194 112.22,83.986 C112.22,83.565 112.082,83.247 111.808,83.033 C111.533,82.819 111.121,82.712 110.571,82.712 L109.555,82.712 L109.555,85.388 L110.537,85.388 z M113.924,89.18 L112.963,89.18 C112.77,89.18 112.631,89.104 112.544,88.951 L110.749,86.413 C110.692,86.328 110.629,86.268 110.562,86.232 C110.494,86.196 110.393,86.178 110.259,86.178 L109.555,86.178 L109.555,89.18 L108.479,89.18 L108.479,81.861 L110.571,81.861 C111.04,81.861 111.444,81.909 111.782,82.006 C112.121,82.103 112.401,82.241 112.622,82.419 C112.843,82.598 113.006,82.813 113.112,83.064 C113.219,83.315 113.271,83.598 113.271,83.91 C113.271,84.165 113.232,84.404 113.155,84.629 C113.077,84.853 112.964,85.055 112.814,85.233 C112.664,85.411 112.481,85.565 112.265,85.694 C112.05,85.823 111.805,85.922 111.532,85.99 C111.667,86.071 111.783,86.185 111.881,86.331 L113.924,89.18" fill="#1A1919"/>
      <path d="M118.915,83.054 C118.882,83.112 118.847,83.153 118.81,83.181 C118.772,83.209 118.725,83.222 118.668,83.222 C118.607,83.222 118.538,83.193 118.46,83.138 C118.383,83.082 118.286,83.019 118.17,82.949 C118.054,82.88 117.914,82.817 117.753,82.76 C117.591,82.704 117.398,82.676 117.172,82.676 C116.96,82.676 116.773,82.704 116.614,82.76 C116.453,82.817 116.319,82.893 116.212,82.99 C116.104,83.087 116.022,83.201 115.966,83.332 C115.91,83.462 115.883,83.604 115.883,83.757 C115.883,83.954 115.932,84.117 116.032,84.246 C116.131,84.375 116.261,84.486 116.424,84.578 C116.586,84.669 116.769,84.75 116.975,84.817 C117.18,84.885 117.391,84.956 117.607,85.029 C117.823,85.102 118.033,85.186 118.239,85.281 C118.444,85.376 118.628,85.496 118.789,85.64 C118.951,85.785 119.082,85.962 119.181,86.171 C119.281,86.379 119.33,86.635 119.33,86.938 C119.33,87.26 119.276,87.563 119.166,87.845 C119.057,88.128 118.897,88.373 118.689,88.584 C118.48,88.795 118.222,88.961 117.917,89.081 C117.613,89.202 117.266,89.262 116.879,89.262 C116.646,89.262 116.42,89.239 116.201,89.193 C115.983,89.148 115.775,89.083 115.58,89 C115.384,88.917 115.201,88.816 115.031,88.699 C114.861,88.582 114.708,88.45 114.574,88.304 L114.881,87.784 C114.912,87.743 114.948,87.709 114.991,87.682 C115.032,87.655 115.081,87.641 115.135,87.641 C115.206,87.641 115.287,87.678 115.38,87.753 C115.473,87.827 115.587,87.911 115.723,88.001 C115.86,88.091 116.023,88.173 116.214,88.248 C116.404,88.323 116.636,88.36 116.909,88.36 C117.132,88.36 117.33,88.33 117.506,88.271 C117.68,88.211 117.828,88.127 117.948,88.015 C118.067,87.905 118.159,87.772 118.223,87.616 C118.287,87.46 118.32,87.286 118.32,87.096 C118.32,86.882 118.27,86.706 118.173,86.571 C118.075,86.435 117.945,86.321 117.784,86.229 C117.622,86.137 117.438,86.059 117.233,85.995 C117.027,85.931 116.816,85.863 116.601,85.793 C116.385,85.724 116.174,85.643 115.969,85.551 C115.763,85.459 115.58,85.339 115.417,85.192 C115.256,85.044 115.126,84.859 115.028,84.637 C114.931,84.414 114.881,84.139 114.881,83.813 C114.881,83.551 114.933,83.298 115.034,83.054 C115.135,82.809 115.282,82.593 115.476,82.403 C115.669,82.215 115.908,82.064 116.191,81.95 C116.474,81.836 116.798,81.779 117.161,81.779 C117.569,81.779 117.944,81.845 118.286,81.975 C118.629,82.106 118.926,82.294 119.178,82.539 L118.915,83.054" fill="#1A1919"/>
      <path d="M120.916,81.861 L121.998,81.861 L121.998,89.18 L120.916,89.18 z" fill="#1A1919"/>
      <path d="M128.939,82.768 L126.635,82.768 L126.635,89.18 L125.562,89.18 L125.562,82.768 L123.247,82.768 L123.247,81.861 L128.939,81.861 L128.939,82.768" fill="#1A1919"/>
      <path d="M133.348,86.285 L133.348,89.18 L132.275,89.18 L132.275,86.285 L129.617,81.861 L130.561,81.861 C130.656,81.861 130.732,81.883 130.79,81.93 C130.847,81.975 130.894,82.036 130.93,82.111 L132.508,84.848 C132.571,84.974 132.63,85.092 132.682,85.205 C132.734,85.317 132.781,85.427 132.821,85.536 C132.859,85.427 132.901,85.317 132.95,85.205 C132.999,85.092 133.055,84.974 133.119,84.848 L134.692,82.111 C134.725,82.049 134.772,81.993 134.83,81.939 C134.889,81.887 134.965,81.861 135.056,81.861 L136.006,81.861 L133.348,86.285" fill="#1A1919"/>
      <path d="M145.571,85.521 C145.571,85.086 145.511,84.695 145.394,84.348 C145.276,84.002 145.108,83.707 144.891,83.466 C144.673,83.225 144.411,83.04 144.102,82.911 C143.793,82.782 143.45,82.717 143.069,82.717 C142.688,82.717 142.343,82.782 142.035,82.911 C141.726,83.04 141.463,83.225 141.243,83.466 C141.024,83.707 140.855,84.002 140.738,84.348 C140.62,84.695 140.561,85.086 140.561,85.521 C140.561,85.959 140.62,86.351 140.738,86.696 C140.855,87.04 141.024,87.334 141.243,87.575 C141.463,87.817 141.726,88.001 142.035,88.128 C142.343,88.255 142.688,88.319 143.069,88.319 C143.45,88.319 143.793,88.255 144.102,88.128 C144.411,88.001 144.673,87.817 144.891,87.575 C145.108,87.334 145.276,87.04 145.394,86.696 C145.511,86.351 145.571,85.959 145.571,85.521 z M146.673,85.521 C146.673,86.067 146.586,86.57 146.412,87.027 C146.239,87.485 145.993,87.878 145.677,88.21 C145.36,88.541 144.981,88.798 144.54,88.982 C144.097,89.165 143.608,89.257 143.069,89.257 C142.532,89.257 142.043,89.165 141.599,88.982 C141.157,88.798 140.777,88.541 140.463,88.21 C140.148,87.878 139.902,87.485 139.727,87.027 C139.551,86.57 139.464,86.067 139.464,85.521 C139.464,84.977 139.551,84.476 139.727,84.017 C139.902,83.558 140.148,83.163 140.463,82.832 C140.777,82.501 141.157,82.242 141.599,82.057 C142.043,81.872 142.532,81.779 143.069,81.779 C143.608,81.779 144.097,81.872 144.54,82.057 C144.981,82.242 145.36,82.501 145.677,82.832 C145.993,83.163 146.239,83.558 146.412,84.017 C146.586,84.476 146.673,84.977 146.673,85.521" fill="#1A1919"/>
      <path d="M149.337,82.743 L149.337,85.194 L152.248,85.194 L152.248,86.076 L149.337,86.076 L149.337,89.18 L148.255,89.18 L148.255,81.861 L152.754,81.861 L152.754,82.743 L149.337,82.743" fill="#1A1919"/>
      <path d="M166.57,81.861 L164.305,89.18 L163.334,89.18 L161.565,83.752 C161.524,83.643 161.489,83.512 161.459,83.359 C161.422,83.515 161.386,83.646 161.353,83.752 L159.563,89.18 L158.597,89.18 L156.333,81.861 L157.232,81.861 C157.327,81.861 157.406,81.883 157.47,81.93 C157.534,81.975 157.576,82.038 157.597,82.116 L159.027,87.014 C159.054,87.11 159.078,87.213 159.101,87.325 C159.122,87.437 159.145,87.554 159.169,87.677 C159.192,87.554 159.217,87.437 159.242,87.325 C159.268,87.213 159.296,87.11 159.33,87.014 L160.969,82.116 C160.989,82.048 161.032,81.988 161.097,81.937 C161.163,81.886 161.242,81.861 161.333,81.861 L161.641,81.861 C161.735,81.861 161.813,81.884 161.874,81.932 C161.935,81.98 161.978,82.041 162.005,82.116 L163.638,87.014 C163.698,87.201 163.752,87.413 163.8,87.651 C163.84,87.417 163.884,87.205 163.931,87.014 L165.367,82.116 C165.383,82.048 165.426,81.988 165.493,81.937 C165.56,81.886 165.639,81.861 165.73,81.861 L166.57,81.861" fill="#1A1919"/>
      <path d="M167.811,81.861 L168.893,81.861 L168.893,89.18 L167.811,89.18 z" fill="#1A1919"/>
      <path d="M174.665,83.054 C174.633,83.112 174.597,83.153 174.56,83.181 C174.522,83.209 174.475,83.222 174.418,83.222 C174.358,83.222 174.288,83.193 174.211,83.138 C174.133,83.082 174.036,83.019 173.92,82.949 C173.804,82.88 173.665,82.817 173.503,82.76 C173.342,82.704 173.148,82.676 172.922,82.676 C172.71,82.676 172.523,82.704 172.364,82.76 C172.203,82.817 172.07,82.893 171.961,82.99 C171.854,83.087 171.772,83.201 171.717,83.332 C171.66,83.462 171.633,83.604 171.633,83.757 C171.633,83.954 171.683,84.117 171.782,84.246 C171.881,84.375 172.012,84.486 172.174,84.578 C172.336,84.669 172.519,84.75 172.725,84.817 C172.93,84.885 173.141,84.956 173.357,85.029 C173.573,85.102 173.783,85.186 173.989,85.281 C174.194,85.376 174.378,85.496 174.54,85.64 C174.701,85.785 174.832,85.962 174.932,86.171 C175.031,86.379 175.081,86.635 175.081,86.938 C175.081,87.26 175.026,87.563 174.916,87.845 C174.807,88.128 174.647,88.373 174.439,88.584 C174.23,88.795 173.973,88.961 173.668,89.081 C173.363,89.202 173.016,89.262 172.629,89.262 C172.396,89.262 172.17,89.239 171.951,89.193 C171.733,89.148 171.525,89.083 171.33,89 C171.134,88.917 170.951,88.816 170.781,88.699 C170.611,88.582 170.458,88.45 170.324,88.304 L170.632,87.784 C170.662,87.743 170.698,87.709 170.741,87.682 C170.783,87.655 170.831,87.641 170.885,87.641 C170.955,87.641 171.037,87.678 171.13,87.753 C171.223,87.827 171.337,87.911 171.474,88.001 C171.61,88.091 171.774,88.173 171.964,88.248 C172.154,88.323 172.386,88.36 172.659,88.36 C172.882,88.36 173.08,88.33 173.256,88.271 C173.431,88.211 173.578,88.127 173.698,88.015 C173.817,87.905 173.91,87.772 173.973,87.616 C174.037,87.46 174.07,87.286 174.07,87.096 C174.07,86.882 174.02,86.706 173.923,86.571 C173.825,86.435 173.695,86.321 173.534,86.229 C173.372,86.137 173.188,86.059 172.983,85.995 C172.777,85.931 172.566,85.863 172.351,85.793 C172.135,85.724 171.925,85.643 171.719,85.551 C171.513,85.459 171.33,85.339 171.168,85.192 C171.006,85.044 170.876,84.859 170.779,84.637 C170.681,84.414 170.632,84.139 170.632,83.813 C170.632,83.551 170.682,83.298 170.784,83.054 C170.885,82.809 171.032,82.593 171.226,82.403 C171.419,82.215 171.658,82.064 171.941,81.95 C172.224,81.836 172.548,81.779 172.912,81.779 C173.319,81.779 173.695,81.845 174.036,81.975 C174.379,82.106 174.676,82.294 174.929,82.539 L174.665,83.054" fill="#1A1919"/>
      <path d="M181.714,87.611 C181.775,87.611 181.827,87.635 181.871,87.682 L182.295,88.151 C181.999,88.504 181.637,88.778 181.211,88.971 C180.784,89.165 180.272,89.262 179.672,89.262 C179.147,89.262 178.67,89.17 178.244,88.987 C177.818,88.803 177.454,88.547 177.152,88.217 C176.85,87.887 176.617,87.493 176.451,87.035 C176.287,86.576 176.204,86.071 176.204,85.521 C176.204,84.97 176.29,84.466 176.464,84.007 C176.638,83.548 176.882,83.153 177.194,82.824 C177.508,82.494 177.883,82.238 178.32,82.055 C178.757,81.871 179.239,81.779 179.768,81.779 C180.284,81.779 180.742,81.864 181.143,82.034 C181.544,82.205 181.892,82.43 182.189,82.712 L181.835,83.217 C181.812,83.254 181.783,83.284 181.747,83.308 C181.712,83.332 181.665,83.344 181.608,83.344 C181.544,83.344 181.469,83.312 181.383,83.247 C181.297,83.182 181.185,83.11 181.044,83.031 C180.904,82.951 180.732,82.878 180.527,82.814 C180.321,82.75 180.064,82.717 179.757,82.717 C179.397,82.717 179.067,82.781 178.767,82.908 C178.467,83.035 178.208,83.219 177.991,83.458 C177.774,83.698 177.605,83.992 177.485,84.34 C177.366,84.689 177.306,85.082 177.306,85.521 C177.306,85.966 177.368,86.362 177.493,86.708 C177.618,87.055 177.79,87.349 178.008,87.59 C178.228,87.831 178.486,88.015 178.783,88.141 C179.079,88.267 179.399,88.329 179.743,88.329 C179.952,88.329 180.14,88.316 180.306,88.291 C180.473,88.266 180.626,88.227 180.766,88.176 C180.906,88.125 181.039,88.061 181.164,87.98 C181.288,87.9 181.411,87.804 181.532,87.692 C181.559,87.669 181.588,87.648 181.618,87.634 C181.648,87.618 181.68,87.611 181.714,87.611" fill="#1A1919"/>
      <path d="M189.117,85.521 C189.117,85.086 189.058,84.695 188.94,84.348 C188.822,84.002 188.655,83.707 188.437,83.466 C188.219,83.225 187.957,83.04 187.649,82.911 C187.34,82.782 186.996,82.717 186.615,82.717 C186.234,82.717 185.89,82.782 185.581,82.911 C185.273,83.04 185.009,83.225 184.79,83.466 C184.57,83.707 184.402,84.002 184.284,84.348 C184.166,84.695 184.107,85.086 184.107,85.521 C184.107,85.959 184.166,86.351 184.284,86.696 C184.402,87.04 184.57,87.334 184.79,87.575 C185.009,87.817 185.273,88.001 185.581,88.128 C185.89,88.255 186.234,88.319 186.615,88.319 C186.996,88.319 187.34,88.255 187.649,88.128 C187.957,88.001 188.219,87.817 188.437,87.575 C188.655,87.334 188.822,87.04 188.94,86.696 C189.058,86.351 189.117,85.959 189.117,85.521 z M190.219,85.521 C190.219,86.067 190.132,86.57 189.958,87.027 C189.785,87.485 189.539,87.878 189.223,88.21 C188.906,88.541 188.528,88.798 188.086,88.982 C187.644,89.165 187.153,89.257 186.615,89.257 C186.079,89.257 185.589,89.165 185.146,88.982 C184.703,88.798 184.324,88.541 184.009,88.21 C183.693,87.878 183.449,87.485 183.273,87.027 C183.098,86.57 183.01,86.067 183.01,85.521 C183.01,84.977 183.098,84.476 183.273,84.017 C183.449,83.558 183.693,83.163 184.009,82.832 C184.324,82.501 184.703,82.242 185.146,82.057 C185.589,81.872 186.079,81.779 186.615,81.779 C187.153,81.779 187.644,81.872 188.086,82.057 C188.528,82.242 188.906,82.501 189.223,82.832 C189.539,83.163 189.785,83.558 189.958,84.017 C190.132,84.476 190.219,84.977 190.219,85.521" fill="#1A1919"/>
      <path d="M197.715,81.861 L197.715,89.18 L197.17,89.18 C197.086,89.18 197.016,89.165 196.961,89.135 C196.904,89.104 196.848,89.055 196.79,88.987 L192.69,83.64 C192.698,83.732 192.703,83.821 192.708,83.91 C192.714,83.999 192.716,84.082 192.716,84.16 L192.716,89.18 L191.771,89.18 L191.771,81.861 L192.327,81.861 C192.421,81.861 192.492,81.872 192.539,81.894 C192.586,81.916 192.638,81.966 192.695,82.044 L196.806,87.396 C196.796,87.298 196.788,87.202 196.783,87.108 C196.779,87.015 196.776,86.927 196.776,86.846 L196.776,81.861 L197.715,81.861" fill="#1A1919"/>
      <path d="M203.495,83.054 C203.463,83.112 203.426,83.153 203.39,83.181 C203.352,83.209 203.305,83.222 203.248,83.222 C203.187,83.222 203.118,83.193 203.041,83.138 C202.963,83.082 202.866,83.019 202.75,82.949 C202.633,82.88 202.495,82.817 202.333,82.76 C202.171,82.704 201.978,82.676 201.752,82.676 C201.539,82.676 201.353,82.704 201.193,82.76 C201.032,82.817 200.899,82.893 200.791,82.99 C200.684,83.087 200.602,83.201 200.546,83.332 C200.49,83.462 200.463,83.604 200.463,83.757 C200.463,83.954 200.512,84.117 200.611,84.246 C200.711,84.375 200.842,84.486 201.003,84.578 C201.165,84.669 201.349,84.75 201.555,84.817 C201.76,84.885 201.97,84.956 202.186,85.029 C202.402,85.102 202.613,85.186 202.818,85.281 C203.023,85.376 203.208,85.496 203.369,85.64 C203.531,85.785 203.662,85.962 203.762,86.171 C203.86,86.379 203.91,86.635 203.91,86.938 C203.91,87.26 203.855,87.563 203.746,87.845 C203.637,88.128 203.477,88.373 203.268,88.584 C203.06,88.795 202.802,88.961 202.498,89.081 C202.192,89.202 201.846,89.262 201.458,89.262 C201.226,89.262 201,89.239 200.781,89.193 C200.562,89.148 200.355,89.083 200.159,89 C199.964,88.917 199.781,88.816 199.611,88.699 C199.441,88.582 199.288,88.45 199.153,88.304 L199.461,87.784 C199.491,87.743 199.528,87.709 199.571,87.682 C199.612,87.655 199.66,87.641 199.714,87.641 C199.785,87.641 199.867,87.678 199.96,87.753 C200.052,87.827 200.166,87.911 200.303,88.001 C200.439,88.091 200.603,88.173 200.793,88.248 C200.984,88.323 201.216,88.36 201.489,88.36 C201.711,88.36 201.91,88.33 202.085,88.271 C202.26,88.211 202.408,88.127 202.528,88.015 C202.647,87.905 202.74,87.772 202.802,87.616 C202.867,87.46 202.899,87.286 202.899,87.096 C202.899,86.882 202.85,86.706 202.753,86.571 C202.654,86.435 202.525,86.321 202.363,86.229 C202.202,86.137 202.018,86.059 201.812,85.995 C201.607,85.931 201.396,85.863 201.18,85.793 C200.965,85.724 200.754,85.643 200.549,85.551 C200.343,85.459 200.159,85.339 199.997,85.192 C199.836,85.044 199.706,84.859 199.608,84.637 C199.511,84.414 199.461,84.139 199.461,83.813 C199.461,83.551 199.512,83.298 199.613,83.054 C199.714,82.809 199.862,82.593 200.056,82.403 C200.249,82.215 200.488,82.064 200.771,81.95 C201.054,81.836 201.378,81.779 201.742,81.779 C202.149,81.779 202.524,81.845 202.866,81.975 C203.208,82.106 203.506,82.294 203.759,82.539 L203.495,83.054" fill="#1A1919"/>
      <path d="M205.496,81.861 L206.578,81.861 L206.578,89.18 L205.496,89.18 z" fill="#1A1919"/>
      <path d="M214.595,81.861 L214.595,89.18 L214.049,89.18 C213.965,89.18 213.895,89.165 213.84,89.135 C213.784,89.104 213.727,89.055 213.669,88.987 L209.57,83.64 C209.577,83.732 209.582,83.821 209.587,83.91 C209.593,83.999 209.595,84.082 209.595,84.16 L209.595,89.18 L208.65,89.18 L208.65,81.861 L209.206,81.861 C209.301,81.861 209.371,81.872 209.418,81.894 C209.465,81.916 209.517,81.966 209.574,82.044 L213.685,87.396 C213.675,87.298 213.667,87.202 213.663,87.108 C213.658,87.015 213.655,86.927 213.655,86.846 L213.655,81.861 L214.595,81.861" fill="#1A1919"/>
      <path d="M216.453,85.327 L220.508,85.327 L220.508,86.051 L216.453,86.051 z" fill="#1A1919"/>
      <path d="M229.994,81.861 L229.994,89.18 L229.054,89.18 L229.054,83.971 C229.054,83.893 229.057,83.81 229.062,83.721 C229.067,83.633 229.072,83.543 229.079,83.451 L226.663,87.921 C226.578,88.088 226.449,88.171 226.274,88.171 L226.122,88.171 C225.946,88.171 225.819,88.088 225.738,87.921 L223.276,83.436 C223.296,83.627 223.306,83.804 223.306,83.971 L223.306,89.18 L222.361,89.18 L222.361,81.861 L223.159,81.861 C223.254,81.861 223.327,81.87 223.38,81.889 C223.432,81.907 223.482,81.96 223.529,82.044 L225.955,86.428 C226.002,86.517 226.046,86.61 226.086,86.708 C226.127,86.807 226.166,86.906 226.203,87.004 C226.274,86.804 226.357,86.61 226.451,86.423 L228.832,82.044 C228.876,81.96 228.923,81.907 228.976,81.889 C229.028,81.87 229.101,81.861 229.195,81.861 L229.994,81.861" fill="#1A1919"/>
      <path d="M235.918,86.453 L234.842,83.614 C234.764,83.421 234.686,83.176 234.608,82.88 C234.572,83.027 234.534,83.162 234.495,83.288 C234.457,83.414 234.418,83.526 234.382,83.624 L233.31,86.453 L235.918,86.453 z M238.047,89.18 L237.218,89.18 C237.123,89.18 237.045,89.157 236.984,89.109 C236.924,89.062 236.88,89.001 236.854,88.926 L236.212,87.228 L233.012,87.228 L232.369,88.926 C232.346,88.99 232.302,89.049 232.238,89.101 C232.174,89.154 232.097,89.18 232.006,89.18 L231.176,89.18 L234.067,81.861 L235.154,81.861 L238.047,89.18" fill="#1A1919"/>
      <path d="M244.467,85.521 C244.467,85.086 244.408,84.696 244.29,84.351 C244.171,84.006 244.004,83.714 243.786,83.474 C243.569,83.235 243.306,83.052 242.998,82.926 C242.69,82.8 242.344,82.738 241.964,82.738 L240.316,82.738 L240.316,88.304 L241.964,88.304 C242.344,88.304 242.69,88.241 242.998,88.115 C243.306,87.989 243.569,87.806 243.786,87.568 C244.004,87.328 244.171,87.037 244.29,86.693 C244.408,86.35 244.467,85.959 244.467,85.521 z M245.568,85.521 C245.568,86.068 245.482,86.566 245.308,87.014 C245.135,87.463 244.889,87.848 244.572,88.168 C244.256,88.49 243.876,88.738 243.435,88.916 C242.994,89.092 242.503,89.18 241.964,89.18 L239.235,89.18 L239.235,81.861 L241.964,81.861 C242.503,81.861 242.994,81.949 243.435,82.126 C243.876,82.302 244.256,82.551 244.572,82.873 C244.889,83.193 245.135,83.579 245.308,84.03 C245.482,84.48 245.568,84.977 245.568,85.521" fill="#1A1919"/>
      <path d="M247.236,81.861 L248.318,81.861 L248.318,89.18 L247.236,89.18 z" fill="#1A1919"/>
      <path d="M254.091,83.054 C254.057,83.112 254.021,83.153 253.985,83.181 C253.948,83.209 253.9,83.222 253.843,83.222 C253.782,83.222 253.714,83.193 253.636,83.138 C253.558,83.082 253.462,83.019 253.345,82.949 C253.229,82.88 253.09,82.817 252.929,82.76 C252.766,82.704 252.573,82.676 252.347,82.676 C252.135,82.676 251.948,82.704 251.789,82.76 C251.628,82.817 251.494,82.893 251.387,82.99 C251.279,83.087 251.197,83.201 251.141,83.332 C251.086,83.462 251.058,83.604 251.058,83.757 C251.058,83.954 251.107,84.117 251.207,84.246 C251.307,84.375 251.437,84.486 251.599,84.578 C251.76,84.669 251.944,84.75 252.15,84.817 C252.355,84.885 252.566,84.956 252.782,85.029 C252.997,85.102 253.207,85.186 253.414,85.281 C253.619,85.376 253.803,85.496 253.964,85.64 C254.127,85.785 254.257,85.962 254.356,86.171 C254.456,86.379 254.505,86.635 254.505,86.938 C254.505,87.26 254.451,87.563 254.341,87.845 C254.232,88.128 254.073,88.373 253.864,88.584 C253.655,88.795 253.397,88.961 253.093,89.081 C252.787,89.202 252.441,89.262 252.054,89.262 C251.821,89.262 251.596,89.239 251.376,89.193 C251.157,89.148 250.95,89.083 250.755,89 C250.559,88.917 250.376,88.816 250.206,88.699 C250.036,88.582 249.883,88.45 249.748,88.304 L250.057,87.784 C250.087,87.743 250.124,87.709 250.166,87.682 C250.208,87.655 250.255,87.641 250.31,87.641 C250.38,87.641 250.462,87.678 250.556,87.753 C250.647,87.827 250.762,87.911 250.899,88.001 C251.035,88.091 251.198,88.173 251.389,88.248 C251.579,88.323 251.811,88.36 252.084,88.36 C252.306,88.36 252.506,88.33 252.681,88.271 C252.856,88.211 253.003,88.127 253.123,88.015 C253.242,87.905 253.335,87.772 253.398,87.616 C253.462,87.46 253.495,87.286 253.495,87.096 C253.495,86.882 253.445,86.706 253.348,86.571 C253.25,86.435 253.12,86.321 252.959,86.229 C252.797,86.137 252.613,86.059 252.408,85.995 C252.202,85.931 251.991,85.863 251.776,85.793 C251.56,85.724 251.349,85.643 251.144,85.551 C250.938,85.459 250.755,85.339 250.592,85.192 C250.431,85.044 250.301,84.859 250.203,84.637 C250.106,84.414 250.057,84.139 250.057,83.813 C250.057,83.551 250.107,83.298 250.209,83.054 C250.31,82.809 250.457,82.593 250.651,82.403 C250.844,82.215 251.084,82.064 251.367,81.95 C251.649,81.836 251.973,81.779 252.337,81.779 C252.745,81.779 253.119,81.845 253.462,81.975 C253.804,82.106 254.102,82.294 254.354,82.539 L254.091,83.054" fill="#1A1919"/>
      <path d="M261.731,85.521 C261.731,85.086 261.672,84.695 261.554,84.348 C261.436,84.002 261.268,83.707 261.051,83.466 C260.833,83.225 260.571,83.04 260.263,82.911 C259.953,82.782 259.61,82.717 259.228,82.717 C258.848,82.717 258.503,82.782 258.195,82.911 C257.887,83.04 257.623,83.225 257.403,83.466 C257.184,83.707 257.016,84.002 256.898,84.348 C256.78,84.695 256.721,85.086 256.721,85.521 C256.721,85.959 256.78,86.351 256.898,86.696 C257.016,87.04 257.184,87.334 257.403,87.575 C257.623,87.817 257.887,88.001 258.195,88.128 C258.503,88.255 258.848,88.319 259.228,88.319 C259.61,88.319 259.953,88.255 260.263,88.128 C260.571,88.001 260.833,87.817 261.051,87.575 C261.268,87.334 261.436,87.04 261.554,86.696 C261.672,86.351 261.731,85.959 261.731,85.521 z M262.833,85.521 C262.833,86.067 262.745,86.57 262.572,87.027 C262.399,87.485 262.153,87.878 261.837,88.21 C261.52,88.541 261.141,88.798 260.699,88.982 C260.257,89.165 259.767,89.257 259.228,89.257 C258.693,89.257 258.203,89.165 257.759,88.982 C257.317,88.798 256.937,88.541 256.623,88.21 C256.307,87.878 256.062,87.485 255.887,87.027 C255.711,86.57 255.624,86.067 255.624,85.521 C255.624,84.977 255.711,84.476 255.887,84.017 C256.062,83.558 256.307,83.163 256.623,82.832 C256.937,82.501 257.317,82.242 257.759,82.057 C258.203,81.872 258.693,81.779 259.228,81.779 C259.767,81.779 260.257,81.872 260.699,82.057 C261.141,82.242 261.52,82.501 261.837,82.832 C262.153,83.163 262.399,83.558 262.572,84.017 C262.745,84.476 262.833,84.977 262.833,85.521" fill="#1A1919"/>
      <path d="M270.361,81.861 L270.361,89.18 L269.815,89.18 C269.731,89.18 269.661,89.165 269.605,89.135 C269.55,89.104 269.493,89.055 269.436,88.987 L265.336,83.64 C265.343,83.732 265.349,83.821 265.354,83.91 C265.36,83.999 265.361,84.082 265.361,84.16 L265.361,89.18 L264.417,89.18 L264.417,81.861 L264.972,81.861 C265.066,81.861 265.137,81.872 265.184,81.894 C265.232,81.916 265.284,81.966 265.341,82.044 L269.452,87.396 C269.441,87.298 269.434,87.202 269.428,87.108 C269.423,87.015 269.421,86.927 269.421,86.846 L269.421,81.861 L270.361,81.861" fill="#1A1919"/>
      <g clip-path="url(#Clip_1)">
        <path d="M35.841,15.288 C39.592,15.288 40.494,18.896 40.504,18.934 L40.55,19.126 L40.744,19.154 C42.132,19.35 43.978,20.398 44.703,21.877 C44.723,22.132 44.992,22.14 45.083,22.142 C49.209,22.201 53.015,24.03 56.094,27.431 C57.787,29.282 59.247,31.609 60.434,34.35 L60.673,34.919 C62.165,38.53 63.159,42.705 63.625,47.325 C65.95,70.348 55.624,99.037 37.091,103.394 L36.98,103.42 L36.916,103.515 C36.493,104.155 36.004,104.666 35.837,104.712 C35.67,104.667 35.181,104.155 34.759,103.515 L34.695,103.42 L34.584,103.394 C16.049,99.037 5.723,70.348 8.05,47.325 C8.319,44.666 8.76,42.163 9.364,39.845 C9.982,37.473 10.782,35.256 11.741,33.256 C12.812,31.022 14.104,29.062 15.581,27.431 C18.66,24.03 22.467,22.201 26.588,22.142 C26.683,22.14 26.95,22.132 26.973,21.882 C27.694,20.4 29.551,19.365 30.937,19.17 L31.131,19.143 L31.178,18.952 C31.217,18.796 32.099,15.288 35.841,15.288 z" fill="url(#Gradient_1)"/>
      </g>
      <g clip-path="url(#Clip_2)">
        <path d="M63.137,60.201 C62.817,63.97 62.206,67.714 61.307,71.386 C60.427,74.979 59.271,78.508 57.805,81.902 C56.288,85.414 54.399,88.832 52.104,91.889 C51.625,92.526 51.129,93.15 50.615,93.757 C49.858,94.648 49.057,95.5 48.209,96.303 C47.178,97.278 46.067,98.188 44.889,99.003 C43.034,100.287 41.01,101.318 38.887,102.024 C38.457,102.167 38.444,102.192 37.932,102.309 C38.349,101.411 38.657,100.327 38.613,99.11 C39.386,98.833 40.14,98.5 40.87,98.122 C44.109,96.447 46.916,93.881 49.189,91.035 C51.454,88.2 53.287,85.017 54.794,81.732 C56.293,78.463 57.48,75.05 58.4,71.571 C59.348,67.99 60.014,64.332 60.394,60.646 C60.77,57.005 60.873,53.327 60.628,49.673 C60.363,45.69 59.7,41.714 58.377,37.943 C57.349,35.01 55.907,32.137 53.809,29.831 C51.652,27.46 48.753,25.821 45.508,25.815 C43.339,25.811 41.844,27.48 41.397,29.618 C41.034,31.338 41.387,33.48 42.469,34.88 C42.927,35.357 42.853,35.492 42.712,35.493 C41.789,35.501 37.082,34.766 37.485,30.11 C37.746,27.075 39.217,25.079 40.896,23.876 C42.42,22.909 44.152,22.796 44.867,22.796 C45.745,22.796 46.622,22.85 47.485,23.012 C47.835,23.062 48.219,23.19 48.541,23.279 C48.895,23.375 49.246,23.487 49.591,23.613 C50.272,23.86 50.932,24.161 51.566,24.51 C53.09,25.346 54.428,26.447 55.621,27.71 C56.9,29.065 57.955,30.645 58.84,32.283 C59.707,33.886 60.407,35.572 60.99,37.299 C61.626,39.183 62.096,41.124 62.45,43.08 C62.807,45.047 63.043,47.035 63.207,49.027 C63.512,52.738 63.454,56.493 63.137,60.201 z M36.156,103.619 C36.144,103.633 35.995,103.817 35.837,103.835 C35.68,103.817 35.53,103.633 35.518,103.619 C34.717,102.604 33.523,100.636 33.972,98.287 C34.1,97.625 35.203,97.327 35.837,97.32 C36.472,97.327 37.575,97.625 37.702,98.287 C38.153,100.636 36.958,102.604 36.156,103.619 z M32.787,102.024 C30.664,101.318 28.641,100.287 26.786,99.003 C25.608,98.188 24.497,97.278 23.466,96.303 C22.618,95.5 21.816,94.648 21.061,93.757 C20.545,93.15 20.049,92.526 19.571,91.889 C17.276,88.832 15.387,85.414 13.87,81.902 C12.404,78.508 11.247,74.979 10.368,71.386 C9.469,67.714 8.858,63.97 8.537,60.201 C8.221,56.493 8.162,52.738 8.467,49.027 C8.631,47.035 8.868,45.047 9.225,43.08 C9.579,41.124 10.049,39.183 10.684,37.299 C11.268,35.572 11.967,33.886 12.834,32.283 C13.72,30.645 14.774,29.065 16.054,27.71 C17.246,26.447 18.586,25.346 20.108,24.51 C20.743,24.161 21.404,23.86 22.083,23.613 C22.429,23.487 22.779,23.375 23.134,23.279 C23.456,23.19 23.86,23.057 24.189,23.012 C25.052,22.85 25.929,22.796 26.807,22.796 C27.523,22.796 29.254,22.909 30.778,23.876 C32.457,25.079 33.928,27.075 34.189,30.11 C34.593,34.766 29.886,35.501 28.963,35.493 C28.822,35.492 28.747,35.357 29.205,34.88 C30.287,33.48 30.64,31.338 30.278,29.618 C29.831,27.48 28.336,25.811 26.167,25.815 C22.922,25.821 20.022,27.46 17.866,29.831 C15.768,32.137 14.326,35.01 13.298,37.943 C11.975,41.714 11.312,45.69 11.047,49.673 C10.803,53.327 10.905,57.005 11.281,60.646 C11.661,64.332 12.326,67.99 13.274,71.571 C14.195,75.05 15.381,78.463 16.881,81.732 C18.387,85.017 20.221,88.2 22.485,91.035 C24.759,93.881 27.565,96.447 30.804,98.122 C31.535,98.5 32.288,98.833 33.063,99.11 C33.018,100.327 33.326,101.411 33.742,102.309 C33.23,102.192 33.218,102.167 32.787,102.024 z M53.876,51.39 C53.24,47.473 51.315,42.319 47.15,39.673 C52.083,36.755 54.223,33.552 54.712,32.271 C57.464,36.213 59.363,42.13 59.809,49.671 C58.801,50.2 56.663,51.144 53.876,51.39 z M47.966,80.676 C49.682,77.623 51.136,74.412 52.195,71.066 C52.97,68.613 53.538,66.08 53.892,63.516 C54.265,60.807 54.399,58.064 54.288,55.346 C54.257,54.59 54.172,53.378 53.962,51.936 C56.652,51.697 58.728,50.842 59.842,50.277 C60.376,61.33 57.965,73.59 53.227,83.089 C52.342,82.915 49.718,82.282 47.966,80.676 z M39.046,91.617 C41.424,89.895 44.542,86.633 47.686,81.166 C49.451,82.734 51.916,83.383 52.965,83.599 C50.235,88.92 46.765,93.327 42.665,96.108 C41.948,95.548 39.907,93.82 39.046,91.617 z M33.103,91.951 C34.373,92.884 35.668,93.414 35.837,93.468 C36.006,93.414 37.302,92.884 38.571,91.951 C39.467,94.094 41.334,95.754 42.184,96.429 C41.013,97.178 39.793,97.799 38.525,98.267 C38.517,98.221 38.514,98.176 38.506,98.13 C38.244,96.769 36.481,96.491 35.837,96.49 C35.193,96.491 33.431,96.769 33.169,98.13 C33.161,98.176 33.158,98.221 33.149,98.267 C31.881,97.799 30.662,97.178 29.49,96.429 C30.34,95.754 32.207,94.094 33.103,91.951 z M23.988,81.166 C27.133,86.633 30.25,89.895 32.629,91.617 C31.767,93.82 29.727,95.548 29.01,96.108 C24.909,93.327 21.439,88.92 18.709,83.599 C19.759,83.383 22.224,82.734 23.988,81.166 z M11.866,49.671 C12.311,42.13 14.211,36.213 16.963,32.271 C17.452,33.552 19.591,36.755 24.524,39.673 C20.331,42.218 18.435,47.473 17.798,51.39 C15.012,51.144 12.873,50.2 11.866,49.671 z M17.712,51.936 C17.502,53.378 17.419,54.59 17.387,55.346 C17.276,58.064 17.41,60.807 17.783,63.516 C18.136,66.08 18.704,68.613 19.48,71.066 C20.539,74.412 21.992,77.623 23.708,80.676 C21.957,82.282 19.332,82.915 18.448,83.089 C13.709,73.59 11.298,61.33 11.832,50.277 C12.946,50.842 15.022,51.697 17.712,51.936 z M33.935,20.321 C34.724,20.812 35.342,21.586 35.564,22.493 C35.629,22.761 35.73,22.921 35.837,22.921 C35.945,22.921 36.045,22.761 36.11,22.493 C36.332,21.586 36.951,20.812 37.739,20.321 C40.126,18.838 42.832,19.82 43.915,21.956 C43.362,22.05 42.873,22.187 42.21,22.387 C41.248,22.722 40.454,23.132 39.778,23.75 C38.261,25.141 36.918,27.293 36.668,30.037 C35.987,37.577 44.564,36.393 44.997,36.357 C46.105,36.357 46.942,34.597 46.942,32.264 C46.942,29.929 46.082,28.168 44.997,28.168 C44.332,28.168 43.182,28.704 43.075,30.794 C43,32.262 43.713,34.214 44.633,34.336 C45.11,34.399 45.547,33.548 45.683,32.686 C45.804,31.935 45.741,30.758 45.076,30.59 C44.867,30.537 44.655,30.667 44.602,30.879 C44.553,31.071 45.013,31.398 44.997,32.262 C44.97,33.553 43.684,32.908 43.856,30.86 C44.012,29.042 44.932,29.157 44.97,29.156 C45.485,29.156 46.261,30.238 46.261,32.264 C46.261,34.066 45.397,36.006 43.749,34.993 C42.361,33.969 41.813,31.613 42.197,29.79 C42.372,28.953 43.087,26.676 45.397,26.676 C48.73,26.676 51.837,28.441 54.314,31.725 C54.043,32.606 52.325,35.955 46.865,39.162 C46.748,39.22 46.576,39.322 46.566,39.317 C44.9,38.634 43.337,38.208 41.52,38.312 C39.912,38.405 38.342,38.701 36.777,39.071 C36.469,39.144 36.153,39.226 35.837,39.226 C35.521,39.226 35.205,39.144 34.897,39.071 C33.333,38.701 31.763,38.405 30.155,38.312 C28.337,38.208 26.774,38.634 25.108,39.317 C25.099,39.322 24.926,39.22 24.809,39.162 C19.35,35.955 17.632,32.606 17.361,31.725 C19.839,28.441 22.945,26.676 26.278,26.676 C28.587,26.676 29.303,28.953 29.478,29.79 C29.861,31.613 29.314,33.969 27.926,34.993 C26.278,36.006 25.415,34.066 25.415,32.264 C25.415,30.238 26.189,29.156 26.704,29.156 C26.743,29.157 27.663,29.042 27.819,30.86 C27.991,32.908 26.704,33.553 26.678,32.262 C26.661,31.398 27.121,31.071 27.073,30.879 C27.02,30.667 26.808,30.537 26.598,30.59 C25.934,30.758 25.871,31.935 25.992,32.686 C26.128,33.548 26.564,34.399 27.042,34.336 C27.962,34.214 28.675,32.262 28.599,30.794 C28.493,28.704 27.343,28.168 26.678,28.168 C25.592,28.168 24.733,29.929 24.733,32.264 C24.733,34.597 25.57,36.357 26.678,36.357 C27.11,36.393 35.688,37.577 35.007,30.037 C34.758,27.293 33.414,25.141 31.896,23.75 C31.221,23.132 30.427,22.722 29.465,22.387 C28.802,22.187 28.313,22.05 27.76,21.956 C28.844,19.82 31.549,18.838 33.935,20.321 z M35.837,15.901 C39.123,15.901 39.847,18.717 39.853,18.746 C38.219,18.858 36.696,19.855 35.909,21.293 C35.896,21.315 35.868,21.389 35.837,21.389 C35.803,21.389 35.778,21.315 35.766,21.293 C34.979,19.855 33.455,18.858 31.822,18.746 C31.827,18.717 32.551,15.901 35.837,15.901 z M63.888,47.297 C63.696,45.394 63.409,43.499 63.007,41.629 C62.636,39.907 62.167,38.207 61.581,36.547 C60.963,34.8 60.214,33.083 59.305,31.468 C58.452,29.952 57.449,28.526 56.283,27.237 C53.173,23.801 49.331,21.907 45.072,21.847 L44.979,21.847 C44.287,20.32 42.381,19.078 40.724,18.845 C40.724,18.845 39.834,15.018 35.837,15 C31.841,15.018 30.95,18.845 30.95,18.845 C29.293,19.078 27.387,20.32 26.696,21.847 L26.603,21.847 C22.343,21.907 18.502,23.801 15.392,27.237 C14.225,28.526 13.223,29.952 12.37,31.468 C11.461,33.083 10.712,34.8 10.094,36.547 C9.507,38.207 9.039,39.907 8.669,41.629 C8.266,43.499 7.978,45.394 7.787,47.297 C5.43,70.618 15.833,99.282 34.543,103.68 C34.828,104.11 35.48,105 35.837,105 C36.195,105 36.847,104.11 37.131,103.68 C55.842,99.282 66.244,70.618 63.888,47.297" fill="#1A1919"/>
      </g>
      <path d="M53.269,55.494 C53.154,52.722 52.351,44.259 46.639,40.587 C45.405,39.795 43.783,39.445 42.154,39.338 C39.35,39.154 37.272,40.236 35.872,40.275 L35.803,40.275 C34.403,40.236 32.308,39.154 29.504,39.338 C27.877,39.445 26.27,39.795 25.035,40.587 C19.325,44.259 18.521,52.722 18.405,55.494 C17.997,65.299 21.072,72.957 22.025,75.071 C25.978,83.844 30.748,90.047 35.46,92.156 L35.836,92.327 L36.216,92.156 C40.926,90.047 45.699,83.844 49.649,75.071 C50.602,72.957 53.677,65.299 53.269,55.494" fill="#BC1F41"/>
      <path d="M44.322,48.839 L44.322,50.755 L44.706,50.696 C44.712,50.695 44.784,50.686 44.885,50.686 C45.096,50.686 45.483,50.723 45.725,50.972 C45.953,51.205 46.025,51.599 45.944,52.116 C45.937,52.136 42.122,68.811 41.396,71.989 C40.561,67.971 36.016,46.03 36.016,46.03 L35.996,45.937 L35.095,45.937 L35.08,46.036 C35.08,46.036 31.791,67.395 31.134,71.669 C30.277,67.969 26.613,52.136 26.613,52.136 C26.602,52.035 26.598,51.938 26.598,51.848 C26.598,51.4 26.702,51.071 26.912,50.868 C27.191,50.598 27.614,50.637 27.65,50.64 L28.028,50.691 L28.031,48.839 L21.648,48.839 L21.648,50.65 L21.931,50.695 C22.07,50.723 22.782,50.896 22.899,51.552 C22.901,51.564 30.367,83.867 30.684,85.241 L30.705,85.331 L31.828,85.331 L31.841,85.234 C31.877,85.01 34.916,64.961 35.483,61.205 C36.205,64.944 40.075,85.016 40.117,85.237 L40.136,85.331 L41.137,85.331 L48.548,51.534 C48.719,50.832 49.33,50.757 49.585,50.757 C49.622,50.757 49.648,50.758 49.66,50.76 L50.026,50.79 L50.026,48.839 L44.322,48.839" fill="#FFFFFE"/>
    </g>
  </g>
</svg>
